<svg width="120" height="120" viewBox="0 0 120 120" fill="none" xmlns="http://www.w3.org/2000/svg">
<rect width="120" height="120" rx="26" fill="#5E423E"/>
<path d="M66.2189 40.5404L65.9593 39.6855C66.9576 39.2773 67.8407 38.8551 68.6084 38.4187C69.3962 37.9629 70.0896 37.4434 70.6889 36.8602C70.3076 36.726 70.0252 36.5249 69.8417 36.2567C69.6773 35.9891 69.6008 35.6944 69.612 35.3726C69.6233 35.0508 69.7615 34.6831 70.0268 34.2695C70.2921 33.8558 70.6135 33.4945 70.9909 33.1855C71.3875 32.8771 71.7593 32.729 72.1062 32.7411C72.376 32.7505 72.6227 32.8699 72.8462 33.0992C73.0698 33.3285 73.1717 33.7248 73.152 34.288C73.1099 35.4948 72.5784 36.6241 71.5576 37.6759C70.7587 38.4535 69.8978 39.0679 68.9752 39.519C68.0725 39.9506 67.1538 40.2911 66.2189 40.5404ZM71.8574 35.7229C71.9849 35.385 72.0058 35.0635 71.92 34.7585C71.8541 34.434 71.6767 34.2667 71.3876 34.2566C71.272 34.2525 71.136 34.278 70.9797 34.3329C70.8427 34.3886 70.7136 34.4948 70.5923 34.6517C70.5853 34.8528 70.6939 35.058 70.9182 35.2672C71.1617 35.4771 71.4747 35.629 71.8574 35.7229Z" fill="#FEFEFE"/>
<path d="M86.1829 47.9659L86.9119 19.9242C86.9713 18.2253 87.071 16.8029 87.211 15.6571C87.3529 14.4613 87.567 13.3431 87.8535 12.3025C88.14 11.2618 88.5549 10.1256 89.0982 8.89382C89.6915 7.66378 90.4693 6.16501 91.4316 4.39751L92.6177 4.81417L91.3687 29.8358C91.1966 33.3319 90.7575 36.5936 90.0514 39.6208C89.3471 42.598 88.449 45.3934 87.3571 48.0069L86.1829 47.9659Z" fill="#FEFEFE"/>
<path d="M73.8452 53.8145C73.8958 52.3653 74.1376 51.1731 74.5705 50.2376C75.0034 49.3021 75.4863 48.3684 76.0191 47.4364C76.6037 46.4562 77.122 45.2236 77.5741 43.7385C78.0262 42.2533 78.295 40.2865 78.3806 37.838L78.7915 26.0702C78.9067 22.7722 79.1456 20.229 79.5082 18.4405C79.9226 16.6039 80.4092 14.8448 80.9683 13.1633L82.824 7.29948L84.3902 7.57931L82.9033 32.9679C82.7748 35.2148 82.4836 37.1058 82.0298 38.6409C81.6276 40.1277 81.1834 41.388 80.697 42.4216C80.2124 43.4053 79.7812 44.2908 79.4035 45.0781C79.0775 45.8172 78.9014 46.5615 78.8753 47.311C78.8369 48.4104 79.4077 49.2558 80.5878 49.8474C80.4582 50.6933 80.0055 51.478 79.2298 52.2014C78.4558 52.8748 77.563 53.3689 76.5514 53.6838C75.5898 54.0005 74.6877 54.044 73.8452 53.8145Z" fill="#FEFEFE"/>
<path d="M57.1695 69.2911C56.2201 69.2579 55.2277 69.0231 54.1923 68.5867C53.2068 68.1521 52.3318 67.4211 51.5672 66.3938L53.8177 62.1197C54.4464 62.7421 55.1561 63.1921 55.9469 63.4699C56.7859 63.7994 57.6302 63.9789 58.4797 64.0086C60.4285 64.0766 62.2716 63.5907 64.0089 62.5507C65.7962 61.5124 67.3976 60.0674 68.8131 58.2157C69.7062 56.9961 70.5915 56.0014 71.4689 55.2316C72.3463 54.4617 73.1383 53.9891 73.8448 53.8136C74.4724 53.035 75.5006 52.2454 76.9294 51.4448C78.3582 50.6442 79.5775 50.1114 80.5874 49.8465C82.6529 50.8692 84.0172 51.9175 84.6801 52.9913C85.3948 54.0168 85.7294 55.1792 85.684 56.4784C85.6509 57.4278 85.342 58.3927 84.7575 59.3729C84.1746 60.3031 83.4936 61.1798 82.7144 62.0031C81.9869 62.7782 81.3379 63.456 80.7673 64.0364C79.2514 63.0329 77.9257 62.3112 76.7904 61.8713C75.6568 61.3815 74.6903 61.1226 73.8907 61.0947C72.9413 61.0615 71.9599 61.2274 70.9466 61.5922C69.9849 61.9088 68.8577 62.67 67.5648 63.8756C65.7548 65.5634 64.057 66.905 62.4713 67.9003C60.8856 68.8955 59.1183 69.3591 57.1695 69.2911Z" fill="#FEFEFE"/>
<path d="M38.3196 76.714C38.444 76.0179 38.7046 75.0014 39.1015 73.6644C39.4984 72.3275 39.9703 70.9931 40.5171 69.6614C41.0621 68.3796 41.6217 67.3985 42.1958 66.7182L42.3457 66.7234C43.1952 66.7531 43.9991 66.6561 44.7573 66.4324C45.5656 66.2105 46.3015 65.911 46.965 65.5339C47.4752 65.2515 47.9862 64.9442 48.4982 64.6118C49.0101 64.2795 49.472 63.9454 49.884 63.6096C49.364 62.7409 48.8414 61.9472 48.3161 61.2284C47.7926 60.4597 47.1881 59.8632 46.5025 59.439C46.0132 59.1218 45.3947 58.9251 44.6469 58.8489C43.9491 58.7745 43.1194 58.8956 42.1577 59.2123L41.4632 57.6121C43.1732 55.9207 45.127 54.413 47.3246 53.0889C49.5239 51.7148 52.0477 51.0775 54.8959 51.1769C57.3444 51.2624 59.0501 51.8473 60.0128 52.9316C61.0273 53.9676 61.5074 55.2602 61.4534 56.8092C61.4062 58.1584 60.8257 59.7391 59.7118 61.5513C58.5996 63.3136 57.0671 64.9361 55.1141 66.4188L53.0904 66.3482C52.1008 67.4643 50.957 68.7001 49.6589 70.0557C48.4107 71.4129 47.0679 72.6168 45.6304 73.6673C44.4479 74.5766 43.2466 75.3101 42.0264 75.8678C40.8044 76.4756 39.6188 76.7594 38.4695 76.7192L38.3196 76.714Z" fill="#FEFEFE"/>
<path d="M23.0246 75.279C22.5493 74.562 22.2121 73.4745 22.0128 72.0167C21.8136 70.5588 21.841 69.0589 22.0949 67.5168C22.6429 67.586 23.1408 67.6534 23.5888 67.7191C24.085 67.8365 24.5829 67.9039 25.0826 67.9213C28.3307 68.0348 30.8123 67.1708 32.5276 65.3296C33.175 62.5505 34.3418 59.9396 36.0281 57.497L37.1446 57.7611C36.6006 60.4437 36.8254 62.6029 37.8189 64.2386C38.8124 65.8742 40.2836 66.7261 42.2324 66.7942L42.3823 66.7994C42.4799 68.3037 42.3285 69.7743 41.9281 71.2112C41.5277 72.6481 41.0102 73.8558 40.3757 74.8343C39.7394 75.8627 39.1162 76.5163 38.5061 76.7952L38.3562 76.79C36.6073 76.7289 35.2506 76.1812 34.2861 75.1469C33.3198 74.1626 32.6621 72.9389 32.313 71.4758C31.0596 72.983 29.5954 74.0826 27.9202 74.7745C26.245 75.4665 24.6132 75.6346 23.0246 75.279Z" fill="#FEFEFE"/>
<path d="M33.9745 91.4455C33.7088 91.4362 33.3691 91.3699 32.9555 91.2464C31.7916 90.8425 30.8808 90.2658 30.223 89.5164C29.5665 88.7306 29.2516 87.9567 29.2782 87.1948C29.2997 86.578 29.4901 86.0216 29.8494 85.5256C30.2087 85.0296 30.5269 84.623 30.804 84.3057L32.9427 81.8194L33.2843 81.8314C33.5537 82.8216 34.1336 83.6228 35.0242 84.2351C35.9527 84.8488 36.8882 85.2629 37.8307 85.4774L41.8158 80.7126L42.1574 80.7245C42.4281 81.6784 42.972 82.424 43.7892 82.9611C44.6064 83.4982 45.4862 83.874 46.4287 84.0885C47.0688 84.2562 47.3806 84.5758 47.3641 85.0475C47.354 85.3377 47.2098 85.6596 46.9314 86.0132L44.009 89.7253C43.6522 90.1488 43.2461 90.3525 42.7907 90.3366C42.525 90.3274 42.1854 90.261 41.7717 90.1376C40.8723 89.7792 40.0892 89.3523 39.4226 88.8568C38.7572 88.325 38.2619 87.8173 37.9368 87.3337L35.1927 90.8342C34.836 91.2576 34.4299 91.4614 33.9745 91.4455Z" fill="#FEFEFE"/>
<path d="M64.5873 90.5134C64.4745 90.5094 64.3476 90.505 64.2066 90.5001C64.0666 90.4646 63.9267 90.4291 63.7868 90.3935C62.5858 90.0147 61.7026 89.4325 61.1371 88.6469C60.5716 87.8614 60.3006 87.1321 60.3241 86.4591C60.3454 85.8472 60.5051 85.3167 60.8032 84.8677C61.1012 84.4186 61.3684 84.0451 61.6047 83.747L63.3785 81.4657L63.59 81.4731C64.0113 82.3454 64.5231 83.0525 65.1254 83.5943C65.7559 84.137 66.5609 84.5327 67.5405 84.7813C68.1013 84.8928 68.3748 85.1474 68.3609 85.5451C68.3523 85.7899 68.2147 86.0914 67.9481 86.4496L65.5811 89.9508C65.4033 90.1896 65.2423 90.3525 65.0981 90.4393C64.9832 90.4966 64.8129 90.5213 64.5873 90.5134Z" fill="#FEFEFE"/>
<path d="M86.1891 47.7409C94.0304 124.061 21.9064 112.037 23.1802 75.5589L21.9604 67.5114C5.84629 113.477 101.635 149.842 91.2799 30.9083L86.1891 47.7409Z" fill="#FEFEFE"/>
<path d="M50.9443 78.0298L50.6243 77.6412C51.0383 76.9286 51.4049 76.3822 51.7239 76.0019C52.0716 75.5946 52.6405 75.223 53.4305 74.8871L61.5156 71.3947L61.8356 71.7834L61.3023 72.7294C60.917 73.415 60.5519 73.9195 60.2071 74.243C59.8632 74.5386 59.3672 74.8148 58.7189 75.0718L50.9443 78.0298Z" fill="#FEFEFE"/>
</svg>
