<svg width="65" height="65" viewBox="0 0 65 65" fill="none" xmlns="http://www.w3.org/2000/svg">
<rect width="65" height="65" rx="11" fill="#43695A"/>
<path d="M37.3072 26.2235L37.0263 25.5584C37.7942 25.146 38.4681 24.7321 39.0483 24.3166C39.6428 23.8837 40.1563 23.4077 40.5886 22.8884C40.2709 22.8128 40.0269 22.6749 39.8567 22.4749C39.7021 22.2738 39.6157 22.0434 39.5975 21.7839C39.5794 21.5243 39.6594 21.2171 39.8377 20.8623C40.0159 20.5075 40.2437 20.1899 40.5209 19.9097C40.8136 19.6284 41.0999 19.478 41.3797 19.4584C41.5973 19.4432 41.8056 19.5183 42.0046 19.6837C42.2036 19.8491 42.319 20.1589 42.3508 20.6132C42.4189 21.5866 42.0871 22.539 41.3556 23.4705C40.7792 24.1629 40.1393 24.7294 39.436 25.1698C38.747 25.5929 38.0374 25.9442 37.3072 26.2235ZM41.4316 21.8757C41.5055 21.5934 41.4952 21.3333 41.4004 21.0954C41.3201 20.8401 41.1633 20.7207 40.9302 20.737C40.8369 20.7435 40.7298 20.7754 40.6088 20.8328C40.5034 20.8891 40.4086 20.9854 40.3244 21.1217C40.3358 21.2839 40.4404 21.4396 40.6383 21.5888C40.8517 21.7369 41.1161 21.8326 41.4316 21.8757Z" fill="#A39771"/>
<path d="M49.3122 26.147L49.7107 10.8189C49.7432 9.89021 49.7977 9.11271 49.8742 8.48639C49.9518 7.83275 50.0688 7.22152 50.2254 6.65268C50.382 6.08385 50.6088 5.46278 50.9058 4.78946C51.2301 4.11709 51.6553 3.29784 52.1813 2.33169L52.8296 2.55944L52.2141 17.6108C52.12 19.5218 51.8128 19.9307 51.4269 21.5854C51.0419 23.2128 50.5509 24.7408 49.9541 26.1694L49.3122 26.147Z" fill="#F2F1DF"/>
<path d="M42.5701 29.3435C42.5978 28.5514 42.7299 27.8997 42.9665 27.3884C43.2032 26.877 43.4671 26.3666 43.7584 25.8572C44.0779 25.3214 44.3613 24.6476 44.6084 23.8358C44.8555 23.024 45.0025 21.9489 45.0492 20.6105L45.2738 14.178C45.3368 12.3752 45.4674 10.9851 45.6656 10.0075C45.8921 9.00353 46.1581 8.04197 46.4637 7.12283L47.4781 3.91756L48.3342 4.07052L47.5214 17.9484C47.4512 19.1766 47.292 20.2102 47.0439 21.0494C46.8241 21.8621 46.5813 22.551 46.3154 23.116C46.0505 23.6537 45.8148 24.1377 45.6084 24.5681C45.4302 24.9721 45.3339 25.3789 45.3196 25.7887C45.2986 26.3896 45.6107 26.8517 46.2557 27.175C46.1849 27.6375 45.9374 28.0664 45.5134 28.4618C45.0903 28.8299 44.6023 29.1 44.0494 29.2721C43.5237 29.4452 43.0306 29.469 42.5701 29.3435Z" fill="#F2F1DF"/>
<path d="M33.456 37.8038C32.9371 37.7857 32.3946 37.6574 31.8286 37.4188C31.29 37.1813 30.8117 36.7817 30.3937 36.2201L31.6239 33.8839C31.9675 34.224 32.3555 34.47 32.7878 34.6219C33.2464 34.802 33.7079 34.9001 34.1722 34.9163C35.2375 34.9535 36.2449 34.6879 37.1946 34.1194C38.1716 33.5519 39.0469 32.762 39.8207 31.7498C40.3089 31.0832 40.7928 30.5395 41.2724 30.1186C41.752 29.6978 42.1849 29.4395 42.5711 29.3436C42.9141 28.918 43.4762 28.4864 44.2572 28.0487C45.0382 27.6111 45.7047 27.3199 46.2567 27.1751C47.3858 27.7341 48.1315 28.3071 48.4939 28.8941C48.8845 29.4546 49.0674 30.09 49.0426 30.8002C49.0245 31.3192 48.8557 31.8466 48.5362 32.3824C48.2176 32.8908 47.8453 33.3701 47.4194 33.8201C47.0217 34.2438 46.6669 34.6143 46.355 34.9316C45.5264 34.383 44.8018 33.9885 44.1812 33.7481C43.5616 33.4803 43.0332 33.3388 42.5962 33.3235C42.0772 33.3054 41.5408 33.3961 40.9869 33.5955C40.4612 33.7686 39.845 34.1846 39.1383 34.8436C38.1489 35.7662 37.2209 36.4996 36.3541 37.0436C35.4873 37.5876 34.5213 37.841 33.456 37.8038Z" fill="#F2F1DF"/>
<path d="M23.1525 41.8606C23.2205 41.4801 23.3629 40.9245 23.5799 40.1937C23.7968 39.4629 24.0548 38.7335 24.3537 38.0055C24.6516 37.3049 24.9575 36.7686 25.2713 36.3967L25.3532 36.3996C25.8176 36.4158 26.257 36.3628 26.6715 36.2405C27.1133 36.1192 27.5155 35.9555 27.8783 35.7494C28.1571 35.595 28.4365 35.427 28.7163 35.2453C28.9961 35.0637 29.2486 34.8811 29.4738 34.6975C29.1896 34.2227 28.9039 33.7888 28.6168 33.3959C28.3306 32.9757 28.0002 32.6497 27.6254 32.4178C27.358 32.2444 27.0199 32.1368 26.6111 32.0952C26.2297 32.0546 25.7761 32.1208 25.2505 32.2938L24.8708 31.4191C25.8056 30.4946 26.8736 29.6704 28.0748 28.9467C29.277 28.1956 30.6565 27.8472 32.2134 27.9016C33.5518 27.9483 34.4842 28.268 35.0104 28.8607C35.5649 29.427 35.8274 30.1335 35.7978 30.9803C35.7721 31.7178 35.4548 32.5818 34.8459 33.5724C34.2379 34.5357 33.4002 35.4226 32.3327 36.2331L31.2265 36.1945C30.6856 36.8046 30.0603 37.4801 29.3508 38.221C28.6685 38.963 27.9345 39.621 27.1487 40.1952C26.5023 40.6923 25.8457 41.0932 25.1787 41.3981C24.5107 41.7303 23.8627 41.8854 23.2344 41.8635L23.1525 41.8606Z" fill="#F2F1DF"/>
<path d="M14.7909 41.0772C14.5311 40.6853 14.3467 40.0909 14.2378 39.294C14.1289 38.4971 14.1439 37.6772 14.2827 36.8343C14.5822 36.8721 14.8544 36.9089 15.0993 36.9448C15.3705 37.009 15.6427 37.0458 15.9158 37.0554C17.6913 37.1174 19.0478 36.6451 19.9854 35.6387C20.3393 34.1196 20.9771 32.6924 21.8988 31.3572L22.5091 31.5016C22.2118 32.968 22.3346 34.1482 22.8777 35.0423C23.4208 35.9364 24.225 36.402 25.2902 36.4392L25.3722 36.4421C25.4255 37.2644 25.3427 38.0683 25.1239 38.8537C24.905 39.6391 24.6222 40.2993 24.2753 40.8341C23.9275 41.3963 23.5869 41.7536 23.2534 41.906L23.1714 41.9031C22.2154 41.8698 21.4738 41.5704 20.9466 41.005C20.4184 40.467 20.0589 39.7981 19.8681 38.9983C19.183 39.8222 18.3826 40.4232 17.4669 40.8015C16.5512 41.1797 15.6592 41.2716 14.7909 41.0772Z" fill="#F2F1DF"/>
<path d="M20.7769 49.913C20.6317 49.908 20.4461 49.8717 20.2199 49.8042C19.5838 49.5835 19.0859 49.2682 18.7263 48.8585C18.3675 48.429 18.1953 48.006 18.2099 47.5896C18.2216 47.2524 18.3257 46.9483 18.5221 46.6771C18.7185 46.406 18.8925 46.1837 19.0439 46.0103L20.213 44.6513L20.3997 44.6578C20.5469 45.199 20.864 45.637 21.3508 45.9717C21.8583 46.3072 22.3697 46.5335 22.8848 46.6508L25.0632 44.0462L25.2499 44.0528C25.3979 44.5742 25.6952 44.9817 26.1419 45.2753C26.5886 45.5689 27.0695 45.7743 27.5847 45.8916C27.9346 45.9832 28.105 46.158 28.096 46.4158C28.0905 46.5744 28.0116 46.7504 27.8595 46.9436L26.262 48.9728C26.067 49.2042 25.845 49.3156 25.5961 49.3069C25.4508 49.3019 25.2652 49.2656 25.0391 49.1981C24.5474 49.0022 24.1194 48.7689 23.755 48.498C23.3913 48.2073 23.1206 47.9298 22.9429 47.6655L21.4429 49.5789C21.2479 49.8103 21.0259 49.9217 20.7769 49.913Z" fill="#A39771"/>
<path d="M37.5105 49.4039C37.4488 49.4017 37.3794 49.3993 37.3024 49.3966C37.2259 49.3772 37.1494 49.3578 37.0729 49.3384C36.4164 49.1313 35.9337 48.813 35.6245 48.3836C35.3154 47.9543 35.1673 47.5556 35.1801 47.1877C35.1918 46.8532 35.2791 46.5633 35.442 46.3178C35.6049 46.0724 35.751 45.8682 35.8801 45.7052L36.8497 44.4582L36.9653 44.4623C37.1956 44.9391 37.4754 45.3256 37.8046 45.6218C38.1492 45.9184 38.5893 46.1347 39.1247 46.2706C39.4313 46.3316 39.5808 46.4707 39.5732 46.6881C39.5685 46.8219 39.4933 46.9867 39.3475 47.1825L38.0537 49.0963C37.9565 49.2269 37.8685 49.3159 37.7897 49.3634C37.7269 49.3947 37.6338 49.4082 37.5105 49.4039Z" fill="#A39771"/>
<path d="M49.3171 26.0241C53.6033 67.7422 14.1791 61.1694 14.8754 41.23L14.2086 36.831C2.4783 59.783 57.9648 83.0975 52.0998 16.8231L49.3171 26.0241Z" fill="#F2F1DF"/>
<path d="M30.0525 42.5804L29.8776 42.3679C30.1039 41.9784 30.3042 41.6798 30.4786 41.4719C30.6687 41.2492 30.9796 41.0461 31.4115 40.8625L35.831 38.9535L36.0059 39.1659L35.7143 39.683C35.5037 40.0578 35.3042 40.3336 35.1157 40.5104C34.9277 40.672 34.6566 40.823 34.3022 40.9635L30.0525 42.5804Z" fill="#A39771"/>
</svg>
