<svg width="564" height="564" viewBox="0 0 564 564" fill="none" xmlns="http://www.w3.org/2000/svg">
<path d="M309.509 132.29C310.009 131.917 310.043 131.51 309.609 131.07C292.219 113.29 267.629 104.62 243.409 108.75C206.379 115.07 180.789 146.47 181.009 183.89C181.016 185.063 180.459 185.83 179.339 186.19C179.119 186.257 178.899 186.237 178.679 186.13C177.826 185.703 177.389 185.013 177.369 184.06C176.379 139.18 212.829 103.17 257.649 104.18C278.779 104.66 298.279 113.73 312.829 129.1C312.936 129.213 313.081 129.283 313.236 129.296C313.391 129.309 313.545 129.264 313.669 129.17L317.889 125.92C317.948 125.874 318.017 125.844 318.091 125.835C318.165 125.825 318.24 125.835 318.309 125.865C318.378 125.894 318.439 125.942 318.484 126.002C318.53 126.063 318.559 126.135 318.569 126.21L320.369 141.51C320.379 141.586 320.369 141.663 320.34 141.733C320.31 141.803 320.262 141.865 320.201 141.911C320.14 141.956 320.068 141.985 319.992 141.994C319.916 142.002 319.839 141.991 319.769 141.96L305.759 136.01C305.678 135.973 305.607 135.916 305.553 135.844C305.5 135.772 305.467 135.687 305.457 135.599C305.447 135.511 305.46 135.422 305.496 135.341C305.531 135.261 305.588 135.191 305.659 135.14L309.509 132.29Z" fill="#2C483D"/>
<path d="M308.51 181.76C308.376 181.82 308.262 181.917 308.182 182.04C308.102 182.162 308.06 182.305 308.06 182.45C308.053 186.217 307.613 189.85 306.74 193.35C306.674 193.611 306.683 193.885 306.766 194.141C306.849 194.398 307.003 194.626 307.21 194.8L315.12 201.31C315.298 201.456 315.421 201.657 315.472 201.883C315.522 202.11 315.497 202.347 315.4 202.56L310.35 213.55C310.212 213.845 309.98 214.087 309.691 214.237C309.402 214.387 309.071 214.437 308.75 214.38L298.63 212.6C298.465 212.57 298.294 212.587 298.137 212.649C297.98 212.711 297.843 212.815 297.74 212.95C295.593 215.743 293.123 218.427 290.33 221C290.131 221.184 289.987 221.418 289.913 221.677C289.839 221.937 289.838 222.211 289.91 222.47L292.67 232.29C292.733 232.513 292.719 232.751 292.632 232.965C292.545 233.178 292.39 233.356 292.19 233.47L281.46 239.75C281.215 239.893 280.929 239.95 280.646 239.912C280.364 239.874 280.101 239.743 279.9 239.54L272.83 232.38C272.623 232.17 272.361 232.022 272.074 231.953C271.788 231.884 271.489 231.897 271.21 231.99C267.897 233.097 264.493 233.817 261 234.15C260.758 234.174 260.529 234.266 260.34 234.415C260.15 234.564 260.008 234.764 259.93 234.99L256.59 244.64C256.489 244.929 256.295 245.177 256.038 245.343C255.781 245.51 255.475 245.586 255.17 245.56L243.02 244.47C242.77 244.447 242.535 244.343 242.351 244.173C242.166 244.003 242.043 243.777 242 243.53L240.29 233.27C240.242 232.985 240.116 232.719 239.926 232.504C239.737 232.288 239.493 232.131 239.22 232.05C235.993 231.097 232.837 229.76 229.75 228.04C229.496 227.899 229.208 227.834 228.919 227.852C228.63 227.87 228.353 227.97 228.12 228.14L219.78 234.21C219.572 234.362 219.319 234.44 219.061 234.431C218.804 234.422 218.557 234.326 218.36 234.16L208.54 225.96C208.414 225.858 208.327 225.715 208.292 225.555C208.258 225.396 208.278 225.228 208.35 225.08L213 215.27C213.12 215.022 213.168 214.745 213.138 214.471C213.107 214.197 213.001 213.937 212.83 213.72C210.823 211.153 209.087 208.38 207.62 205.4C207.473 205.103 207.246 204.854 206.965 204.68C206.684 204.507 206.36 204.417 206.03 204.42L195.8 204.53C195.476 204.532 195.161 204.428 194.903 204.232C194.646 204.037 194.462 203.761 194.38 203.45L191.29 191.8C191.213 191.501 191.238 191.186 191.359 190.904C191.48 190.621 191.692 190.388 191.96 190.24L201.35 185.11C201.521 185.017 201.661 184.877 201.755 184.707C201.849 184.537 201.892 184.344 201.88 184.15C201.693 180.71 201.863 177.28 202.39 173.86C202.435 173.56 202.394 173.253 202.272 172.976C202.149 172.698 201.951 172.46 201.7 172.29L192.89 166.36C192.671 166.214 192.507 165.999 192.425 165.748C192.344 165.498 192.349 165.227 192.44 164.98L196.65 153.29C196.736 153.05 196.9 152.846 197.116 152.71C197.331 152.574 197.586 152.514 197.84 152.54L208.64 153.69C209.04 153.73 209.36 153.593 209.6 153.28L216.45 144.41C216.505 144.343 216.541 144.262 216.555 144.176C216.569 144.09 216.561 144.002 216.53 143.92L212.53 133.52C212.317 132.967 212.453 132.52 212.94 132.18L223.48 124.81C223.609 124.719 223.764 124.674 223.922 124.681C224.079 124.688 224.23 124.748 224.35 124.85L232.69 132.06C233.07 132.387 233.5 132.473 233.98 132.32L243.84 129.11C244.115 129.022 244.363 128.864 244.561 128.652C244.759 128.441 244.899 128.182 244.97 127.9L247.5 117.7C247.558 117.468 247.692 117.263 247.881 117.116C248.069 116.969 248.301 116.89 248.54 116.89H260.78C261.117 116.891 261.443 117.004 261.708 117.21C261.972 117.417 262.16 117.705 262.24 118.03L264.84 128.49C264.888 128.687 264.991 128.865 265.139 129.004C265.286 129.142 265.471 129.235 265.67 129.27C272.39 130.53 278.3 133.05 284.04 136.63C284.208 136.736 284.402 136.793 284.6 136.794C284.798 136.796 284.992 136.743 285.16 136.64L294.53 131.06C294.689 130.963 294.876 130.922 295.061 130.943C295.246 130.965 295.418 131.049 295.55 131.18L304.66 140.28C304.812 140.431 304.909 140.627 304.936 140.839C304.963 141.051 304.919 141.266 304.81 141.45L299.29 150.93C299.203 151.077 299.16 151.246 299.165 151.416C299.171 151.586 299.224 151.751 299.32 151.89C301.353 154.843 303.043 158.027 304.39 161.44C304.563 161.873 304.88 162.11 305.34 162.15L315.44 162.94C315.809 162.972 316.156 163.125 316.427 163.375C316.699 163.625 316.879 163.957 316.94 164.32L318.86 175.84C318.917 176.189 318.857 176.548 318.689 176.861C318.521 177.174 318.254 177.423 317.93 177.57L308.51 181.76ZM315.81 165.18C315.762 164.911 315.624 164.666 315.42 164.483C315.215 164.3 314.955 164.19 314.68 164.17L304.78 163.42C304.501 163.399 304.233 163.3 304.007 163.134C303.781 162.967 303.605 162.741 303.5 162.48C302.127 159.107 300.33 155.753 298.11 152.42C297.901 152.11 297.786 151.746 297.777 151.372C297.768 150.999 297.866 150.63 298.06 150.31L303.22 141.76C303.342 141.554 303.392 141.313 303.361 141.076C303.331 140.838 303.221 140.618 303.05 140.45L295.38 132.91C295.24 132.776 295.06 132.691 294.868 132.67C294.677 132.648 294.484 132.69 294.32 132.79L285.89 137.93C285.487 138.175 285.023 138.3 284.551 138.289C284.08 138.278 283.621 138.133 283.23 137.87C277.743 134.203 271.61 131.727 264.83 130.44C264.585 130.392 264.359 130.276 264.179 130.104C263.998 129.932 263.87 129.712 263.81 129.47L261.24 119C261.184 118.776 261.054 118.576 260.87 118.435C260.687 118.293 260.462 118.218 260.23 118.22L249.15 118.35C249.028 118.349 248.91 118.39 248.814 118.467C248.718 118.543 248.649 118.65 248.62 118.77L246.11 129.13C246.023 129.487 245.835 129.811 245.57 130.066C245.304 130.321 244.971 130.496 244.61 130.57C240.943 131.323 237.503 132.433 234.29 133.9C233.974 134.043 233.623 134.092 233.281 134.04C232.938 133.989 232.618 133.839 232.36 133.61L224.39 126.61C224.24 126.476 224.048 126.396 223.847 126.383C223.646 126.37 223.446 126.426 223.28 126.54L214.23 132.86C214.108 132.945 214.017 133.07 213.974 133.215C213.931 133.36 213.936 133.516 213.99 133.66L217.91 143.72C218.036 144.039 218.068 144.388 218.002 144.724C217.937 145.061 217.776 145.372 217.54 145.62C215.047 148.233 212.833 151.093 210.9 154.2C210.709 154.506 210.435 154.751 210.109 154.909C209.784 155.066 209.42 155.129 209.06 155.09L198.53 153.96C198.355 153.943 198.179 153.985 198.031 154.079C197.882 154.173 197.769 154.315 197.71 154.48L194.06 164.61C193.969 164.871 193.966 165.154 194.053 165.415C194.14 165.675 194.312 165.899 194.54 166.05L202.94 171.64C203.243 171.841 203.483 172.123 203.633 172.453C203.783 172.784 203.838 173.15 203.79 173.51C203.317 177.157 203.13 180.823 203.23 184.51C203.257 185.203 202.967 185.72 202.36 186.06L193.49 191.04C193.238 191.18 193.04 191.4 192.928 191.666C192.815 191.933 192.795 192.23 192.87 192.51L195.45 202.45C195.603 203.037 195.987 203.327 196.6 203.32L206.77 203.12C207.139 203.111 207.503 203.209 207.818 203.405C208.134 203.6 208.388 203.883 208.55 204.22C210.163 207.567 212.137 210.717 214.47 213.67C214.639 213.887 214.744 214.146 214.774 214.417C214.804 214.689 214.757 214.964 214.64 215.21L210.11 224.68C210.009 224.889 209.982 225.126 210.033 225.354C210.083 225.582 210.209 225.789 210.39 225.94L218.41 232.67C218.61 232.838 218.861 232.934 219.121 232.943C219.382 232.952 219.639 232.874 219.85 232.72L227.87 226.98C228.49 226.533 229.14 226.487 229.82 226.84C232.913 228.453 236.327 229.85 240.06 231.03C240.436 231.15 240.77 231.371 241.026 231.67C241.283 231.969 241.45 232.332 241.51 232.72L242.92 241.68C242.986 242.11 243.194 242.506 243.511 242.803C243.829 243.1 244.237 243.283 244.67 243.32L254.57 244.22C254.827 244.244 255.085 244.181 255.302 244.041C255.52 243.902 255.684 243.694 255.77 243.45L259.22 233.89C259.4 233.377 259.76 233.093 260.3 233.04C264.167 232.653 267.917 231.85 271.55 230.63C271.907 230.511 272.289 230.494 272.654 230.582C273.019 230.671 273.35 230.861 273.61 231.13L280.41 238.14C280.554 238.289 280.742 238.386 280.946 238.417C281.151 238.447 281.359 238.41 281.54 238.31L290.97 233.02C291.186 232.901 291.355 232.712 291.449 232.483C291.544 232.254 291.558 231.999 291.49 231.76L288.75 222.36C288.654 222.029 288.656 221.678 288.755 221.346C288.855 221.015 289.047 220.718 289.31 220.49C292.083 218.083 294.62 215.307 296.92 212.16C297.367 211.547 297.96 211.31 298.7 211.45L308.76 213.31C309.093 213.377 309.333 213.253 309.48 212.94L314.19 202.78C314.281 202.583 314.304 202.361 314.255 202.149C314.206 201.937 314.088 201.748 313.92 201.61L306.22 195.35C305.958 195.135 305.763 194.849 305.658 194.527C305.553 194.204 305.544 193.858 305.63 193.53C306.61 189.903 307.077 186.107 307.03 182.14C307.027 181.894 307.096 181.652 307.229 181.444C307.362 181.236 307.554 181.072 307.78 180.97L317.06 176.78C317.308 176.668 317.512 176.477 317.639 176.236C317.766 175.995 317.809 175.718 317.76 175.45L315.81 165.18Z" fill="#2C483D"/>
<path d="M315.811 165.18L317.761 175.45C317.809 175.718 317.767 175.994 317.64 176.235C317.513 176.476 317.309 176.668 317.061 176.78L307.781 180.97C307.555 181.071 307.363 181.236 307.23 181.444C307.096 181.652 307.027 181.894 307.031 182.14C307.077 186.106 306.611 189.903 305.631 193.53C305.544 193.858 305.554 194.204 305.659 194.526C305.763 194.849 305.958 195.135 306.221 195.35L313.921 201.61C314.089 201.747 314.207 201.937 314.256 202.149C314.305 202.36 314.282 202.582 314.191 202.78L309.481 212.94C309.334 213.253 309.094 213.376 308.761 213.31L298.701 211.45C297.961 211.31 297.367 211.546 296.921 212.16C294.621 215.306 292.084 218.083 289.311 220.49C289.048 220.717 288.855 221.014 288.756 221.346C288.657 221.677 288.655 222.029 288.751 222.36L291.491 231.76C291.559 231.999 291.544 232.254 291.45 232.483C291.355 232.711 291.186 232.901 290.971 233.02L281.541 238.31C281.36 238.41 281.151 238.447 280.947 238.416C280.743 238.385 280.554 238.288 280.411 238.14L273.611 231.13C273.351 230.861 273.019 230.671 272.655 230.582C272.29 230.494 271.907 230.51 271.551 230.63C267.917 231.85 264.167 232.653 260.301 233.04C259.761 233.093 259.401 233.376 259.221 233.89L255.771 243.45C255.685 243.693 255.52 243.901 255.303 244.041C255.086 244.18 254.828 244.243 254.571 244.22L244.671 243.32C244.237 243.282 243.829 243.1 243.512 242.803C243.195 242.505 242.986 242.11 242.921 241.68L241.511 232.72C241.451 232.332 241.283 231.968 241.027 231.67C240.771 231.371 240.436 231.15 240.061 231.03C236.327 229.85 232.914 228.453 229.821 226.84C229.141 226.486 228.491 226.533 227.871 226.98L219.851 232.72C219.64 232.873 219.383 232.952 219.122 232.943C218.861 232.934 218.611 232.838 218.411 232.67L210.391 225.94C210.21 225.788 210.084 225.582 210.033 225.354C209.983 225.126 210.01 224.888 210.111 224.68L214.641 215.21C214.758 214.964 214.804 214.689 214.774 214.417C214.744 214.145 214.639 213.886 214.471 213.67C212.137 210.716 210.164 207.566 208.551 204.22C208.389 203.883 208.135 203.599 207.819 203.404C207.503 203.209 207.139 203.11 206.771 203.12L196.601 203.32C195.987 203.326 195.604 203.036 195.451 202.45L192.871 192.51C192.796 192.229 192.816 191.932 192.928 191.666C193.041 191.4 193.239 191.179 193.491 191.04L202.361 186.06C202.967 185.72 203.257 185.203 203.231 184.51C203.131 180.823 203.317 177.156 203.791 173.51C203.838 173.15 203.784 172.784 203.633 172.453C203.483 172.122 203.243 171.841 202.941 171.64L194.541 166.05C194.312 165.899 194.141 165.675 194.054 165.414C193.967 165.153 193.969 164.87 194.061 164.61L197.711 154.48C197.77 154.314 197.883 154.173 198.031 154.079C198.18 153.985 198.356 153.943 198.531 153.96L209.061 155.09C209.421 155.129 209.785 155.066 210.11 154.908C210.435 154.751 210.709 154.505 210.901 154.2C212.834 151.093 215.047 148.233 217.541 145.62C217.777 145.371 217.937 145.06 218.003 144.724C218.068 144.387 218.036 144.039 217.911 143.72L213.991 133.66C213.937 133.516 213.931 133.359 213.975 133.215C214.018 133.07 214.108 132.945 214.231 132.86L223.281 126.54C223.447 126.425 223.647 126.37 223.848 126.383C224.049 126.395 224.24 126.475 224.391 126.61L232.361 133.61C232.619 133.839 232.939 133.988 233.281 134.04C233.624 134.091 233.974 134.043 234.291 133.9C237.504 132.433 240.944 131.323 244.611 130.57C244.972 130.496 245.305 130.321 245.57 130.066C245.836 129.811 246.023 129.486 246.111 129.13L248.621 118.77C248.65 118.649 248.718 118.543 248.814 118.466C248.911 118.39 249.029 118.349 249.151 118.35L260.231 118.22C260.462 118.217 260.688 118.293 260.871 118.435C261.054 118.576 261.184 118.775 261.241 119L263.811 129.47C263.871 129.712 263.999 129.932 264.179 130.103C264.36 130.275 264.586 130.392 264.831 130.44C271.611 131.726 277.744 134.203 283.231 137.87C283.622 138.133 284.081 138.278 284.552 138.289C285.023 138.299 285.488 138.175 285.891 137.93L294.321 132.79C294.485 132.69 294.677 132.648 294.869 132.669C295.061 132.691 295.241 132.776 295.381 132.91L303.051 140.45C303.222 140.618 303.331 140.838 303.362 141.075C303.393 141.313 303.343 141.554 303.221 141.76L298.061 150.31C297.867 150.63 297.769 150.998 297.777 151.372C297.786 151.746 297.902 152.109 298.111 152.42C300.331 155.753 302.127 159.106 303.501 162.48C303.606 162.741 303.782 162.967 304.008 163.133C304.234 163.299 304.502 163.399 304.781 163.42L314.681 164.17C314.955 164.19 315.216 164.3 315.42 164.482C315.625 164.665 315.762 164.911 315.811 165.18ZM288.561 181.39C288.561 172.502 285.03 163.979 278.746 157.695C272.461 151.41 263.938 147.88 255.051 147.88C246.163 147.88 237.64 151.41 231.356 157.695C225.071 163.979 221.541 172.502 221.541 181.39C221.541 190.277 225.071 198.801 231.356 205.085C237.64 211.369 246.163 214.9 255.051 214.9C263.938 214.9 272.461 211.369 278.746 205.085C285.03 198.801 288.561 190.277 288.561 181.39Z" fill="#43695A"/>
<path d="M288.559 181.39C288.559 190.277 285.029 198.801 278.744 205.085C272.46 211.369 263.936 214.9 255.049 214.9C246.162 214.9 237.638 211.369 231.354 205.085C225.07 198.801 221.539 190.277 221.539 181.39C221.539 172.502 225.07 163.979 231.354 157.695C237.638 151.41 246.162 147.88 255.049 147.88C263.936 147.88 272.46 151.41 278.744 157.695C285.029 163.979 288.559 172.502 288.559 181.39ZM287.459 181.41C287.459 172.825 284.049 164.591 277.978 158.521C271.908 152.45 263.674 149.04 255.089 149.04C246.504 149.04 238.271 152.45 232.2 158.521C226.129 164.591 222.719 172.825 222.719 181.41C222.719 189.995 226.129 198.228 232.2 204.299C238.271 210.369 246.504 213.78 255.089 213.78C263.674 213.78 271.908 210.369 277.978 204.299C284.049 198.228 287.459 189.995 287.459 181.41Z" fill="#2C483D"/>
<path d="M255.091 213.78C272.968 213.78 287.461 199.288 287.461 181.41C287.461 163.533 272.968 149.04 255.091 149.04C237.213 149.04 222.721 163.533 222.721 181.41C222.721 199.288 237.213 213.78 255.091 213.78Z" fill="#F2F1DF"/>
<path d="M309.43 242.73C309.097 240.07 309.26 237.333 309.92 234.52C310.027 234.087 309.88 233.773 309.48 233.58L301.74 229.85C301.468 229.722 301.254 229.496 301.14 229.217C301.025 228.938 301.018 228.625 301.12 228.34L305.41 216.37C305.499 216.121 305.676 215.913 305.906 215.786C306.136 215.659 306.405 215.621 306.66 215.68L315.01 217.61C315.397 217.697 315.713 217.583 315.96 217.27L321.27 210.35C321.362 210.228 321.417 210.083 321.427 209.932C321.438 209.781 321.404 209.631 321.33 209.5L317.26 202.22C317.105 201.947 317.058 201.626 317.128 201.321C317.198 201.015 317.381 200.747 317.64 200.57L328.48 193.02C328.579 192.949 328.702 192.917 328.823 192.93C328.945 192.942 329.057 193 329.14 193.09L334.96 199.46C335.138 199.659 335.37 199.803 335.627 199.874C335.885 199.945 336.156 199.94 336.41 199.86L344.11 197.44C344.63 197.273 344.92 196.92 344.98 196.38L345.85 188.21C345.882 187.907 346.026 187.626 346.253 187.423C346.48 187.22 346.775 187.108 347.08 187.11L360.32 187.17C360.481 187.174 360.636 187.235 360.755 187.344C360.874 187.452 360.951 187.6 360.97 187.76L361.9 196.34C361.932 196.645 362.061 196.932 362.268 197.158C362.475 197.385 362.749 197.54 363.05 197.6C368.33 198.693 373.177 200.677 377.59 203.55C377.732 203.644 377.902 203.689 378.074 203.68C378.247 203.671 378.413 203.608 378.55 203.5L385.47 197.99C385.606 197.877 385.779 197.82 385.957 197.829C386.134 197.839 386.303 197.914 386.43 198.04L395.92 207.52C396.077 207.676 396.172 207.885 396.185 208.106C396.198 208.328 396.128 208.546 395.99 208.72L390.65 215.43C390.37 215.777 390.36 216.13 390.62 216.49C392.2 218.743 393.49 221.123 394.49 223.63C394.607 223.918 394.811 224.162 395.073 224.327C395.335 224.492 395.642 224.57 395.95 224.55L403.69 224C404.37 223.953 404.77 224.267 404.89 224.94L407.21 237.99C407.244 238.186 407.205 238.388 407.102 238.558C406.999 238.727 406.838 238.852 406.65 238.91L398.57 241.33C398.38 241.388 398.214 241.505 398.094 241.662C397.973 241.82 397.906 242.012 397.9 242.21C397.847 244.97 397.523 247.753 396.93 250.56C396.877 250.812 396.904 251.074 397.006 251.31C397.108 251.546 397.281 251.745 397.5 251.88L404.37 256.09C404.547 256.196 404.678 256.365 404.737 256.563C404.796 256.761 404.779 256.974 404.69 257.16L399.01 269.16C398.907 269.375 398.73 269.546 398.511 269.639C398.292 269.733 398.046 269.744 397.82 269.67L390.2 267.14C390.042 267.086 389.872 267.079 389.711 267.12C389.549 267.161 389.403 267.248 389.29 267.37L383.29 273.96C383.153 274.109 383.062 274.295 383.028 274.495C382.995 274.696 383.02 274.902 383.1 275.09L386.29 282.5C386.368 282.675 386.378 282.873 386.319 283.054C386.26 283.236 386.135 283.387 385.97 283.48L374.29 290.23C374.12 290.329 373.919 290.362 373.727 290.323C373.535 290.284 373.365 290.176 373.25 290.02L368.26 283.3C368 282.947 367.66 282.837 367.24 282.97C364.36 283.857 361.5 284.477 358.66 284.83C358.267 284.877 358.033 285.093 357.96 285.48L356.38 293.39C356.317 293.696 356.145 293.968 355.896 294.154C355.647 294.34 355.338 294.428 355.03 294.4L342.02 293.3C341.821 293.283 341.635 293.194 341.499 293.05C341.362 292.906 341.284 292.717 341.28 292.52L340.97 284.03C340.964 283.843 340.9 283.663 340.787 283.514C340.674 283.366 340.518 283.256 340.34 283.2C337.52 282.307 334.93 281.193 332.57 279.86C332.39 279.761 332.184 279.722 331.98 279.749C331.777 279.776 331.588 279.867 331.44 280.01L325.41 285.76C324.983 286.167 324.543 286.183 324.09 285.81L314.08 277.46C313.56 277.02 313.487 276.517 313.86 275.95L318.46 268.92C318.713 268.533 318.693 268.16 318.4 267.8C316.673 265.66 315.213 263.337 314.02 260.83C313.807 260.377 313.453 260.19 312.96 260.27L304.46 261.56C304.265 261.587 304.067 261.543 303.904 261.436C303.74 261.329 303.621 261.167 303.57 260.98L300.07 247.97C300.02 247.784 300.04 247.587 300.127 247.415C300.214 247.243 300.361 247.11 300.54 247.04L308.72 243.9C308.952 243.81 309.148 243.647 309.277 243.435C309.405 243.223 309.459 242.975 309.43 242.73ZM397.22 268.19C397.405 268.256 397.608 268.25 397.789 268.174C397.97 268.098 398.117 267.958 398.2 267.78L402.93 257.8C403.037 257.575 403.057 257.318 402.985 257.079C402.913 256.841 402.754 256.638 402.54 256.51L396.2 252.64C395.897 252.457 395.661 252.182 395.524 251.855C395.388 251.528 395.358 251.166 395.44 250.82C396.16 247.793 396.533 244.767 396.56 241.74C396.566 241.374 396.688 241.021 396.907 240.731C397.127 240.441 397.433 240.23 397.78 240.13L404.87 238.06C405.463 237.887 405.71 237.493 405.61 236.88L403.86 226.09C403.828 225.894 403.724 225.716 403.566 225.592C403.409 225.468 403.211 225.407 403.01 225.42L395.15 225.92C394.829 225.94 394.511 225.861 394.24 225.692C393.969 225.523 393.759 225.274 393.64 224.98C392.473 222.107 391.02 219.35 389.28 216.71C388.873 216.097 388.9 215.5 389.36 214.92L394.48 208.55C394.557 208.454 394.595 208.333 394.587 208.21C394.58 208.086 394.528 207.969 394.44 207.88L386.34 199.92C385.953 199.547 385.55 199.527 385.13 199.86L378.93 204.85C378.69 205.041 378.396 205.149 378.09 205.16C377.784 205.171 377.482 205.083 377.23 204.91C372.45 201.623 367.347 199.5 361.92 198.54C361.611 198.485 361.328 198.332 361.113 198.103C360.899 197.874 360.764 197.582 360.73 197.27L359.79 189.19C359.765 188.979 359.664 188.784 359.506 188.642C359.348 188.5 359.143 188.421 358.93 188.42H348.03C347.741 188.421 347.463 188.529 347.249 188.722C347.034 188.916 346.9 189.183 346.87 189.47L346.11 196.88C346.071 197.246 345.928 197.592 345.697 197.876C345.466 198.161 345.158 198.37 344.81 198.48L336.2 201.19C335.899 201.285 335.577 201.292 335.274 201.208C334.97 201.125 334.698 200.955 334.49 200.72L329.08 194.67C328.957 194.53 328.786 194.44 328.6 194.418C328.414 194.396 328.225 194.443 328.07 194.55L318.79 201.04C318.595 201.175 318.458 201.377 318.404 201.606C318.35 201.836 318.385 202.076 318.5 202.28L322.37 209.18C322.515 209.441 322.581 209.739 322.56 210.038C322.539 210.336 322.431 210.622 322.25 210.86L316.65 218.12C316.447 218.382 316.173 218.579 315.861 218.689C315.549 218.799 315.212 218.817 314.89 218.74L307.49 216.97C306.757 216.797 306.263 217.063 306.01 217.77L302.24 228.21C302.183 228.378 302.189 228.561 302.257 228.725C302.325 228.888 302.451 229.022 302.61 229.1L310.25 232.79C310.502 232.91 310.707 233.111 310.834 233.363C310.96 233.614 311.001 233.901 310.95 234.18C310.37 237.127 310.187 240.153 310.4 243.26C310.42 243.571 310.34 243.88 310.171 244.143C310.001 244.405 309.752 244.607 309.46 244.72L301.52 247.74C301.43 247.776 301.356 247.843 301.311 247.93C301.267 248.016 301.256 248.116 301.28 248.21L304.2 259C304.42 259.793 304.937 260.13 305.75 260.01L313.56 258.83C313.811 258.792 314.068 258.836 314.291 258.955C314.515 259.074 314.693 259.262 314.8 259.49C316.053 262.163 317.66 264.713 319.62 267.14C319.866 267.445 320.009 267.821 320.027 268.215C320.045 268.608 319.937 268.999 319.72 269.33L315.35 276C315.11 276.353 315.153 276.667 315.48 276.94L324.25 284.33C324.36 284.423 324.501 284.471 324.646 284.466C324.79 284.46 324.927 284.401 325.03 284.3L331.01 278.58C331.202 278.396 331.448 278.279 331.712 278.245C331.976 278.211 332.245 278.262 332.48 278.39C335.227 279.87 338.177 281.093 341.33 282.06C341.581 282.139 341.802 282.293 341.961 282.503C342.121 282.713 342.211 282.967 342.22 283.23L342.49 291.54C342.494 291.691 342.554 291.836 342.658 291.945C342.761 292.054 342.901 292.12 343.05 292.13L354.54 293.05C354.967 293.09 355.22 292.9 355.3 292.48L356.87 284.5C356.91 284.307 357.01 284.132 357.156 283.999C357.301 283.867 357.484 283.783 357.68 283.76C361.127 283.373 364.403 282.663 367.51 281.63C367.769 281.543 368.048 281.541 368.307 281.624C368.566 281.707 368.792 281.87 368.95 282.09L373.55 288.49C373.657 288.638 373.816 288.74 373.994 288.777C374.171 288.814 374.356 288.783 374.51 288.69L384.38 282.88C384.727 282.673 384.82 282.387 384.66 282.02L381.4 274.59C381.301 274.365 381.278 274.114 381.334 273.876C381.39 273.638 381.522 273.425 381.71 273.27C384.217 271.19 386.467 268.777 388.46 266.03C388.616 265.814 388.837 265.654 389.092 265.575C389.346 265.495 389.619 265.501 389.87 265.59L397.22 268.19Z" fill="#2C483D"/>
<path d="M397.22 268.19L389.87 265.59C389.619 265.501 389.346 265.495 389.091 265.575C388.837 265.654 388.616 265.814 388.46 266.03C386.466 268.777 384.216 271.19 381.71 273.27C381.522 273.425 381.39 273.638 381.334 273.876C381.278 274.114 381.301 274.365 381.4 274.59L384.66 282.02C384.82 282.387 384.727 282.673 384.38 282.88L374.51 288.69C374.356 288.783 374.171 288.814 373.993 288.777C373.816 288.74 373.657 288.638 373.55 288.49L368.95 282.09C368.791 281.87 368.566 281.707 368.307 281.624C368.048 281.541 367.769 281.543 367.51 281.63C364.403 282.663 361.127 283.373 357.68 283.76C357.484 283.783 357.301 283.867 357.156 283.999C357.01 284.132 356.91 284.307 356.87 284.5L355.3 292.48C355.22 292.9 354.967 293.09 354.54 293.05L343.05 292.13C342.901 292.12 342.761 292.054 342.658 291.945C342.554 291.836 342.494 291.691 342.49 291.54L342.22 283.23C342.211 282.967 342.121 282.713 341.961 282.503C341.802 282.293 341.581 282.139 341.33 282.06C338.176 281.093 335.227 279.87 332.48 278.39C332.245 278.262 331.976 278.211 331.712 278.245C331.448 278.279 331.202 278.396 331.01 278.58L325.03 284.3C324.927 284.401 324.79 284.46 324.646 284.466C324.501 284.471 324.36 284.423 324.25 284.33L315.48 276.94C315.153 276.667 315.11 276.353 315.35 276L319.72 269.33C319.937 268.999 320.045 268.608 320.027 268.215C320.009 267.821 319.866 267.445 319.62 267.14C317.66 264.713 316.053 262.163 314.8 259.49C314.693 259.262 314.514 259.074 314.291 258.955C314.068 258.836 313.811 258.792 313.56 258.83L305.75 260.01C304.937 260.13 304.42 259.793 304.2 259L301.28 248.21C301.256 248.116 301.267 248.016 301.311 247.93C301.355 247.843 301.43 247.776 301.52 247.74L309.46 244.72C309.752 244.608 310.001 244.405 310.17 244.143C310.34 243.88 310.42 243.571 310.4 243.26C310.187 240.153 310.37 237.127 310.95 234.18C311.001 233.901 310.96 233.614 310.833 233.363C310.707 233.111 310.502 232.91 310.25 232.79L302.61 229.1C302.451 229.022 302.325 228.888 302.257 228.725C302.189 228.561 302.183 228.378 302.24 228.21L306.01 217.77C306.263 217.063 306.756 216.797 307.49 216.97L314.89 218.74C315.212 218.817 315.549 218.799 315.861 218.689C316.173 218.579 316.447 218.382 316.65 218.12L322.25 210.86C322.431 210.622 322.539 210.336 322.56 210.038C322.581 209.739 322.515 209.441 322.37 209.18L318.5 202.28C318.385 202.076 318.35 201.836 318.404 201.606C318.458 201.377 318.595 201.175 318.79 201.04L328.07 194.55C328.225 194.443 328.414 194.396 328.6 194.418C328.786 194.44 328.957 194.53 329.08 194.67L334.49 200.72C334.698 200.955 334.97 201.125 335.274 201.208C335.577 201.292 335.899 201.285 336.2 201.19L344.81 198.48C345.157 198.37 345.466 198.161 345.697 197.877C345.928 197.592 346.071 197.246 346.11 196.88L346.87 189.47C346.899 189.183 347.034 188.916 347.249 188.723C347.463 188.529 347.741 188.421 348.03 188.42H358.93C359.143 188.421 359.347 188.5 359.506 188.642C359.664 188.784 359.765 188.979 359.79 189.19L360.73 197.27C360.764 197.582 360.899 197.874 361.113 198.103C361.328 198.332 361.611 198.486 361.92 198.54C367.347 199.5 372.45 201.623 377.23 204.91C377.482 205.083 377.784 205.171 378.09 205.16C378.396 205.149 378.69 205.041 378.93 204.85L385.13 199.86C385.55 199.527 385.953 199.547 386.34 199.92L394.44 207.88C394.528 207.969 394.58 208.086 394.587 208.21C394.595 208.333 394.557 208.454 394.48 208.55L389.36 214.92C388.9 215.5 388.873 216.097 389.28 216.71C391.02 219.35 392.473 222.107 393.64 224.98C393.759 225.274 393.969 225.523 394.24 225.692C394.511 225.861 394.829 225.94 395.15 225.92L403.01 225.42C403.211 225.407 403.409 225.468 403.566 225.592C403.723 225.716 403.828 225.894 403.86 226.09L405.61 236.88C405.71 237.493 405.463 237.887 404.87 238.06L397.78 240.13C397.433 240.231 397.127 240.441 396.907 240.731C396.688 241.021 396.566 241.374 396.56 241.74C396.533 244.767 396.16 247.793 395.44 250.82C395.358 251.166 395.388 251.528 395.524 251.855C395.661 252.182 395.897 252.457 396.2 252.64L402.54 256.51C402.754 256.638 402.913 256.841 402.985 257.079C403.057 257.318 403.037 257.575 402.93 257.8L398.2 267.78C398.117 267.958 397.97 268.098 397.789 268.174C397.608 268.25 397.405 268.256 397.22 268.19ZM381.68 240.86C381.68 233.431 378.729 226.307 373.476 221.054C368.223 215.801 361.099 212.85 353.67 212.85C346.241 212.85 339.117 215.801 333.864 221.054C328.611 226.307 325.66 233.431 325.66 240.86C325.66 248.289 328.611 255.413 333.864 260.666C339.117 265.919 346.241 268.87 353.67 268.87C361.099 268.87 368.223 265.919 373.476 260.666C378.729 255.413 381.68 248.289 381.68 240.86Z" fill="#43695A"/>
<path d="M179.646 192.466L179.53 192.494C178.585 192.721 178.002 193.671 178.229 194.616L180.951 205.954C181.178 206.899 182.128 207.481 183.073 207.254L183.19 207.226C184.135 207 184.718 206.049 184.491 205.104L181.769 193.766C181.542 192.821 180.592 192.239 179.646 192.466Z" fill="#2C483D"/>
<path d="M410.279 218.68C410.235 218.563 410.165 218.458 410.075 218.371C409.985 218.284 409.876 218.219 409.758 218.179C409.64 218.138 409.514 218.125 409.39 218.139C409.265 218.153 409.146 218.194 409.039 218.26L405.049 220.7C404.974 220.746 404.888 220.771 404.8 220.773C404.712 220.775 404.625 220.753 404.547 220.711C404.47 220.668 404.406 220.606 404.36 220.53C404.315 220.455 404.291 220.368 404.289 220.28L404.209 204.98C404.209 204.91 404.228 204.84 404.263 204.779C404.297 204.718 404.347 204.667 404.407 204.631C404.467 204.596 404.535 204.577 404.604 204.577C404.673 204.576 404.74 204.595 404.799 204.63L418.399 212.4C418.448 212.429 418.489 212.47 418.517 212.519C418.546 212.569 418.561 212.624 418.561 212.68C418.561 212.736 418.546 212.791 418.517 212.838C418.489 212.886 418.448 212.924 418.399 212.95L413.649 215.66C413.309 215.847 413.213 216.12 413.359 216.48C420.899 235.407 420.273 253.83 411.479 271.75C402.579 289.9 384.679 302.87 365.179 306.38C345.946 309.84 328.229 305.397 312.029 293.05C311.78 292.853 311.584 292.599 311.459 292.31C310.966 291.157 310.969 290.33 311.469 289.83C312.129 289.163 312.853 289.09 313.639 289.61C316.649 291.63 319.429 294.05 322.689 295.81C338.936 304.59 355.599 306.207 372.679 300.66C392.209 294.32 407.749 277.92 412.869 257.72C416.203 244.593 415.339 231.58 410.279 218.68Z" fill="#2C483D"/>
<path d="M381.68 240.86C381.68 248.289 378.729 255.413 373.476 260.666C368.223 265.919 361.099 268.87 353.67 268.87C346.241 268.87 339.117 265.919 333.864 260.666C328.611 255.413 325.66 248.289 325.66 240.86C325.66 233.431 328.611 226.307 333.864 221.054C339.117 215.801 346.241 212.85 353.67 212.85C361.099 212.85 368.223 215.801 373.476 221.054C378.729 226.307 381.68 233.431 381.68 240.86ZM380.32 240.8C380.32 233.692 377.497 226.876 372.471 221.85C367.445 216.824 360.628 214 353.52 214C346.412 214 339.596 216.824 334.57 221.85C329.544 226.876 326.72 233.692 326.72 240.8C326.72 247.908 329.544 254.725 334.57 259.751C339.596 264.777 346.412 267.6 353.52 267.6C360.628 267.6 367.445 264.777 372.471 259.751C377.497 254.725 380.32 247.908 380.32 240.8Z" fill="#2C483D"/>
<path d="M353.521 267.6C368.322 267.6 380.321 255.601 380.321 240.8C380.321 225.999 368.322 214 353.521 214C338.719 214 326.721 225.999 326.721 240.8C326.721 255.601 338.719 267.6 353.521 267.6Z" fill="#F2F1DF"/>
<path d="M316.28 422.54C321.98 431.11 322 438.24 321.69 447.84C321.679 448.146 321.549 448.436 321.327 448.649C321.105 448.862 320.809 448.981 320.5 448.98L255.26 448.97C254.733 448.97 254.646 449.167 255 449.56C257.486 452.3 256.846 454.95 253.08 457.51C252.826 457.684 252.773 457.9 252.92 458.16C253.23 458.71 253.74 459.24 253.95 459.83C254.896 462.55 253.836 464.27 250.77 464.99C243.583 466.677 236.806 466.95 230.44 465.81C228.653 465.49 226.813 465.45 224.92 465.69C205.44 468.144 186.15 467.947 167.05 465.1C160.87 464.18 142 460.72 140.03 453.55C138.42 447.73 151.85 443.62 155.62 442.67C166.526 439.91 178.413 438.424 191.28 438.21C191.329 438.21 191.377 438.197 191.421 438.174C191.464 438.151 191.502 438.118 191.531 438.077C191.56 438.037 191.58 437.99 191.588 437.94C191.597 437.89 191.594 437.839 191.58 437.79C191.08 436.077 190.6 434.257 190.14 432.33C189.773 430.784 189.06 429.157 188 427.45C184.413 422.75 184.236 418.817 187.47 415.65C189.99 413.18 193.37 413.1 196.16 411.08C202.18 406.734 208.07 402.48 213.83 398.32C213.904 398.269 213.987 398.233 214.076 398.215C214.164 398.197 214.255 398.197 214.342 398.216C214.429 398.235 214.512 398.272 214.584 398.324C214.656 398.376 214.716 398.443 214.76 398.52L216.63 401.8C216.816 402.127 217.04 402.154 217.3 401.88L225.61 393.26C225.787 393.078 225.89 392.836 225.897 392.581C225.904 392.325 225.816 392.076 225.65 391.88C218.07 383.12 210.863 374.237 204.03 365.23C199.26 358.95 195.05 351.98 191.07 345.05C189.65 342.59 187.82 339.987 185.58 337.24C179.46 329.74 173.12 321.557 166.56 312.69C162.54 307.264 159.36 301.76 157.02 296.18C155.26 291.97 155.09 287.07 158.59 283.57C160.483 281.684 162.63 279.977 165.03 278.45C171.443 274.377 177.37 270.954 182.81 268.18C183.463 267.847 183.646 267.34 183.36 266.66L180.32 259.53C180.053 258.897 179.593 258.687 178.94 258.9C177.726 259.3 176.663 259.094 175.75 258.28C173.503 256.294 172.133 253.827 171.64 250.88C171.606 250.679 171.525 250.489 171.405 250.324C171.285 250.159 171.128 250.025 170.947 249.931C170.767 249.838 170.567 249.789 170.364 249.787C170.162 249.785 169.961 249.83 169.78 249.92L167.41 251.11C167.324 251.154 167.231 251.179 167.135 251.186C167.039 251.192 166.942 251.179 166.851 251.148C166.76 251.116 166.675 251.066 166.603 251.001C166.531 250.937 166.472 250.858 166.43 250.77C163.69 245.21 161.59 236.89 165.78 231.77C169.79 226.85 176.86 223.53 182.86 221.62C183.16 221.529 183.427 221.355 183.63 221.12L184.89 219.69C185.182 219.361 185.569 219.132 185.998 219.036C186.427 218.939 186.875 218.979 187.28 219.15C188.406 219.63 189.386 220.394 190.22 221.44C192.773 224.66 195.13 227.757 197.29 230.73C197.379 230.85 197.496 230.945 197.63 231.008C197.765 231.071 197.912 231.099 198.06 231.09L205.62 230.66C205.802 230.651 205.984 230.686 206.151 230.763C206.318 230.839 206.465 230.955 206.58 231.1C207.24 231.96 207.136 232.627 206.27 233.1C204.45 234.087 202.553 235.014 200.58 235.88C200.48 235.924 200.392 235.991 200.323 236.075C200.254 236.159 200.206 236.259 200.184 236.365C200.161 236.471 200.164 236.58 200.193 236.684C200.222 236.787 200.276 236.882 200.35 236.96L204.35 241.27C204.487 241.417 204.573 241.605 204.592 241.804C204.612 242.003 204.566 242.202 204.46 242.37C203.66 243.66 203.52 245.16 204.54 246.41C206.233 248.504 207.596 250.787 208.63 253.26C208.76 253.568 208.789 253.909 208.712 254.236C208.634 254.563 208.455 254.859 208.2 255.08C206.613 256.44 204.786 257.547 202.72 258.4C202.309 258.567 201.982 258.886 201.81 259.29L201.64 259.7C201.44 260.174 201.586 260.334 202.08 260.18C206.22 258.947 210.503 258.114 214.93 257.68C215.983 257.58 216.793 257.977 217.36 258.87C224.166 269.59 230.673 279.817 236.88 289.55C237.073 289.857 237.353 290.014 237.72 290.02L244.26 290.11C244.481 290.117 244.704 290.054 244.9 289.93L253.36 284.55C253.686 284.344 253.803 284.054 253.71 283.68C252.963 280.767 252.733 277.77 253.02 274.69C253.17 273.04 254.64 272.14 256.18 272.15C256.375 272.154 256.566 272.093 256.723 271.977C256.88 271.862 256.995 271.698 257.05 271.51L257.3 270.68C257.426 270.267 257.696 269.997 258.11 269.87L259.28 269.52C259.793 269.36 260.01 269.014 259.93 268.48L257.56 252.62C257.433 251.78 257.793 251.33 258.64 251.27L261.24 251.06C262.266 250.98 262.86 251.454 263.02 252.48L265.4 268.24C265.473 268.714 265.75 268.94 266.23 268.92L270.94 268.77C271.229 268.761 271.517 268.809 271.788 268.912C272.058 269.015 272.306 269.17 272.516 269.369C272.726 269.568 272.895 269.807 273.012 270.071C273.13 270.336 273.193 270.621 273.2 270.91C273.27 273.72 274.07 276.17 273.9 279.04C273.726 282.047 273.593 285.084 273.5 288.15C273.492 288.465 273.378 288.767 273.176 289.008C272.974 289.248 272.697 289.411 272.39 289.47C271.823 289.584 271.266 289.724 270.72 289.89C269.513 290.257 269.516 290.614 270.73 290.96C273.56 291.77 276.94 292.03 278.07 295.2C278.216 295.607 278.193 296 278 296.38L276.58 299.18C276.449 299.442 276.394 299.736 276.42 300.03C276.86 304.35 275.326 307.387 271.82 309.14C271.493 309.307 271.356 309.57 271.41 309.93L272.71 318.41C272.763 318.764 272.97 318.94 273.33 318.94C298.01 319 323.3 318.994 349.2 318.92C353.16 318.9 355.9 321.21 355.92 325.37C355.933 327.924 355.966 330.644 356.02 333.53C356.09 337.33 353.96 340.49 350 340.51C325.866 340.61 301.346 340.62 276.44 340.54C276.387 340.54 276.334 340.551 276.286 340.572C276.237 340.594 276.194 340.626 276.159 340.666C276.124 340.705 276.098 340.752 276.082 340.803C276.067 340.854 276.063 340.908 276.07 340.96L286.03 408.97C286.07 409.25 286.233 409.387 286.52 409.38C298.88 409.167 308.8 413.554 316.28 422.54ZM172.74 230.02C172.873 230.14 172.883 230.27 172.77 230.41C169.3 234.65 170.92 238.89 173.49 243.01C173.587 243.164 173.737 243.278 173.912 243.329C174.087 243.381 174.274 243.367 174.44 243.29L184.28 238.76C184.386 238.711 184.481 238.639 184.557 238.549C184.633 238.46 184.689 238.355 184.72 238.242C184.752 238.128 184.758 238.01 184.739 237.894C184.72 237.778 184.676 237.667 184.61 237.57C183.47 235.877 182.616 234.117 182.05 232.29C181.35 230.044 182.346 228.22 185.04 226.82C186.006 226.314 186.136 225.644 185.43 224.81C184.996 224.297 184.716 223.71 184.59 223.05C184.503 222.59 184.24 222.434 183.8 222.58C177.453 224.72 172.423 227.33 168.71 230.41C162.88 235.23 164.44 243.02 167.04 249.15C167.073 249.226 167.12 249.295 167.18 249.352C167.239 249.409 167.309 249.454 167.385 249.484C167.462 249.514 167.543 249.528 167.624 249.526C167.706 249.523 167.786 249.504 167.86 249.47C179.82 243.924 191.966 238.374 204.3 232.82C204.426 232.767 204.516 232.677 204.57 232.55C204.636 232.404 204.483 232.244 204.11 232.07C203.936 231.99 203.756 231.96 203.57 231.98L198.01 232.57C197.737 232.6 197.462 232.557 197.212 232.444C196.962 232.332 196.748 232.154 196.59 231.93C194.476 228.984 192.326 226.104 190.14 223.29C189.293 222.204 188.293 221.237 187.14 220.39C187.02 220.303 186.877 220.252 186.729 220.243C186.58 220.234 186.431 220.268 186.3 220.34C185.906 220.547 185.566 220.837 185.28 221.21C185.08 221.464 185.06 221.734 185.22 222.02L187.36 225.82C187.448 225.974 187.477 226.155 187.44 226.328C187.403 226.502 187.303 226.656 187.16 226.76L183.93 229.11C183.572 229.375 183.304 229.744 183.163 230.166C183.022 230.588 183.013 231.043 183.14 231.47C183.68 233.304 184.536 235.197 185.71 237.15C185.93 237.51 186.236 237.624 186.63 237.49L190.19 236.24C190.263 236.214 190.316 236.234 190.35 236.3L190.56 236.61C190.786 236.964 190.71 237.227 190.33 237.4L167.66 247.92C167.591 247.951 167.514 247.964 167.439 247.957C167.363 247.95 167.291 247.924 167.228 247.881C167.166 247.837 167.116 247.779 167.083 247.71C167.05 247.642 167.035 247.566 167.04 247.49L167.07 247.16C167.09 246.847 167.24 246.624 167.52 246.49L172.32 244.21C172.646 244.05 172.71 243.82 172.51 243.52C169.77 239.38 167.87 234 171.96 229.83C172.133 229.657 172.313 229.65 172.5 229.81L172.74 230.02ZM199.62 258.76C199.686 259.2 199.376 259.684 198.69 260.21C192.663 261.57 187.886 261.204 184.36 259.11C181.233 257.264 180.363 258.017 181.75 261.37C182.483 263.15 183.51 265.334 184.83 267.92C187.823 273.787 192.206 277.17 197.98 278.07L201.01 278.2C201.273 278.211 201.534 278.164 201.777 278.064C202.02 277.963 202.239 277.811 202.417 277.618C202.596 277.425 202.731 277.196 202.812 276.946C202.894 276.696 202.92 276.431 202.89 276.17C202.35 271.644 201.526 267.174 200.42 262.76C200.2 261.887 200.22 260.537 200.48 258.71C200.853 258.53 201.093 258.307 201.2 258.04L207.01 254.58C207.135 254.505 207.243 254.406 207.329 254.289C207.415 254.171 207.477 254.038 207.511 253.896C207.544 253.755 207.549 253.608 207.525 253.464C207.501 253.32 207.448 253.183 207.37 253.06L202.45 245.32C202.263 245.027 202.23 244.714 202.35 244.38L203 242.58C203.12 242.24 203.103 241.904 202.95 241.57C202.81 241.277 202.603 241.034 202.33 240.84C201.39 240.17 200.97 239.28 200.44 238.23C200.393 237.89 200.21 237.47 199.89 236.97C199.784 236.809 199.625 236.691 199.442 236.638C199.258 236.585 199.062 236.6 198.89 236.68L176.7 246.74C176.106 247.007 176.023 247.384 176.45 247.87L178.15 249.82C178.193 249.872 178.221 249.936 178.23 250.003C178.239 250.07 178.228 250.138 178.2 250.2C178.172 250.262 178.127 250.314 178.07 250.351C178.014 250.389 177.948 250.409 177.88 250.41C176.26 250.417 174.73 250.677 173.29 251.19C173.159 251.236 173.038 251.308 172.935 251.401C172.832 251.494 172.749 251.607 172.69 251.732C172.631 251.858 172.598 251.994 172.593 252.133C172.588 252.272 172.611 252.41 172.66 252.54C173.62 255.107 175.106 257.034 177.12 258.32C177.433 258.527 177.773 258.587 178.14 258.5L182.38 257.56C182.793 257.467 183.186 257.527 183.56 257.74C188.66 260.62 194.013 260.96 199.62 258.76ZM189.06 279.1C185.773 276.427 183.116 273.624 181.09 270.69C180.973 270.522 180.8 270.403 180.602 270.355C180.405 270.307 180.197 270.334 180.02 270.43C174.58 273.377 168.976 276.764 163.21 280.59C160.14 282.63 156.06 286.63 156.53 290.44C157.176 295.68 159.003 299.72 162.01 302.56C164.07 304.51 167.03 307.13 169.88 307.79C171.393 308.144 172.433 308.31 173 308.29C181.58 307.93 190.163 307.81 198.75 307.93C199.023 307.937 199.26 307.884 199.46 307.77C199.653 307.67 199.86 307.62 200.08 307.62L233.77 307.45C233.93 307.45 234.084 307.386 234.198 307.272C234.312 307.158 234.377 307.003 234.38 306.84L234.49 297.75L234.65 292.85C234.656 292.733 234.619 292.618 234.545 292.528C234.471 292.437 234.366 292.377 234.25 292.36C212.67 289.3 191.086 286.284 169.5 283.31C167.62 283.05 166.31 282.15 164.22 283.31C162.273 283.877 160.793 285.124 159.78 287.05C159.726 287.15 159.66 287.16 159.58 287.08L159.37 286.87C159.263 286.764 159.246 286.647 159.32 286.52C161.493 282.767 164.763 281.227 169.13 281.9C172.283 282.38 175.05 282.724 177.43 282.93L225.81 289.73C225.865 289.738 225.922 289.732 225.975 289.712C226.027 289.692 226.073 289.658 226.109 289.615C226.145 289.572 226.17 289.521 226.181 289.466C226.191 289.41 226.187 289.354 226.17 289.3L216.45 259.83C216.369 259.577 216.207 259.358 215.99 259.206C215.774 259.054 215.513 258.978 215.25 258.99C211.943 259.11 208.613 259.68 205.26 260.7C204.92 260.8 204.813 261.017 204.94 261.35C206.973 266.644 207.95 271.884 207.87 277.07C207.83 279.4 206.45 281.24 204.67 282.57C202.05 284.51 197.83 283.97 195.04 282.69C192.946 281.73 190.953 280.534 189.06 279.1ZM219.44 265.2L227.34 288.83C227.6 289.61 228.133 290.07 228.94 290.21C230.72 290.517 232.42 290.69 234.04 290.73C235.36 290.764 235.666 290.224 234.96 289.11C230.173 281.597 225.603 274.324 221.25 267.29C220.78 266.52 220.47 265.58 219.82 264.96C219.366 264.534 219.24 264.614 219.44 265.2ZM271.974 271.356C271.943 270.949 271.752 270.571 271.442 270.304C271.133 270.038 270.73 269.905 270.323 269.936L259.932 270.717C259.525 270.748 259.146 270.939 258.88 271.249C258.614 271.558 258.481 271.961 258.512 272.368L258.626 273.884C258.656 274.292 258.848 274.67 259.157 274.936C259.467 275.203 259.87 275.335 260.277 275.304L270.668 274.523C271.075 274.492 271.453 274.301 271.72 273.992C271.986 273.682 272.118 273.279 272.088 272.872L271.974 271.356ZM257.717 275.127C257.698 274.907 257.635 274.693 257.533 274.498C257.43 274.302 257.291 274.129 257.121 273.987C256.952 273.846 256.757 273.739 256.546 273.673C256.336 273.607 256.114 273.583 255.895 273.603L255.715 273.619C255.495 273.639 255.282 273.701 255.086 273.803C254.891 273.906 254.717 274.045 254.576 274.215C254.434 274.384 254.327 274.579 254.261 274.79C254.195 275 254.172 275.222 254.191 275.442L254.822 282.514C254.842 282.733 254.905 282.947 255.007 283.143C255.109 283.338 255.249 283.512 255.418 283.653C255.587 283.795 255.783 283.901 255.993 283.967C256.204 284.033 256.425 284.057 256.645 284.038L256.824 284.022C257.044 284.002 257.258 283.939 257.453 283.837C257.649 283.735 257.822 283.595 257.964 283.426C258.105 283.257 258.212 283.061 258.278 282.851C258.344 282.64 258.368 282.419 258.348 282.199L257.717 275.127ZM272.586 276.334C272.578 276.244 272.553 276.156 272.511 276.075C272.47 275.995 272.413 275.923 272.344 275.865C272.274 275.806 272.194 275.762 272.108 275.734C272.022 275.707 271.931 275.696 271.841 275.704L259.863 276.71C259.772 276.717 259.684 276.743 259.604 276.784C259.523 276.826 259.452 276.883 259.393 276.952C259.335 277.021 259.291 277.101 259.263 277.188C259.236 277.274 259.225 277.365 259.233 277.455L259.434 279.847C259.441 279.937 259.467 280.025 259.508 280.105C259.55 280.186 259.607 280.257 259.676 280.316C259.745 280.374 259.825 280.419 259.911 280.446C259.998 280.474 260.089 280.484 260.179 280.477L272.157 279.471C272.247 279.463 272.335 279.438 272.416 279.396C272.496 279.355 272.568 279.298 272.626 279.228C272.685 279.159 272.729 279.079 272.756 278.993C272.784 278.907 272.794 278.816 272.787 278.725L272.586 276.334ZM272.344 281.581C272.326 281.383 272.23 281.2 272.077 281.073C271.924 280.945 271.727 280.884 271.529 280.902L260.415 281.914C260.217 281.932 260.034 282.028 259.907 282.18C259.78 282.333 259.718 282.53 259.736 282.728L259.936 284.919C259.954 285.118 260.05 285.3 260.202 285.428C260.355 285.555 260.552 285.616 260.75 285.598L271.864 284.587C272.063 284.569 272.245 284.473 272.373 284.32C272.5 284.167 272.561 283.97 272.543 283.772L272.344 281.581ZM259.05 286.02C258.123 285.42 257.116 285.13 256.03 285.15C253.85 285.2 249.74 288.47 247.82 289.6C247.113 290.014 247.17 290.23 247.99 290.25C252.05 290.35 256.383 290.27 260.99 290.01C261.383 289.99 261.566 289.784 261.54 289.39C261.466 288.53 261.186 287.847 260.7 287.34C260.253 286.88 259.703 286.44 259.05 286.02ZM272.156 286.566C272.147 286.483 272.122 286.404 272.083 286.331C272.043 286.258 271.989 286.194 271.925 286.142C271.861 286.09 271.787 286.052 271.707 286.028C271.628 286.005 271.545 285.997 271.463 286.006L263.031 286.907C262.864 286.925 262.712 287.008 262.607 287.138C262.502 287.268 262.453 287.435 262.471 287.601L262.584 288.655C262.592 288.737 262.617 288.817 262.657 288.889C262.697 288.962 262.75 289.026 262.815 289.078C262.879 289.13 262.953 289.169 263.032 289.192C263.112 289.216 263.195 289.223 263.277 289.214L271.709 288.313C271.875 288.295 272.027 288.212 272.132 288.082C272.237 287.952 272.286 287.786 272.269 287.62L272.156 286.566ZM236.15 292.01C236.14 298.37 236.23 304.81 235.64 310.8C235.63 310.893 235.643 310.987 235.676 311.075C235.709 311.162 235.763 311.24 235.832 311.304C235.901 311.367 235.983 311.413 236.073 311.438C236.163 311.464 236.258 311.468 236.35 311.45C241.623 310.49 246.746 309.41 251.72 308.21C257.72 306.76 263.43 307.61 269.46 307.91C274.38 308.15 275.23 303.79 275.12 299.93C275.08 298.48 275.8 297.35 276.64 296.25C276.9 295.904 276.903 295.56 276.65 295.22C275.716 293.96 274.41 293.16 272.73 292.82C268.17 291.88 263.56 291.08 258.88 291.39C252.033 291.844 244.686 291.834 236.84 291.36C236.38 291.334 236.15 291.55 236.15 292.01ZM217.53 333.72C221.516 331.547 225.563 329.427 229.67 327.36C232.51 325.934 234.263 324.71 234.93 323.69C235.663 322.564 235.866 321.357 235.54 320.07C234.573 316.277 233.496 312.56 232.31 308.92C232.163 308.48 231.86 308.264 231.4 308.27L181.55 309C180.223 308.834 178.873 308.844 177.5 309.03C171.34 309.844 166.236 308.014 162.19 303.54C162.016 303.347 161.826 303.33 161.62 303.49L161.41 303.66C161.35 303.7 161.34 303.75 161.38 303.81C170.18 316.83 179.916 329.734 190.59 342.52C191.74 343.9 193.19 343.85 194.77 343.33C202.616 340.73 210.203 337.527 217.53 333.72ZM241.23 312.62C239.65 313.82 237.92 314.62 236 315.02C235.58 315.107 235.456 315.347 235.63 315.74C236.003 316.567 236.23 317.414 236.31 318.28C236.35 318.72 236.59 318.94 237.03 318.94L267.5 318.96C267.646 318.96 267.71 318.887 267.69 318.74L266.16 309.33C266.151 309.265 266.119 309.205 266.072 309.161C266.024 309.117 265.963 309.092 265.9 309.09C261.81 308.99 257.91 308.28 253.8 309.25C250.593 310.004 247.443 310.67 244.35 311.25C243.183 311.464 242.143 311.92 241.23 312.62ZM236.14 312.91C236 312.91 235.863 312.887 235.73 312.84C235.316 312.687 235.153 312.827 235.24 313.26L235.32 313.63C235.34 313.737 235.403 313.79 235.51 313.79C236.856 313.817 238.013 313.38 238.98 312.48C239.473 312.027 239.4 311.91 238.76 312.13C237.946 312.41 237.153 312.66 236.38 312.88C236.3 312.9 236.22 312.91 236.14 312.91ZM239.28 329.23L242.28 338.14C242.326 338.534 242.403 338.837 242.51 339.05C242.623 339.264 242.796 339.37 243.03 339.37C252.183 339.264 261.216 339.264 270.13 339.37C270.198 339.371 270.265 339.357 270.326 339.329C270.388 339.301 270.443 339.26 270.487 339.209C270.531 339.157 270.563 339.096 270.581 339.031C270.599 338.965 270.602 338.897 270.59 338.83L268.37 325.86C268.683 324.914 268.586 323.567 268.08 321.82C268.073 321.274 267.993 320.854 267.84 320.56C267.72 320.327 267.526 320.21 267.26 320.21L237.46 320.24C237.363 320.241 237.267 320.262 237.179 320.302C237.091 320.343 237.012 320.401 236.948 320.473C236.884 320.546 236.836 320.631 236.807 320.724C236.778 320.816 236.769 320.914 236.78 321.01C237.1 323.717 237.933 326.457 239.28 329.23ZM273.39 322.25L275.64 337.74L275.78 338.8C275.826 339.147 276.026 339.32 276.38 339.32C300.826 339.247 325.2 339.207 349.5 339.2C353.73 339.2 354.91 336.59 354.82 332.77C354.76 330.07 354.706 327.347 354.66 324.6C354.644 323.428 354.167 322.309 353.332 321.485C352.498 320.662 351.372 320.2 350.2 320.2L273.72 320.23C273.36 320.23 273.16 320.407 273.12 320.76C273.066 321.22 273.156 321.717 273.39 322.25ZM237.78 362.54C242.413 372.274 244.866 382.114 245.14 392.06C245.146 392.367 245.3 392.494 245.6 392.44L245.94 392.38C246.366 392.3 246.57 392.044 246.55 391.61C246.176 382.37 244.073 373.444 240.24 364.83C237.68 359.077 234.843 353.35 231.73 347.65C231.562 347.349 231.465 347.012 231.448 346.665C231.431 346.318 231.493 345.971 231.63 345.65L234.71 338.4C234.77 338.26 234.74 338.14 234.62 338.04L234.35 337.81C234.01 337.53 233.753 337.59 233.58 337.99L230.1 345.75C229.982 346.015 229.926 346.303 229.936 346.592C229.947 346.882 230.023 347.165 230.16 347.42C232.88 352.554 235.42 357.594 237.78 362.54ZM243.71 421.05L239.72 442.02C239.705 442.092 239.705 442.166 239.72 442.237C239.734 442.309 239.762 442.377 239.803 442.438C239.844 442.498 239.897 442.55 239.958 442.59C240.019 442.63 240.088 442.657 240.16 442.67C244.98 443.597 249.456 445.427 253.59 448.16C253.943 448.394 254.123 448.297 254.13 447.87C254.156 445.264 254.146 442.707 254.1 440.2C253.98 433.33 255.81 427.84 259.73 422.27C265.156 415.624 272.28 411.514 281.1 409.94C281.36 409.894 281.47 409.737 281.43 409.47L271.01 341.03C270.956 340.69 270.756 340.52 270.41 340.52L243.57 340.55C243.507 340.55 243.446 340.565 243.39 340.593C243.334 340.622 243.286 340.663 243.25 340.713C243.214 340.763 243.19 340.82 243.181 340.881C243.173 340.941 243.179 341.003 243.2 341.06C246.76 351.107 250.076 361.237 253.15 371.45C254.57 376.16 256.1 386.75 251.64 390.61C249.826 392.184 247.966 393.64 246.06 394.98C245.629 395.283 245.326 395.732 245.21 396.24L239.88 419.32C239.858 419.414 239.858 419.512 239.881 419.605C239.904 419.699 239.949 419.786 240.012 419.86C240.075 419.933 240.155 419.992 240.245 420.03C240.335 420.068 240.432 420.085 240.53 420.08C242.603 419.967 243.663 420.29 243.71 421.05ZM232.55 395.67C232.426 395.646 232.313 395.586 232.223 395.498C232.132 395.41 232.07 395.298 232.042 395.175C232.015 395.052 232.023 394.924 232.067 394.806C232.111 394.688 232.189 394.585 232.29 394.51C233.816 393.377 235.19 392 236.41 390.38C237.07 389.5 237.003 388.684 236.21 387.93C235.583 387.33 234.903 386.907 234.17 386.66C230.476 385.407 227.563 383.634 225.43 381.34C224.97 380.854 223.026 378.117 219.6 373.13C214.106 365.157 208.806 357.057 203.7 348.83C203.33 348.24 202.7 347.81 202.22 347.32C201.92 347.014 201.74 346.654 201.68 346.24C201.5 344.954 200.933 344.074 199.98 343.6C199.4 343.314 199.19 343.484 199.35 344.11C199.63 345.157 200.233 346.027 201.16 346.72C201.473 346.96 201.683 347.264 201.79 347.63C201.963 348.217 202.223 348.787 202.57 349.34C209.363 360.287 216.273 370.714 223.3 380.62C226.34 384.91 230.33 386.42 234.9 388.44C235.043 388.504 235.169 388.602 235.267 388.725C235.364 388.848 235.431 388.992 235.46 389.146C235.49 389.299 235.481 389.457 235.436 389.606C235.391 389.755 235.31 389.89 235.2 390L230.85 394.43C229.95 395.344 230.096 396.03 231.29 396.49L232.96 397.12C233.311 397.255 233.594 397.523 233.748 397.866C233.902 398.209 233.913 398.599 233.78 398.95C232.393 402.57 231.616 406.384 231.45 410.39C231.443 410.65 231.57 410.784 231.83 410.79L232.19 410.8C232.247 410.8 232.303 410.779 232.346 410.74C232.388 410.701 232.415 410.648 232.42 410.59C232.913 406.377 233.813 402.424 235.12 398.73C235.233 398.417 235.23 398.107 235.11 397.8C234.643 396.627 233.79 395.917 232.55 395.67ZM202.9 428.08C202.976 427.83 203.101 427.598 203.268 427.397C203.434 427.196 203.639 427.031 203.87 426.91L223.03 416.86C223.104 416.822 223.17 416.768 223.223 416.703C223.276 416.639 223.315 416.564 223.338 416.484C223.362 416.403 223.369 416.319 223.359 416.236C223.348 416.153 223.322 416.073 223.28 416L214.3 400.28C214.086 399.914 213.81 399.854 213.47 400.1C207.95 404.087 202.35 408.117 196.67 412.19C194.63 413.65 192.55 414.05 190.39 415.09C187.7 416.38 189.66 421.4 191.01 422.78C194.4 426.23 193.69 432.85 196.35 437.05C198.836 440.99 202.36 443.937 206.92 445.89C207.733 446.237 208.076 445.974 207.95 445.1C207.776 443.927 207.35 442.854 206.67 441.88C203.78 437.72 201.32 433.21 202.9 428.08ZM316.4 425.79H316.41C316.503 425.737 316.53 425.66 316.49 425.56C316.003 424.427 315.37 423.417 314.59 422.53C307.636 414.59 298.46 410.604 287.06 410.57C286.964 410.57 286.868 410.589 286.78 410.627C286.691 410.664 286.611 410.719 286.543 410.788C286.476 410.857 286.424 410.939 286.389 411.029C286.354 411.118 286.337 411.214 286.34 411.31L286.35 411.67C286.352 411.783 286.399 411.889 286.479 411.968C286.56 412.046 286.667 412.09 286.78 412.09C297.74 411.964 306.89 415.6 314.23 423C315.023 423.8 315.65 424.697 316.11 425.69C316.17 425.83 316.266 425.864 316.4 425.79ZM224.62 415.64C224.906 416.08 225.063 416.034 225.09 415.5L225.24 411.73C225.253 411.33 225.076 411.217 224.71 411.39C224.13 411.67 223.643 412.057 223.25 412.55C223.142 412.687 223.08 412.853 223.073 413.026C223.066 413.198 223.114 413.368 223.21 413.51L224.62 415.64ZM258.34 426.71L258.56 426.88C258.572 426.891 258.587 426.898 258.603 426.903C258.619 426.907 258.636 426.908 258.653 426.905C258.67 426.902 258.686 426.896 258.701 426.886C258.716 426.877 258.729 426.865 258.74 426.85C263.933 419.144 271.533 414.414 281.54 412.66C281.617 412.647 281.691 412.617 281.756 412.573C281.82 412.528 281.875 412.47 281.915 412.403C281.955 412.335 281.979 412.26 281.987 412.181C281.995 412.103 281.986 412.024 281.96 411.95L281.83 411.57C281.782 411.439 281.69 411.329 281.569 411.259C281.449 411.19 281.307 411.165 281.17 411.19C271.07 413.037 263.453 418.177 258.32 426.61C258.293 426.65 258.3 426.684 258.34 426.71ZM231.935 414.325C231.943 414.248 231.936 414.17 231.914 414.096C231.892 414.021 231.855 413.952 231.806 413.892C231.758 413.832 231.697 413.782 231.629 413.745C231.561 413.708 231.487 413.685 231.41 413.676L231.35 413.67C231.273 413.662 231.195 413.669 231.121 413.691C231.046 413.713 230.977 413.75 230.917 413.798C230.857 413.847 230.807 413.907 230.77 413.975C230.733 414.044 230.709 414.118 230.701 414.195L230.325 417.776C230.317 417.853 230.324 417.93 230.346 418.005C230.368 418.079 230.404 418.148 230.453 418.209C230.502 418.269 230.562 418.319 230.63 418.356C230.698 418.393 230.773 418.416 230.85 418.424L230.91 418.43C230.987 418.438 231.065 418.431 231.139 418.409C231.213 418.387 231.283 418.351 231.343 418.302C231.403 418.253 231.453 418.193 231.49 418.125C231.527 418.057 231.55 417.982 231.558 417.905L231.935 414.325ZM316.37 430.31V430.3C316.443 430.247 316.456 430.18 316.41 430.1C303.17 410.2 270.32 410.98 258.21 431.59C258.19 431.637 258.2 431.677 258.24 431.71C258.333 431.777 258.416 431.764 258.49 431.67C266.396 421.337 276.98 416.524 290.24 417.23C300.773 417.79 309.396 422.14 316.11 430.28C316.183 430.374 316.27 430.384 316.37 430.31ZM222.42 418.61L213.11 423.54C210.776 424.64 208.116 426.004 205.13 427.63C202.02 429.32 204.29 435.85 205.71 437.8C205.936 438.114 206.24 438.27 206.62 438.27C211.34 438.29 216.15 438.627 221.05 439.28C221.463 439.334 221.676 439.15 221.69 438.73L222.21 424.17L222.59 419.01C222.95 418.844 223.36 418.767 223.82 418.78C224.24 418.794 224.52 418.75 224.66 418.65C224.933 418.457 225.013 418.14 224.9 417.7C224.885 417.638 224.857 417.581 224.816 417.532C224.775 417.484 224.723 417.446 224.664 417.421C224.605 417.397 224.542 417.387 224.478 417.392C224.415 417.397 224.354 417.417 224.3 417.45L222.42 418.61ZM314.03 429.89C300.78 414.97 275.66 414.42 262.13 429.39C261.763 429.79 261.793 430.16 262.22 430.5L267.66 434.87C268.086 435.21 268.483 435.18 268.85 434.78C278.9 423.81 295.13 424.12 305.24 435.08C305.323 435.168 305.433 435.226 305.553 435.244C305.672 435.263 305.794 435.24 305.9 435.18L313.89 430.7C314.276 430.487 314.323 430.217 314.03 429.89ZM223.57 420.98C223.363 429.347 223.07 437.694 222.69 446.02C222.623 447.38 222.286 448.62 221.68 449.74C220.513 451.894 219.57 454.027 218.85 456.14C218.723 456.527 218.843 456.804 219.21 456.97C230.263 462.09 241.31 463.56 252.35 461.38C252.457 461.358 252.557 461.31 252.642 461.242C252.727 461.174 252.795 461.087 252.839 460.989C252.884 460.89 252.905 460.783 252.9 460.675C252.895 460.568 252.864 460.463 252.81 460.37C252.136 459.204 251.13 458.4 249.79 457.96C245.6 456.56 241.51 455.54 238.57 451.93C237.376 450.47 236.946 448.9 237.28 447.22C238.946 438.94 240.553 430.567 242.1 422.1C242.193 421.614 241.99 421.347 241.49 421.3L224.72 419.94C224.576 419.928 224.431 419.946 224.294 419.992C224.157 420.038 224.03 420.112 223.923 420.21C223.815 420.307 223.728 420.426 223.667 420.558C223.607 420.691 223.573 420.834 223.57 420.98ZM268.87 436.58C268.768 436.704 268.622 436.782 268.463 436.799C268.304 436.816 268.145 436.77 268.02 436.67L261.05 431.13C261.012 431.101 260.969 431.079 260.922 431.067C260.876 431.054 260.828 431.051 260.78 431.058C260.733 431.064 260.687 431.08 260.646 431.105C260.604 431.129 260.568 431.162 260.54 431.2C257.013 435.84 255.316 441.14 255.45 447.1C255.456 447.454 255.636 447.63 255.99 447.63L275.55 447.61C275.738 447.609 275.919 447.541 276.058 447.417C276.198 447.294 276.288 447.124 276.31 446.94C277.81 433.97 296.13 434.06 297.48 446.93C297.5 447.117 297.587 447.291 297.726 447.416C297.864 447.542 298.044 447.611 298.23 447.61L319.72 447.62C320.1 447.62 320.29 447.43 320.29 447.05C320.343 441.61 318.863 436.62 315.85 432.08C315.709 431.868 315.493 431.718 315.245 431.659C314.997 431.599 314.734 431.636 314.51 431.76L306.09 436.57C305.858 436.7 305.589 436.746 305.328 436.7C305.067 436.655 304.831 436.521 304.66 436.32C294.93 425.07 278.3 425.32 268.87 436.58Z" fill="#2C483D"/>
<path d="M172.739 230.02L172.499 229.81C172.313 229.65 172.133 229.657 171.959 229.83C167.869 234 169.769 239.38 172.509 243.52C172.709 243.82 172.646 244.05 172.319 244.21L167.519 246.49C167.239 246.623 167.089 246.847 167.069 247.16L167.039 247.49C167.034 247.566 167.049 247.642 167.082 247.71C167.115 247.778 167.165 247.837 167.228 247.881C167.29 247.924 167.363 247.95 167.438 247.957C167.514 247.964 167.59 247.951 167.659 247.92L190.329 237.4C190.709 237.227 190.786 236.963 190.559 236.61L190.349 236.3C190.316 236.233 190.263 236.213 190.189 236.24L186.629 237.49C186.236 237.623 185.929 237.51 185.709 237.15C184.536 235.197 183.679 233.303 183.139 231.47C183.013 231.043 183.021 230.588 183.162 230.166C183.304 229.743 183.571 229.375 183.929 229.11L187.159 226.76C187.303 226.655 187.402 226.502 187.439 226.328C187.476 226.155 187.448 225.974 187.359 225.82L185.219 222.02C185.059 221.733 185.079 221.463 185.279 221.21C185.566 220.837 185.906 220.547 186.299 220.34C186.431 220.268 186.579 220.234 186.728 220.243C186.877 220.252 187.019 220.303 187.139 220.39C188.293 221.237 189.293 222.203 190.139 223.29C192.326 226.103 194.476 228.983 196.589 231.93C196.747 232.154 196.962 232.332 197.212 232.444C197.462 232.557 197.737 232.6 198.009 232.57L203.569 231.98C203.756 231.96 203.936 231.99 204.109 232.07C204.483 232.243 204.636 232.403 204.569 232.55C204.516 232.677 204.426 232.767 204.299 232.82C191.966 238.373 179.819 243.923 167.859 249.47C167.785 249.504 167.705 249.523 167.624 249.525C167.542 249.528 167.461 249.514 167.385 249.484C167.308 249.454 167.238 249.409 167.179 249.352C167.12 249.295 167.072 249.226 167.039 249.15C164.439 243.02 162.879 235.23 168.709 230.41C172.423 227.33 177.453 224.72 183.799 222.58C184.239 222.433 184.503 222.59 184.589 223.05C184.716 223.71 184.996 224.297 185.429 224.81C186.136 225.643 186.006 226.313 185.039 226.82C182.346 228.22 181.349 230.043 182.049 232.29C182.616 234.117 183.469 235.877 184.609 237.57C184.675 237.667 184.719 237.778 184.738 237.894C184.757 238.009 184.751 238.128 184.72 238.241C184.688 238.355 184.633 238.46 184.557 238.549C184.481 238.639 184.386 238.711 184.279 238.76L174.439 243.29C174.274 243.367 174.086 243.381 173.911 243.329C173.737 243.278 173.587 243.164 173.489 243.01C170.919 238.89 169.299 234.65 172.769 230.41C172.883 230.27 172.873 230.14 172.739 230.02Z" fill="#43695A"/>
<path d="M200.439 238.23C199.406 238.75 198.409 239.397 197.449 240.17C196.336 241.057 195.349 241.697 194.489 242.09C191.269 243.55 188.072 244.873 184.899 246.06C184.817 246.09 184.744 246.14 184.686 246.205C184.627 246.27 184.586 246.348 184.564 246.432C184.542 246.517 184.541 246.605 184.562 246.69C184.582 246.775 184.622 246.854 184.679 246.92C188.779 251.69 192.629 255.26 199.169 256.32C199.549 256.38 199.812 256.587 199.959 256.94C200.232 257.6 200.646 257.967 201.199 258.04C201.092 258.307 200.852 258.53 200.479 258.71C199.932 258.523 199.646 258.54 199.619 258.76C194.012 260.96 188.659 260.62 183.559 257.74C183.186 257.527 182.792 257.467 182.379 257.56L178.139 258.5C177.772 258.587 177.432 258.527 177.119 258.32C175.106 257.033 173.619 255.107 172.659 252.54C172.61 252.41 172.587 252.272 172.593 252.133C172.598 251.994 172.631 251.858 172.689 251.732C172.748 251.606 172.831 251.493 172.934 251.4C173.037 251.307 173.158 251.236 173.289 251.19C174.729 250.677 176.259 250.417 177.879 250.41C177.947 250.409 178.013 250.388 178.07 250.351C178.126 250.314 178.171 250.261 178.2 250.2C178.228 250.138 178.238 250.07 178.229 250.003C178.22 249.935 178.192 249.872 178.149 249.82L176.449 247.87C176.022 247.383 176.106 247.007 176.699 246.74L198.889 236.68C199.061 236.599 199.257 236.585 199.441 236.638C199.625 236.691 199.784 236.809 199.889 236.97C200.209 237.47 200.392 237.89 200.439 238.23Z" fill="#355649"/>
<path d="M200.441 238.23C200.971 239.28 201.391 240.17 202.331 240.84C202.604 241.033 202.811 241.277 202.951 241.57C203.104 241.903 203.121 242.24 203.001 242.58L202.351 244.38C202.231 244.713 202.264 245.027 202.451 245.32L207.371 253.06C207.449 253.183 207.502 253.32 207.526 253.464C207.55 253.607 207.545 253.754 207.512 253.896C207.478 254.038 207.416 254.171 207.33 254.289C207.244 254.406 207.136 254.505 207.011 254.58L201.201 258.04C200.648 257.967 200.234 257.6 199.961 256.94C199.814 256.587 199.551 256.38 199.171 256.32C192.631 255.26 188.781 251.69 184.681 246.92C184.624 246.854 184.583 246.775 184.563 246.69C184.543 246.605 184.544 246.517 184.566 246.432C184.587 246.348 184.629 246.27 184.687 246.205C184.746 246.14 184.819 246.09 184.901 246.06C188.074 244.873 191.271 243.55 194.491 242.09C195.351 241.697 196.338 241.057 197.451 240.17C198.411 239.397 199.408 238.75 200.441 238.23Z" fill="#F2F1DF"/>
<path d="M198.69 260.21C197.104 262.91 195.054 265.187 192.54 267.04C192.308 267.211 192.139 267.455 192.059 267.733C191.98 268.012 191.994 268.31 192.1 268.58C193.414 271.847 195.374 275.01 197.98 278.07C192.207 277.17 187.824 273.787 184.83 267.92C183.51 265.334 182.484 263.15 181.75 261.37C180.364 258.017 181.234 257.264 184.36 259.11C187.887 261.204 192.664 261.57 198.69 260.21Z" fill="#355649"/>
<path d="M200.479 258.71C200.219 260.537 200.199 261.887 200.419 262.76C201.526 267.173 202.349 271.643 202.889 276.17C202.92 276.431 202.894 276.696 202.812 276.946C202.73 277.196 202.596 277.425 202.417 277.618C202.238 277.811 202.02 277.963 201.777 278.063C201.534 278.164 201.272 278.211 201.009 278.2L197.979 278.07C195.373 275.01 193.413 271.847 192.099 268.58C191.993 268.309 191.979 268.012 192.059 267.733C192.138 267.455 192.307 267.211 192.539 267.04C195.053 265.187 197.103 262.91 198.689 260.21C199.376 259.683 199.686 259.2 199.619 258.76C199.646 258.54 199.933 258.523 200.479 258.71Z" fill="#F2F1DF"/>
<path d="M177.43 282.93L189.06 279.1C190.953 280.533 192.946 281.73 195.04 282.69C197.83 283.97 202.05 284.51 204.67 282.57C206.45 281.24 207.83 279.4 207.87 277.07C207.95 271.883 206.973 266.643 204.94 261.35C204.813 261.017 204.92 260.8 205.26 260.7C208.613 259.68 211.943 259.11 215.25 258.99C215.513 258.978 215.773 259.054 215.99 259.206C216.207 259.357 216.369 259.577 216.45 259.83L226.17 289.3C226.187 289.353 226.191 289.41 226.18 289.465C226.17 289.521 226.145 289.572 226.109 289.615C226.073 289.658 226.027 289.691 225.974 289.711C225.922 289.732 225.865 289.738 225.81 289.73L177.43 282.93Z" fill="#F2F1DF"/>
<path d="M219.439 265.2C219.239 264.613 219.366 264.533 219.819 264.96C220.469 265.58 220.779 266.52 221.249 267.29C225.603 274.323 230.173 281.597 234.959 289.11C235.666 290.223 235.359 290.763 234.039 290.73C232.419 290.69 230.719 290.517 228.939 290.21C228.133 290.07 227.599 289.61 227.339 288.83L219.439 265.2Z" fill="#F2F1DF"/>
<path d="M270.323 269.936L259.932 270.717C259.084 270.781 258.448 271.52 258.512 272.368L258.626 273.884C258.69 274.732 259.429 275.368 260.277 275.304L270.668 274.523C271.516 274.459 272.152 273.72 272.088 272.872L271.974 271.356C271.91 270.508 271.171 269.872 270.323 269.936Z" fill="#43695A"/>
<path d="M189.059 279.1L177.429 282.93C175.049 282.723 172.283 282.38 169.129 281.9C164.763 281.227 161.493 282.767 159.319 286.52C159.246 286.647 159.263 286.763 159.369 286.87L159.579 287.08C159.659 287.16 159.726 287.15 159.779 287.05C160.793 285.123 162.273 283.877 164.219 283.31C164.866 284.35 164.956 285.36 164.489 286.34C163.763 287.873 163.386 288.707 163.359 288.84C162.609 293.23 165.169 296.6 169.189 297.94C173.276 299.307 177.219 300.217 181.019 300.67C196.939 302.56 211.049 302.92 231.049 303.45C231.503 303.463 231.776 303.247 231.869 302.8L232.409 300.24C232.476 299.907 232.633 299.617 232.879 299.37L234.489 297.75L234.379 306.84C234.377 307.003 234.311 307.158 234.197 307.272C234.083 307.386 233.929 307.45 233.769 307.45L200.079 307.62C199.859 307.62 199.653 307.67 199.459 307.77C199.259 307.883 199.023 307.937 198.749 307.93C190.163 307.81 181.579 307.93 172.999 308.29C172.433 308.31 171.393 308.143 169.879 307.79C167.029 307.13 164.069 304.51 162.009 302.56C159.003 299.72 157.176 295.68 156.529 290.44C156.059 286.63 160.139 282.63 163.209 280.59C168.976 276.763 174.579 273.377 180.019 270.43C180.197 270.334 180.404 270.307 180.602 270.355C180.799 270.403 180.973 270.522 181.089 270.69C183.116 273.623 185.773 276.427 189.059 279.1Z" fill="#355649"/>
<path d="M255.896 273.603L255.716 273.619C254.792 273.701 254.11 274.517 254.192 275.441L254.823 282.513C254.906 283.437 255.722 284.12 256.646 284.037L256.825 284.021C257.75 283.939 258.432 283.123 258.349 282.199L257.718 275.127C257.636 274.203 256.82 273.52 255.896 273.603Z" fill="#43695A"/>
<path d="M271.841 275.704L259.863 276.709C259.484 276.741 259.202 277.075 259.234 277.455L259.434 279.846C259.466 280.226 259.8 280.508 260.18 280.476L272.158 279.47C272.537 279.438 272.819 279.105 272.787 278.725L272.587 276.333C272.555 275.954 272.221 275.672 271.841 275.704Z" fill="#43695A"/>
<path d="M271.529 280.902L260.415 281.913C260.002 281.951 259.698 282.316 259.736 282.728L259.935 284.919C259.973 285.332 260.338 285.636 260.75 285.598L271.864 284.587C272.277 284.549 272.581 284.184 272.543 283.772L272.344 281.581C272.306 281.168 271.941 280.864 271.529 280.902Z" fill="#43695A"/>
<path d="M234.491 297.75L232.881 299.37C232.634 299.616 232.477 299.906 232.411 300.24L231.871 302.8C231.777 303.246 231.504 303.463 231.051 303.45C211.051 302.92 196.941 302.56 181.021 300.67C177.221 300.216 173.277 299.306 169.191 297.94C165.171 296.6 162.611 293.23 163.361 288.84C163.387 288.706 163.764 287.873 164.491 286.34C164.957 285.36 164.867 284.35 164.221 283.31C166.311 282.15 167.621 283.05 169.501 283.31C191.087 286.283 212.671 289.3 234.251 292.36C234.366 292.377 234.472 292.437 234.546 292.527C234.619 292.618 234.657 292.733 234.651 292.85L234.491 297.75Z" fill="#F2F1DF"/>
<path d="M260.701 287.34C261.187 287.847 261.467 288.53 261.541 289.39C261.567 289.783 261.384 289.99 260.991 290.01C256.384 290.27 252.051 290.35 247.991 290.25C247.171 290.23 247.114 290.013 247.821 289.6C249.741 288.47 253.851 285.2 256.031 285.15C257.117 285.13 258.124 285.42 259.051 286.02C259.704 286.44 260.254 286.88 260.701 287.34Z" fill="#43695A"/>
<path d="M271.463 286.006L263.031 286.907C262.685 286.944 262.434 287.255 262.471 287.601L262.584 288.655C262.621 289.001 262.931 289.251 263.277 289.214L271.709 288.313C272.055 288.276 272.306 287.966 272.269 287.62L272.156 286.566C272.119 286.22 271.809 285.969 271.463 286.006Z" fill="#43695A"/>
<path d="M235.64 310.8C236.23 304.81 236.14 298.37 236.15 292.01C236.15 291.55 236.38 291.333 236.84 291.36C244.686 291.833 252.033 291.843 258.88 291.39C263.56 291.08 268.17 291.88 272.73 292.82C274.41 293.16 275.716 293.96 276.65 295.22C276.903 295.56 276.9 295.903 276.64 296.25C275.8 297.35 275.08 298.48 275.12 299.93C275.23 303.79 274.38 308.15 269.46 307.91C263.43 307.61 257.72 306.76 251.72 308.21C246.746 309.41 241.623 310.49 236.35 311.45C236.258 311.468 236.163 311.464 236.073 311.438C235.983 311.413 235.901 311.367 235.832 311.303C235.763 311.24 235.709 311.162 235.676 311.074C235.643 310.987 235.63 310.893 235.64 310.8Z" fill="#43695A"/>
<path d="M181.549 309C181.383 309.333 181.303 309.647 181.309 309.94C181.316 310.28 181.489 310.477 181.829 310.53L193.359 312.21C193.506 312.23 193.573 312.313 193.559 312.46L193.549 312.73C193.543 312.817 193.496 312.86 193.409 312.86C190.669 312.773 187.849 312.66 184.949 312.52C184.789 312.513 184.663 312.573 184.569 312.7C184.503 312.793 184.493 312.91 184.539 313.05C184.606 313.23 184.733 313.35 184.919 313.41C187.089 314.08 189.329 314.23 191.539 314.72C197.826 316.107 204.006 317.56 210.079 319.08C210.739 319.247 211.526 319.39 212.439 319.51C213.506 319.65 214.293 319.817 214.799 320.01C216.573 320.69 216.509 321.043 214.609 321.07C204.703 321.21 195.109 321.187 185.829 321C184.796 320.98 184.646 321.333 185.379 322.06C188.566 325.253 192.033 328.65 195.779 332.25C200.259 336.54 205.059 335.18 210.509 334.56C212.339 334.36 214.929 333.33 217.529 333.72C210.203 337.527 202.616 340.73 194.769 343.33C193.189 343.85 191.739 343.9 190.589 342.52C179.916 329.733 170.179 316.83 161.379 303.81C161.339 303.75 161.349 303.7 161.409 303.66L161.619 303.49C161.826 303.33 162.016 303.347 162.189 303.54C166.236 308.013 171.339 309.843 177.499 309.03C178.873 308.843 180.223 308.833 181.549 309Z" fill="#355649"/>
<path d="M217.531 333.72C214.931 333.33 212.341 334.36 210.511 334.56C205.061 335.18 200.261 336.54 195.781 332.25C192.034 328.65 188.568 325.254 185.381 322.06C184.648 321.334 184.798 320.98 185.831 321C195.111 321.187 204.704 321.21 214.611 321.07C216.511 321.044 216.574 320.69 214.801 320.01C214.294 319.817 213.508 319.65 212.441 319.51C211.528 319.39 210.741 319.247 210.081 319.08C204.008 317.56 197.828 316.107 191.541 314.72C189.331 314.23 187.091 314.08 184.921 313.41C184.734 313.35 184.608 313.23 184.541 313.05C184.494 312.91 184.504 312.794 184.571 312.7C184.664 312.574 184.791 312.514 184.951 312.52C187.851 312.66 190.671 312.773 193.411 312.86C193.498 312.86 193.544 312.817 193.551 312.73L193.561 312.46C193.574 312.314 193.508 312.23 193.361 312.21L181.831 310.53C181.491 310.477 181.318 310.28 181.311 309.94C181.304 309.647 181.384 309.334 181.551 309L231.401 308.27C231.861 308.264 232.164 308.48 232.311 308.92C233.498 312.56 234.574 316.277 235.541 320.07C235.868 321.357 235.664 322.564 234.931 323.69C234.264 324.71 232.511 325.933 229.671 327.36C225.564 329.427 221.518 331.547 217.531 333.72Z" fill="#F2F1DF"/>
<path d="M236.001 315.02C237.921 314.62 239.651 313.82 241.231 312.62C242.144 311.92 243.184 311.463 244.351 311.25C247.444 310.67 250.594 310.003 253.801 309.25C257.911 308.28 261.811 308.99 265.901 309.09C265.964 309.092 266.025 309.117 266.073 309.161C266.12 309.205 266.151 309.265 266.161 309.33L267.691 318.74C267.711 318.886 267.647 318.96 267.501 318.96L237.031 318.94C236.591 318.94 236.351 318.72 236.311 318.28C236.231 317.413 236.004 316.566 235.631 315.74C235.457 315.346 235.581 315.106 236.001 315.02Z" fill="#F2F1DF"/>
<path d="M236.379 312.88C237.153 312.66 237.946 312.41 238.759 312.13C239.399 311.91 239.473 312.026 238.979 312.48C238.013 313.38 236.856 313.816 235.509 313.79C235.403 313.79 235.339 313.736 235.319 313.63L235.239 313.26C235.153 312.826 235.316 312.686 235.729 312.84C235.863 312.886 235.999 312.91 236.139 312.91C236.219 312.91 236.299 312.9 236.379 312.88Z" fill="#355649"/>
<path d="M268.08 321.82L260.31 322.08C260.192 322.083 260.081 322.131 259.998 322.215C259.916 322.299 259.87 322.412 259.87 322.53L259.93 337.45C259.93 337.717 260.063 337.877 260.33 337.93C262.757 338.377 265.183 338.397 267.61 337.99C267.744 337.971 267.867 337.904 267.956 337.802C268.046 337.699 268.097 337.567 268.1 337.43L268.37 325.86L270.59 338.83C270.602 338.897 270.599 338.965 270.581 339.031C270.563 339.096 270.531 339.157 270.487 339.208C270.443 339.26 270.388 339.301 270.327 339.329C270.265 339.357 270.198 339.371 270.13 339.37C261.217 339.263 252.183 339.263 243.03 339.37C242.797 339.37 242.623 339.263 242.51 339.05C242.403 338.837 242.327 338.533 242.28 338.14L246.9 337.89C247.287 337.87 247.48 337.667 247.48 337.28L247.57 322.18C247.57 322.16 247.56 322.147 247.54 322.14C246.76 321.86 244.043 321.877 239.39 322.19C239.366 322.191 239.342 322.197 239.32 322.208C239.298 322.22 239.279 322.236 239.264 322.256C239.249 322.276 239.238 322.299 239.232 322.324C239.226 322.349 239.226 322.375 239.23 322.4C239.737 324.72 239.753 326.997 239.28 329.23C237.933 326.457 237.1 323.717 236.78 321.01C236.769 320.914 236.778 320.816 236.807 320.724C236.836 320.631 236.884 320.546 236.948 320.473C237.012 320.401 237.091 320.342 237.179 320.302C237.267 320.262 237.363 320.241 237.46 320.24L267.26 320.21C267.527 320.21 267.72 320.327 267.84 320.56C267.993 320.853 268.073 321.273 268.08 321.82ZM257.999 322.582C258 322.412 257.933 322.249 257.814 322.129C257.694 322.008 257.532 321.94 257.362 321.939L250.182 321.901C250.098 321.901 250.015 321.917 249.937 321.949C249.859 321.98 249.789 322.027 249.729 322.086C249.669 322.145 249.621 322.216 249.589 322.293C249.556 322.371 249.539 322.454 249.539 322.538L249.461 337.378C249.46 337.547 249.527 337.711 249.646 337.831C249.766 337.952 249.928 338.02 250.098 338.021L257.278 338.059C257.362 338.059 257.445 338.043 257.523 338.011C257.601 337.98 257.672 337.933 257.731 337.874C257.791 337.814 257.839 337.744 257.871 337.667C257.904 337.589 257.921 337.506 257.921 337.422L257.999 322.582Z" fill="#F2F1DF"/>
<path d="M275.64 337.74C276.594 338.047 277.397 338.084 278.05 337.85C278.357 337.737 278.51 337.52 278.51 337.2L278.5 322.76C278.5 322.587 278.437 322.42 278.323 322.29C278.209 322.159 278.052 322.074 277.88 322.05C276.487 321.87 274.99 321.937 273.39 322.25C273.157 321.717 273.067 321.22 273.12 320.76C273.16 320.407 273.36 320.23 273.72 320.23L350.2 320.2C351.373 320.2 352.498 320.662 353.333 321.485C354.168 322.309 354.645 323.428 354.66 324.6C354.707 327.347 354.76 330.07 354.82 332.77C354.91 336.59 353.73 339.2 349.5 339.2C325.2 339.207 300.827 339.247 276.38 339.32C276.027 339.32 275.827 339.147 275.78 338.8L275.64 337.74ZM288.956 322.545C288.957 322.396 288.898 322.254 288.794 322.148C288.689 322.043 288.547 321.984 288.398 321.983L281.038 321.957C280.89 321.957 280.747 322.015 280.642 322.12C280.537 322.225 280.477 322.367 280.477 322.515L280.424 337.495C280.424 337.644 280.482 337.787 280.587 337.892C280.692 337.997 280.834 338.057 280.982 338.057L288.342 338.083C288.491 338.083 288.633 338.025 288.739 337.92C288.844 337.816 288.904 337.673 288.904 337.525L288.956 322.545ZM299.196 322.755C299.196 322.652 299.176 322.551 299.138 322.456C299.099 322.361 299.041 322.275 298.969 322.202C298.897 322.13 298.811 322.072 298.717 322.033C298.622 321.993 298.521 321.972 298.419 321.972L291.639 321.948C291.536 321.948 291.435 321.968 291.34 322.007C291.245 322.046 291.159 322.103 291.086 322.175C291.014 322.247 290.956 322.333 290.916 322.427C290.877 322.522 290.856 322.623 290.856 322.726L290.805 337.346C290.805 337.448 290.824 337.55 290.863 337.644C290.902 337.739 290.959 337.825 291.031 337.898C291.104 337.971 291.189 338.028 291.284 338.068C291.378 338.107 291.48 338.128 291.582 338.128L298.362 338.152C298.464 338.152 298.566 338.133 298.661 338.094C298.756 338.055 298.842 337.998 298.914 337.925C298.987 337.853 299.045 337.768 299.084 337.673C299.124 337.578 299.145 337.477 299.145 337.375L299.196 322.755ZM309.453 322.727C309.453 322.629 309.434 322.531 309.397 322.44C309.359 322.349 309.304 322.266 309.234 322.197C309.165 322.127 309.082 322.072 308.991 322.034C308.9 321.996 308.803 321.976 308.704 321.976L301.944 321.964C301.846 321.964 301.748 321.983 301.657 322.021C301.566 322.058 301.484 322.114 301.414 322.183C301.344 322.253 301.289 322.335 301.251 322.426C301.213 322.517 301.193 322.614 301.193 322.713L301.168 337.393C301.167 337.491 301.187 337.589 301.224 337.68C301.262 337.771 301.317 337.854 301.386 337.924C301.456 337.993 301.538 338.049 301.629 338.087C301.72 338.125 301.818 338.144 301.916 338.144L308.676 338.156C308.775 338.156 308.872 338.137 308.963 338.099C309.054 338.062 309.137 338.007 309.207 337.937C309.277 337.868 309.332 337.785 309.37 337.694C309.408 337.603 309.427 337.506 309.428 337.407L309.453 322.727Z" fill="#F2F1DF"/>
<path d="M268.079 321.82C268.586 323.566 268.682 324.913 268.369 325.86L268.099 337.43C268.096 337.567 268.045 337.699 267.955 337.802C267.866 337.904 267.743 337.971 267.609 337.99C265.182 338.396 262.756 338.376 260.329 337.93C260.062 337.876 259.929 337.716 259.929 337.45L259.869 322.53C259.869 322.412 259.915 322.299 259.997 322.215C260.08 322.131 260.192 322.082 260.309 322.08L268.079 321.82Z" fill="#43695A"/>
<path d="M257.363 321.939L250.183 321.901C249.83 321.899 249.541 322.184 249.54 322.538L249.462 337.378C249.46 337.731 249.745 338.019 250.099 338.021L257.278 338.059C257.632 338.061 257.92 337.775 257.922 337.422L258 322.582C258.001 322.229 257.716 321.941 257.363 321.939Z" fill="#43695A"/>
<path d="M242.279 338.14L239.279 329.23C239.753 326.997 239.736 324.72 239.229 322.4C239.225 322.375 239.226 322.349 239.232 322.324C239.238 322.299 239.248 322.276 239.264 322.256C239.279 322.236 239.298 322.22 239.32 322.208C239.341 322.197 239.365 322.191 239.389 322.19C244.043 321.877 246.759 321.86 247.539 322.14C247.559 322.147 247.569 322.16 247.569 322.18L247.479 337.28C247.479 337.667 247.286 337.87 246.899 337.89L242.279 338.14Z" fill="#43695A"/>
<path d="M275.641 337.74L273.391 322.25C274.991 321.937 276.487 321.87 277.881 322.05C278.052 322.074 278.209 322.159 278.323 322.29C278.437 322.42 278.5 322.587 278.501 322.76L278.511 337.2C278.511 337.52 278.357 337.737 278.051 337.85C277.397 338.084 276.594 338.047 275.641 337.74Z" fill="#43695A"/>
<path d="M288.398 321.983L281.039 321.957C280.729 321.956 280.478 322.206 280.477 322.515L280.424 337.495C280.423 337.804 280.673 338.056 280.982 338.057L288.342 338.083C288.652 338.084 288.903 337.834 288.904 337.525L288.957 322.545C288.958 322.235 288.708 321.984 288.398 321.983Z" fill="#43695A"/>
<path d="M298.417 321.972L291.637 321.948C291.207 321.947 290.856 322.295 290.855 322.725L290.804 337.345C290.802 337.776 291.15 338.126 291.581 338.128L298.361 338.152C298.792 338.153 299.142 337.805 299.144 337.374L299.195 322.754C299.196 322.324 298.848 321.973 298.417 321.972Z" fill="#43695A"/>
<path d="M308.703 321.976L301.943 321.964C301.529 321.963 301.193 322.299 301.192 322.713L301.166 337.393C301.166 337.807 301.501 338.143 301.915 338.144L308.675 338.156C309.089 338.157 309.426 337.821 309.426 337.407L309.452 322.727C309.453 322.313 309.118 321.977 308.703 321.976Z" fill="#43695A"/>
<path d="M237.78 362.54C235.42 357.593 232.88 352.554 230.16 347.42C230.024 347.165 229.947 346.882 229.937 346.592C229.926 346.303 229.982 346.015 230.1 345.75L233.58 337.99C233.754 337.59 234.01 337.53 234.35 337.81L234.62 338.04C234.74 338.14 234.77 338.26 234.71 338.4L231.63 345.65C231.493 345.971 231.431 346.318 231.449 346.665C231.466 347.011 231.562 347.349 231.73 347.65C234.844 353.35 237.68 359.077 240.24 364.83C244.074 373.443 246.177 382.37 246.55 391.61C246.57 392.043 246.367 392.3 245.94 392.38L245.6 392.44C245.3 392.493 245.147 392.367 245.14 392.06C244.867 382.113 242.414 372.273 237.78 362.54Z" fill="#F2F1DF"/>
<path d="M259.729 422.27C254.483 421.797 249.366 421.813 244.379 422.32C244.059 422.353 243.876 422.207 243.829 421.88L243.709 421.05C243.663 420.29 242.603 419.967 240.529 420.08C240.432 420.085 240.334 420.068 240.244 420.03C240.154 419.992 240.075 419.933 240.012 419.859C239.949 419.786 239.904 419.699 239.881 419.605C239.858 419.511 239.857 419.414 239.879 419.32L245.209 396.24C245.325 395.731 245.628 395.282 246.059 394.98C247.966 393.64 249.826 392.183 251.639 390.61C256.099 386.75 254.569 376.16 253.149 371.45C250.076 361.237 246.759 351.107 243.199 341.06C243.179 341.003 243.172 340.941 243.181 340.881C243.19 340.82 243.213 340.762 243.249 340.712C243.286 340.662 243.334 340.621 243.389 340.593C243.445 340.565 243.507 340.55 243.569 340.55L270.409 340.52C270.756 340.52 270.956 340.69 271.009 341.03L281.429 409.47C281.469 409.737 281.359 409.893 281.099 409.94C272.279 411.513 265.156 415.623 259.729 422.27Z" fill="#F2F1DF"/>
<path d="M232.551 395.67C233.791 395.916 234.644 396.626 235.111 397.8C235.231 398.106 235.234 398.416 235.121 398.73C233.814 402.423 232.914 406.376 232.421 410.59C232.416 410.647 232.389 410.701 232.347 410.74C232.304 410.779 232.248 410.8 232.191 410.8L231.831 410.79C231.571 410.783 231.444 410.65 231.451 410.39C231.617 406.383 232.394 402.57 233.781 398.95C233.914 398.598 233.903 398.208 233.749 397.865C233.595 397.522 233.312 397.254 232.961 397.12L231.291 396.49C230.097 396.03 229.951 395.343 230.851 394.43L235.201 390C235.311 389.89 235.392 389.754 235.437 389.606C235.482 389.457 235.491 389.299 235.461 389.145C235.431 388.992 235.365 388.847 235.267 388.725C235.17 388.602 235.044 388.504 234.901 388.44C230.331 386.42 226.341 384.91 223.301 380.62C216.274 370.713 209.364 360.286 202.571 349.34C202.224 348.786 201.964 348.216 201.791 347.63C201.684 347.263 201.474 346.96 201.161 346.72C200.234 346.026 199.631 345.156 199.351 344.11C199.191 343.483 199.401 343.313 199.981 343.6C200.934 344.073 201.501 344.953 201.681 346.24C201.741 346.653 201.921 347.013 202.221 347.32C202.701 347.81 203.331 348.24 203.701 348.83C208.807 357.056 214.107 365.156 219.601 373.13C223.027 378.116 224.971 380.853 225.431 381.34C227.564 383.633 230.477 385.406 234.171 386.66C234.904 386.906 235.584 387.33 236.211 387.93C237.004 388.683 237.071 389.5 236.411 390.38C235.191 392 233.817 393.376 232.291 394.51C232.19 394.585 232.112 394.687 232.068 394.805C232.024 394.923 232.016 395.052 232.043 395.174C232.071 395.297 232.133 395.41 232.223 395.497C232.314 395.585 232.427 395.645 232.551 395.67Z" fill="#F2F1DF"/>
<path d="M202.9 428.08C201.32 433.21 203.78 437.72 206.67 441.88C207.35 442.853 207.776 443.927 207.95 445.1C208.076 445.973 207.733 446.237 206.92 445.89C202.36 443.937 198.836 440.99 196.35 437.05C193.69 432.85 194.4 426.23 191.01 422.78C189.66 421.4 187.7 416.38 190.39 415.09C192.55 414.05 194.63 413.65 196.67 412.19C202.35 408.117 207.95 404.087 213.47 400.1C213.81 399.853 214.086 399.913 214.3 400.28L223.28 416C223.322 416.072 223.348 416.153 223.358 416.236C223.369 416.319 223.362 416.403 223.338 416.483C223.315 416.564 223.276 416.638 223.223 416.703C223.169 416.768 223.104 416.821 223.03 416.86L203.87 426.91C203.639 427.03 203.434 427.196 203.268 427.397C203.101 427.598 202.976 427.83 202.9 428.08Z" fill="#43695A"/>
<path d="M316.11 425.69C315.65 424.696 315.023 423.8 314.23 423C306.89 415.6 297.74 411.963 286.78 412.09C286.668 412.09 286.56 412.046 286.48 411.967C286.399 411.889 286.353 411.782 286.35 411.67L286.34 411.31C286.337 411.214 286.354 411.118 286.389 411.028C286.424 410.938 286.477 410.857 286.544 410.788C286.611 410.719 286.691 410.664 286.78 410.626C286.869 410.589 286.964 410.57 287.06 410.57C298.46 410.603 307.637 414.59 314.59 422.53C315.37 423.416 316.003 424.426 316.49 425.56C316.53 425.66 316.503 425.736 316.41 425.79H316.4C316.267 425.863 316.17 425.83 316.11 425.69Z" fill="#F2F1DF"/>
<path d="M224.62 415.64L223.21 413.51C223.114 413.368 223.066 413.198 223.073 413.026C223.08 412.853 223.142 412.686 223.25 412.55C223.643 412.057 224.13 411.67 224.71 411.39C225.076 411.217 225.253 411.33 225.24 411.73L225.09 415.5C225.063 416.033 224.906 416.08 224.62 415.64Z" fill="#F2F1DF"/>
<path d="M258.321 426.61C263.454 418.177 271.071 413.037 281.171 411.19C281.308 411.165 281.449 411.19 281.57 411.259C281.691 411.329 281.783 411.439 281.831 411.57L281.961 411.95C281.986 412.024 281.996 412.103 281.988 412.181C281.98 412.259 281.955 412.335 281.915 412.403C281.875 412.47 281.821 412.528 281.757 412.573C281.692 412.617 281.618 412.647 281.541 412.66C271.534 414.413 263.934 419.143 258.741 426.85C258.73 426.864 258.717 426.877 258.702 426.886C258.687 426.895 258.671 426.902 258.654 426.905C258.637 426.907 258.62 426.907 258.604 426.902C258.588 426.898 258.573 426.891 258.561 426.88L258.341 426.71C258.301 426.683 258.294 426.65 258.321 426.61Z" fill="#F2F1DF"/>
<path d="M231.41 413.676L231.35 413.67C231.026 413.636 230.736 413.871 230.702 414.195L230.326 417.775C230.292 418.1 230.527 418.39 230.851 418.424L230.91 418.43C231.235 418.464 231.525 418.229 231.559 417.905L231.935 414.325C231.969 414.001 231.734 413.71 231.41 413.676Z" fill="#F2F1DF"/>
<path d="M316.109 430.28C309.396 422.14 300.773 417.79 290.239 417.23C276.979 416.523 266.396 421.336 258.489 431.67C258.416 431.763 258.333 431.776 258.239 431.71C258.199 431.676 258.189 431.636 258.209 431.59C270.319 410.98 303.169 410.2 316.409 430.1C316.456 430.18 316.443 430.246 316.369 430.3V430.31C316.269 430.383 316.183 430.373 316.109 430.28Z" fill="#F2F1DF"/>
<path d="M222.59 419.01C222.53 418.877 222.473 418.743 222.42 418.61L224.3 417.45C224.354 417.416 224.415 417.396 224.479 417.391C224.542 417.386 224.605 417.396 224.664 417.421C224.723 417.445 224.775 417.483 224.816 417.532C224.857 417.58 224.886 417.638 224.9 417.7C225.013 418.14 224.933 418.457 224.66 418.65C224.52 418.75 224.24 418.793 223.82 418.78C223.36 418.767 222.95 418.843 222.59 419.01Z" fill="#355649"/>
<path d="M262.129 429.39C275.659 414.42 300.779 414.97 314.029 429.89C314.323 430.217 314.276 430.487 313.889 430.7L305.899 435.18C305.794 435.24 305.672 435.262 305.552 435.244C305.432 435.226 305.322 435.168 305.239 435.08C295.129 424.12 278.899 423.81 268.849 434.78C268.483 435.18 268.086 435.21 267.659 434.87L262.219 430.5C261.793 430.16 261.763 429.79 262.129 429.39Z" fill="#43695A"/>
<path d="M222.419 418.61C222.473 418.743 222.529 418.877 222.589 419.01L222.209 424.17L213.109 423.54L222.419 418.61Z" fill="#F2F1DF"/>
<path d="M223.57 420.98C223.573 420.834 223.606 420.69 223.667 420.558C223.728 420.425 223.815 420.307 223.922 420.209C224.03 420.112 224.156 420.038 224.293 419.991C224.431 419.945 224.576 419.928 224.72 419.94L241.49 421.3C241.99 421.346 242.193 421.613 242.1 422.1C240.553 430.567 238.946 438.94 237.28 447.22C236.946 448.9 237.376 450.47 238.57 451.93C241.51 455.54 245.6 456.56 249.79 457.96C251.13 458.4 252.136 459.203 252.81 460.37C252.864 460.463 252.894 460.567 252.9 460.675C252.905 460.782 252.884 460.89 252.839 460.989C252.794 461.087 252.726 461.174 252.641 461.242C252.556 461.31 252.456 461.357 252.35 461.38C241.31 463.56 230.263 462.09 219.21 456.97C218.843 456.803 218.723 456.527 218.85 456.14C219.57 454.027 220.513 451.893 221.68 449.74C222.286 448.62 222.623 447.38 222.69 446.02C223.07 437.693 223.363 429.347 223.57 420.98Z" fill="#43695A"/>
<path d="M243.71 421.05L243.83 421.88C243.877 422.206 244.06 422.353 244.38 422.32C249.367 421.813 254.483 421.796 259.73 422.27C255.81 427.84 253.98 433.33 254.1 440.2C254.147 442.706 254.157 445.263 254.13 447.87C254.123 448.296 253.943 448.393 253.59 448.16C249.457 445.426 244.98 443.596 240.16 442.67C240.088 442.657 240.019 442.629 239.958 442.589C239.897 442.549 239.844 442.498 239.804 442.437C239.763 442.377 239.734 442.309 239.72 442.237C239.705 442.165 239.705 442.091 239.72 442.02L243.71 421.05Z" fill="#355649"/>
<path d="M187.999 427.45C189.059 429.157 189.773 430.783 190.139 432.33C190.599 434.257 191.079 436.077 191.579 437.79C191.593 437.839 191.596 437.89 191.588 437.94C191.579 437.99 191.56 438.037 191.531 438.077C191.502 438.118 191.464 438.151 191.42 438.174C191.377 438.197 191.329 438.209 191.279 438.21C178.413 438.423 166.526 439.91 155.619 442.67C151.849 443.62 138.419 447.73 140.029 453.55C141.999 460.72 160.869 464.18 167.049 465.1C186.149 467.947 205.439 468.143 224.919 465.69C226.813 465.45 228.653 465.49 230.439 465.81C236.806 466.95 243.583 466.677 250.769 464.99C253.836 464.27 254.896 462.55 253.949 459.83C253.739 459.24 253.229 458.71 252.919 458.16C252.773 457.9 252.826 457.683 253.079 457.51C256.846 454.95 257.486 452.3 254.999 449.56C254.646 449.167 254.733 448.97 255.259 448.97L320.499 448.98C320.808 448.98 321.105 448.862 321.327 448.649C321.549 448.436 321.679 448.146 321.689 447.84C321.999 438.24 321.979 431.11 316.279 422.54C341.786 423.367 366.856 425.933 391.489 430.24C403.763 432.387 415.119 435.41 425.559 439.31C430.409 441.12 439.979 445.89 441.189 451.44C445.179 469.83 372.809 478.68 361.269 479.94C340.483 482.193 319.116 483.553 297.169 484.02C260.063 484.807 224.649 483.113 190.929 478.94C181.063 477.72 171.129 476.083 161.129 474.03C151.856 472.13 143.236 469.683 135.269 466.69C129.399 464.49 120.829 460.53 118.859 454.18C116.589 446.86 130.769 440.65 135.819 438.76C142.899 436.12 150.159 433.99 157.759 432.35C162.266 431.383 166.679 430.45 170.999 429.55C174.553 428.817 180.219 428.117 187.999 427.45Z" fill="#355649"/>
<path d="M213.11 423.54L222.21 424.17L221.69 438.73C221.677 439.15 221.464 439.333 221.05 439.28C216.15 438.627 211.34 438.29 206.62 438.27C206.24 438.27 205.937 438.113 205.71 437.8C204.29 435.85 202.02 429.32 205.13 427.63C208.117 426.003 210.777 424.64 213.11 423.54Z" fill="#355649"/>
<path d="M268.871 436.58C278.301 425.32 294.931 425.07 304.661 436.32C304.832 436.52 305.068 436.655 305.329 436.7C305.589 436.746 305.859 436.7 306.091 436.57L314.511 431.76C314.735 431.636 314.997 431.599 315.246 431.659C315.494 431.718 315.71 431.868 315.851 432.08C318.864 436.62 320.344 441.61 320.291 447.05C320.291 447.43 320.101 447.62 319.721 447.62L298.231 447.61C298.045 447.611 297.865 447.542 297.727 447.416C297.588 447.291 297.5 447.117 297.481 446.93C296.131 434.06 277.811 433.97 276.311 446.94C276.289 447.124 276.199 447.294 276.059 447.417C275.919 447.541 275.738 447.609 275.551 447.61L255.991 447.63C255.637 447.63 255.457 447.453 255.451 447.1C255.317 441.14 257.014 435.84 260.541 431.2C260.569 431.162 260.605 431.129 260.646 431.105C260.688 431.08 260.733 431.064 260.781 431.058C260.828 431.051 260.877 431.054 260.923 431.067C260.969 431.079 261.013 431.101 261.051 431.13L268.021 436.67C268.146 436.77 268.305 436.816 268.464 436.799C268.623 436.782 268.769 436.704 268.871 436.58Z" fill="#F2F1DF"/>
</svg>
