<svg width="122" height="122" viewBox="0 0 122 122" fill="none" xmlns="http://www.w3.org/2000/svg">
<path fill-rule="evenodd" clip-rule="evenodd" d="M57.6674 12.2863C59.5385 11.0888 61.9351 11.0888 63.8062 12.2863L111.256 42.6545C113.905 44.3496 114.678 47.8711 112.983 50.5198C111.288 53.1685 107.766 53.9415 105.118 52.2463L100.595 49.3518V94.9006C100.595 103.287 93.7968 110.085 85.4109 110.085H36.0626C27.6767 110.085 20.8786 103.287 20.8786 94.9006V49.3518L16.3559 52.2463C13.7072 53.9415 10.1858 53.1685 8.49061 50.5198C6.79544 47.8711 7.56843 44.3496 10.2171 42.6545L57.6674 12.2863ZM42.7057 55.9914C41.1333 55.9914 39.8587 57.2661 39.8587 58.8384C39.8587 60.4108 41.1333 61.6855 42.7057 61.6855H78.7679C80.3402 61.6855 81.6149 60.4108 81.6149 58.8384C81.6149 57.2661 80.3402 55.9914 78.7679 55.9914H42.7057ZM39.8587 70.2265C39.8587 68.6541 41.1333 67.3795 42.7057 67.3795H57.8898C59.4621 67.3795 60.7368 68.6541 60.7368 70.2265C60.7368 71.7989 59.4621 73.0735 57.8898 73.0735H42.7057C41.1333 73.0735 39.8587 71.7989 39.8587 70.2265ZM42.7057 78.7675C41.1333 78.7675 39.8587 80.0422 39.8587 81.6146C39.8587 83.1869 41.1333 84.4616 42.7057 84.4616H65.4818C67.0542 84.4616 68.3288 83.1869 68.3288 81.6146C68.3288 80.0422 67.0542 78.7675 65.4818 78.7675H42.7057Z" fill="#F2F1DF"/>
<path d="M37.4852 48.8737C35.5871 50.7717 33.2146 78.7673 32.2656 92.5279H80.1904L89.6804 66.9048L73.0728 45.0776C62.0011 45.5521 39.3832 46.9756 37.4852 48.8737Z" fill="#F2F1DF"/>
</svg>
