<svg width="150" height="216" viewBox="0 0 150 216" fill="none" xmlns="http://www.w3.org/2000/svg">
<path d="M91.4543 90.4934L90.4469 88.1074C93.2015 86.628 95.6195 85.1429 97.7009 83.6522C99.8339 82.0993 101.676 80.3913 103.227 78.5282C102.087 78.257 101.212 77.7626 100.601 77.0449C100.047 76.3234 99.7365 75.497 99.6714 74.5657C99.6063 73.6344 99.8935 72.5323 100.533 71.2594C101.173 69.9864 101.99 68.8472 102.984 67.8419C104.034 66.8326 105.061 66.2929 106.065 66.2227C106.846 66.1681 107.593 66.4375 108.307 67.031C109.021 67.6244 109.435 68.736 109.549 70.3657C109.793 73.8579 108.603 77.2749 105.979 80.6168C103.911 83.101 101.615 85.1331 99.0918 86.7133C96.6201 88.2313 94.0742 89.4914 91.4543 90.4934ZM106.251 74.8952C106.517 73.8823 106.479 72.9491 106.14 72.0956C105.851 71.1799 105.289 70.7513 104.452 70.8098C104.118 70.8332 103.734 70.9478 103.3 71.1536C102.921 71.3555 102.581 71.701 102.279 72.19C102.32 72.7721 102.695 73.3307 103.405 73.8659C104.171 74.3973 105.12 74.7404 106.251 74.8952Z" fill="#A39771"/>
<path d="M134.525 90.219L135.955 35.2271C136.071 31.8953 136.266 29.1059 136.541 26.8588C136.819 24.5138 137.239 22.3209 137.801 20.2801C138.363 18.2394 139.177 16.0112 140.242 13.5955C141.406 11.1833 142.931 8.24411 144.818 4.77791L147.144 5.595L144.936 59.594C144.598 66.4502 143.496 67.917 142.111 73.8536C140.73 79.6922 138.969 85.1742 136.828 90.2994L134.525 90.219Z" fill="#43695A"/>
<path d="M110.332 101.688C110.431 98.8467 110.905 96.5085 111.754 94.674C112.603 92.8395 113.55 91.0084 114.595 89.1807C115.742 87.2584 116.758 84.8411 117.645 81.9286C118.531 79.0162 119.059 75.1591 119.226 70.3574L120.032 47.2797C120.258 40.8121 120.727 35.8246 121.438 32.3174C122.25 28.7156 123.205 25.2658 124.301 21.9683L127.94 10.4689L131.012 11.0176L128.096 60.8067C127.844 65.213 127.273 68.9214 126.383 71.9318C125.594 74.8477 124.723 77.3192 123.769 79.3463C122.819 81.2753 121.973 83.0119 121.232 84.5558C120.593 86.0052 120.248 87.4648 120.196 88.9348C120.121 91.0906 121.241 92.7486 123.555 93.9087C123.301 95.5677 122.413 97.1066 120.892 98.5251C119.374 99.8457 117.623 100.815 115.639 101.432C113.753 102.053 111.984 102.139 110.332 101.688Z" fill="#43695A"/>
<path d="M77.6331 132.039C75.7712 131.974 73.825 131.513 71.7945 130.657C69.862 129.805 68.146 128.372 66.6465 126.357L71.06 117.975C72.2929 119.196 73.6847 120.078 75.2355 120.623C76.8809 121.269 78.5365 121.621 80.2024 121.679C84.0242 121.813 87.6386 120.86 91.0457 118.82C94.5508 116.784 97.6913 113.95 100.467 110.319C102.219 107.927 103.955 105.977 105.675 104.467C107.396 102.957 108.949 102.03 110.335 101.686C111.565 100.159 113.582 98.6109 116.384 97.0408C119.186 95.4707 121.577 94.4259 123.557 93.9064C127.608 95.912 130.284 97.9677 131.584 100.073C132.985 102.085 133.641 104.364 133.552 106.912C133.487 108.774 132.882 110.666 131.735 112.588C130.592 114.413 129.257 116.132 127.729 117.747C126.302 119.267 125.029 120.596 123.91 121.734C120.937 119.766 118.338 118.351 116.111 117.488C113.888 116.527 111.993 116.02 110.425 115.965C108.563 115.9 106.638 116.225 104.651 116.941C102.765 117.562 100.555 119.054 98.0192 121.419C94.4696 124.729 91.14 127.359 88.0303 129.311C84.9206 131.263 81.4549 132.172 77.6331 132.039Z" fill="#43695A"/>
<path d="M40.6668 146.593C40.9107 145.228 41.4218 143.235 42.2002 140.613C42.9785 137.991 43.9039 135.374 44.9762 132.763C46.0452 130.249 47.1425 128.325 48.2684 126.991L48.5624 127.001C50.2283 127.059 51.8047 126.869 53.2918 126.43C54.8768 125.995 56.3199 125.408 57.6212 124.668C58.6217 124.115 59.6239 123.512 60.6278 122.86C61.6317 122.208 62.5376 121.553 63.3455 120.895C62.3257 119.191 61.3008 117.635 60.2708 116.225C59.2442 114.717 58.0586 113.548 56.7141 112.716C55.7547 112.094 54.5417 111.708 53.0752 111.559C51.7067 111.413 50.0796 111.65 48.1937 112.271L46.8316 109.133C50.1852 105.816 54.0168 102.859 58.3263 100.263C62.6393 97.568 67.5887 96.3182 73.1743 96.5132C77.9761 96.6809 81.3209 97.8279 83.209 99.9542C85.1984 101.986 86.1401 104.521 86.034 107.559C85.9416 110.204 84.8031 113.304 82.6187 116.858C80.4376 120.314 77.4321 123.496 73.6023 126.404L69.6335 126.265C67.6929 128.454 65.4497 130.878 62.9041 133.536C60.4564 136.198 57.823 138.559 55.0039 140.619C52.685 142.402 50.3291 143.84 47.9361 144.934C45.5398 146.126 43.2147 146.682 40.9608 146.604L40.6668 146.593Z" fill="#43695A"/>
<path d="M10.6666 143.781C9.73459 142.375 9.07321 140.242 8.68248 137.383C8.29174 134.524 8.34541 131.583 8.84347 128.559C9.91799 128.694 10.8945 128.826 11.773 128.955C12.7461 129.185 13.7227 129.318 14.7026 129.352C21.0722 129.574 25.939 127.88 29.3028 124.269C30.5724 118.819 32.8606 113.699 36.1676 108.909L38.357 109.427C37.2903 114.688 37.7311 118.922 39.6795 122.13C41.6279 125.337 44.5129 127.008 48.3347 127.141L48.6287 127.152C48.82 130.102 48.5231 132.986 47.7379 135.804C46.9527 138.622 45.9379 140.99 44.6935 142.909C43.4457 144.926 42.2236 146.207 41.0271 146.754L40.7332 146.744C37.3033 146.624 34.6427 145.55 32.7513 143.522C30.8564 141.592 29.5666 139.192 28.8819 136.323C26.424 139.278 23.5524 141.435 20.2673 142.792C16.9821 144.149 13.7819 144.478 10.6666 143.781Z" fill="#43695A"/>
<path d="M32.1447 175.486C31.6237 175.468 30.9576 175.338 30.1464 175.095C27.864 174.303 26.0778 173.172 24.7878 171.703C23.5004 170.162 22.8827 168.644 22.9349 167.15C22.9771 165.94 23.3505 164.849 24.0552 163.877C24.7598 162.904 25.3838 162.106 25.9271 161.484L30.1213 156.608L30.7911 156.632C31.3194 158.574 32.4568 160.145 34.2033 161.346C36.0242 162.549 37.8588 163.361 39.707 163.782L47.5222 154.438L48.1921 154.461C48.7229 156.332 49.7896 157.794 51.3922 158.847C52.9948 159.9 54.7202 160.637 56.5684 161.058C57.8237 161.387 58.4352 162.014 58.4029 162.939C58.383 163.508 58.1002 164.139 57.5543 164.833L51.8231 172.112C51.1235 172.943 50.3271 173.343 49.434 173.311C48.913 173.293 48.2469 173.163 47.4357 172.921C45.6718 172.218 44.1362 171.381 42.8288 170.409C41.5239 169.366 40.5527 168.371 39.9152 167.422L34.5338 174.287C33.8342 175.117 33.0378 175.517 32.1447 175.486Z" fill="#A39771"/>
<path d="M92.1757 173.658C91.9545 173.65 91.7056 173.642 91.4291 173.632C91.1547 173.562 90.8803 173.493 90.6058 173.423C88.2507 172.68 86.5187 171.538 85.4096 169.998C84.3006 168.457 83.7691 167.027 83.8152 165.707C83.8571 164.507 84.1703 163.467 84.7548 162.586C85.3393 161.706 85.8632 160.973 86.3266 160.389L89.8052 155.915L90.22 155.929C91.0462 157.64 92.0499 159.027 93.231 160.089C94.4674 161.153 96.0461 161.929 97.9671 162.417C99.067 162.636 99.6033 163.135 99.576 163.915C99.5593 164.395 99.2894 164.986 98.7665 165.689L94.1246 172.555C93.776 173.023 93.4603 173.342 93.1775 173.513C92.9521 173.625 92.6182 173.673 92.1757 173.658Z" fill="#A39771"/>
<path d="M134.538 89.7784C149.915 239.449 8.47466 215.868 10.9728 144.332L8.58046 128.55C-33.5037 210.894 165.563 294.538 144.521 56.7683L134.538 89.7784Z" fill="#43695A"/>
<path d="M65.4223 149.176L64.7948 148.413C65.6067 147.016 66.3255 145.945 66.9511 145.199C67.6331 144.4 68.7487 143.671 70.2979 143.013L86.1535 136.164L86.781 136.926L85.7351 138.781C84.9795 140.126 84.2636 141.115 83.5874 141.749C82.913 142.329 81.9402 142.871 80.669 143.375L65.4223 149.176Z" fill="#A39771"/>
</svg>
