<svg width="99" height="143" viewBox="0 0 99 143" fill="none" xmlns="http://www.w3.org/2000/svg">
<path d="M62.7609 50.0106L62.4243 48.9023C63.7185 48.3732 64.8633 47.8258 65.8586 47.2601C66.8798 46.6692 67.7788 45.9957 68.5557 45.2396C68.0614 45.0658 67.6953 44.805 67.4573 44.4573C67.2443 44.1104 67.1451 43.7284 67.1597 43.3112C67.1742 42.894 67.3535 42.4173 67.6974 41.8811C68.0413 41.3449 68.4579 40.8765 68.9471 40.4758C69.4614 40.0761 69.9433 39.8841 70.3931 39.8998C70.7428 39.912 71.0626 40.0667 71.3524 40.364C71.6422 40.6613 71.7743 41.175 71.7488 41.9051C71.6942 43.4696 71.0052 44.9336 69.6819 46.2971C68.6461 47.3052 67.5302 48.1017 66.3341 48.6864C65.1639 49.246 63.9728 49.6874 62.7609 50.0106ZM70.0705 43.7653C70.2358 43.3273 70.2629 42.9105 70.1516 42.515C70.0663 42.0944 69.8362 41.8775 69.4615 41.8644C69.3116 41.8592 69.1353 41.8922 68.9327 41.9634C68.7551 42.0355 68.5877 42.1733 68.4305 42.3766C68.4214 42.6374 68.5622 42.9034 68.8529 43.1746C69.1686 43.4467 69.5744 43.6436 70.0705 43.7653Z" fill="#FDF8E8"/>
<path d="M88.6386 59.6392L89.5838 23.2868C89.6607 21.0843 89.79 19.2403 89.9715 17.7549C90.1554 16.2048 90.433 14.7552 90.8044 13.4061C91.1758 12.0571 91.7137 10.5841 92.418 8.98724C93.1872 7.39265 94.1954 5.44969 95.4429 3.15836L96.9806 3.69849L95.5207 39.3945C95.2976 43.9268 94.5691 44.8965 93.6538 48.8209C92.7407 52.6805 91.5764 56.3043 90.1609 59.6924L88.6386 59.6392Z" fill="#FDF8E8"/>
<path d="M72.6463 67.2212C72.7119 65.3426 73.0253 63.7969 73.5865 62.5842C74.1477 61.3715 74.7737 60.1611 75.4645 58.9529C76.2223 57.6822 76.8943 56.0842 77.4804 54.1589C78.0665 52.2336 78.4149 49.6839 78.5258 46.5097L79.0585 31.2542C79.2078 26.9788 79.5175 23.6819 79.9876 21.3634C80.5248 18.9824 81.1557 16.702 81.8804 14.5221L84.2862 6.92042L86.3166 7.28318L84.3889 40.1962C84.2223 43.109 83.8449 45.5605 83.2565 47.5505C82.7352 49.4781 82.1593 51.1118 81.5288 52.4518C80.9005 53.7271 80.3416 54.875 79.8519 55.8956C79.4293 56.8537 79.201 57.8186 79.1671 58.7903C79.1173 60.2155 79.8574 61.3115 81.3872 62.0783C81.2192 63.175 80.6323 64.1923 79.6267 65.13C78.6234 66.003 77.466 66.6436 76.1546 67.0518C74.9079 67.4623 73.7385 67.5187 72.6463 67.2212Z" fill="#FDF8E8"/>
<path d="M51.0312 87.2845C49.8003 87.2415 48.5138 86.9371 47.1715 86.3714C45.8941 85.8079 44.7597 84.8603 43.7685 83.5285L46.686 77.9877C47.501 78.7945 48.4211 79.3779 49.4462 79.738C50.5339 80.1651 51.6284 80.3979 52.7296 80.4364C55.256 80.5246 57.6453 79.8946 59.8976 78.5464C62.2146 77.2004 64.2906 75.3271 66.1256 72.9266C67.2834 71.3456 68.431 70.0561 69.5685 69.0581C70.7059 68.0601 71.7326 67.4473 72.6486 67.2199C73.4621 66.2106 74.795 65.187 76.6473 64.1491C78.4996 63.1111 80.0803 62.4205 81.3894 62.077C84.0672 63.4029 85.8358 64.7618 86.6952 66.1538C87.6216 67.4833 88.0554 68.9902 87.9966 70.6745C87.9536 71.9053 87.5532 73.156 86.7954 74.4267C86.0399 75.6326 85.157 76.7693 84.1469 77.8366C83.2038 78.8414 82.3624 79.72 81.6226 80.4725C79.6575 79.1715 77.939 78.2359 76.4672 77.6657C74.9976 77.0306 73.7446 76.695 72.7081 76.6588C71.4773 76.6158 70.2051 76.8309 68.8914 77.3038C67.6448 77.7143 66.1834 78.701 64.5074 80.2639C62.1609 82.452 59.9599 84.1912 57.9042 85.4814C55.8486 86.7717 53.5575 87.3727 51.0312 87.2845Z" fill="#FDF8E8"/>
<path d="M26.5946 96.9055C26.7558 96.0031 27.0937 94.6854 27.6082 92.9522C28.1227 91.219 28.7344 89.4891 29.4433 87.7627C30.1499 86.1011 30.8753 84.8293 31.6196 83.9472L31.8139 83.954C32.9151 83.9925 33.9573 83.8667 34.9403 83.5768C35.988 83.2891 36.942 82.9008 37.8023 82.412C38.4636 82.0459 39.1261 81.6475 39.7898 81.2166C40.4534 80.7858 41.0522 80.3527 41.5863 79.9174C40.9122 78.7912 40.2347 77.7623 39.5538 76.8305C38.8751 75.8339 38.0914 75.0607 37.2026 74.5108C36.5684 74.0995 35.7666 73.8445 34.7971 73.7458C33.8925 73.6493 32.8169 73.8063 31.5702 74.2168L30.6698 72.1423C32.8867 69.9497 35.4195 67.9951 38.2684 66.2786C41.1195 64.4972 44.3912 63.6711 48.0836 63.8C51.2578 63.9108 53.469 64.6691 54.717 66.0747C56.0322 67.4178 56.6547 69.0934 56.5845 71.1015C56.5235 72.8506 55.7709 74.8998 54.3268 77.2491C52.885 79.5336 50.8983 81.637 48.3665 83.5592L45.743 83.4676C44.4601 84.9145 42.9773 86.5166 41.2945 88.2739C39.6764 90.0334 37.9356 91.5941 36.072 92.9559C34.5391 94.1346 32.9818 95.0856 31.3999 95.8086C29.8158 96.5964 28.2788 96.9643 26.7889 96.9123L26.5946 96.9055Z" fill="#FDF8E8"/>
<path d="M6.76227 95.0463C6.14615 94.1168 5.70894 92.7071 5.45064 90.8172C5.19235 88.9273 5.22783 86.9828 5.55707 84.9837C6.26738 85.0733 6.91291 85.1607 7.49366 85.2459C8.13693 85.3981 8.78246 85.4855 9.43025 85.5081C13.6409 85.6551 16.858 84.5352 19.0817 82.1482C19.921 78.5454 21.4336 75.1608 23.6197 71.9942L25.067 72.3366C24.3618 75.8143 24.6532 78.6134 25.9412 80.7339C27.2292 82.8543 29.1364 83.9586 31.6628 84.0468L31.8571 84.0536C31.9836 86.0038 31.7873 87.9103 31.2682 89.773C30.7492 91.6358 30.0783 93.2014 29.2558 94.4698C28.4309 95.803 27.623 96.6504 26.8321 97.0119L26.6377 97.0051C24.3705 96.926 22.6117 96.216 21.3613 94.8751C20.1087 93.5991 19.2561 92.0127 18.8035 90.116C17.1787 92.0699 15.2804 93.4954 13.1088 94.3924C10.9371 95.2894 8.82163 95.5074 6.76227 95.0463Z" fill="#FDF8E8"/>
<path d="M20.9608 116.005C20.6164 115.993 20.1761 115.907 19.6398 115.747C18.131 115.223 16.9503 114.475 16.0976 113.504C15.2465 112.485 14.8382 111.482 14.8727 110.494C14.9006 109.695 15.1474 108.973 15.6132 108.33C16.079 107.687 16.4915 107.16 16.8507 106.749L19.6232 103.526L20.066 103.541C20.4153 104.825 21.1671 105.864 22.3217 106.657C23.5254 107.453 24.7381 107.99 25.9599 108.268L31.1261 102.091L31.5689 102.106C31.9198 103.343 32.625 104.309 33.6844 105.006C34.7437 105.702 35.8843 106.189 37.1061 106.467C37.9359 106.685 38.3401 107.099 38.3188 107.71C38.3057 108.087 38.1187 108.504 37.7579 108.962L33.9692 113.775C33.5067 114.324 32.9803 114.588 32.3899 114.567C32.0455 114.555 31.6052 114.469 31.0689 114.309C29.9029 113.845 28.8878 113.291 28.0236 112.649C27.161 111.959 26.5189 111.301 26.0975 110.674L22.5401 115.212C22.0776 115.761 21.5512 116.025 20.9608 116.005Z" fill="#FDF8E8"/>
<path d="M60.6438 114.797C60.4975 114.792 60.333 114.786 60.1502 114.78C59.9688 114.734 59.7874 114.688 59.606 114.642C58.0492 114.15 56.9042 113.396 56.171 112.377C55.4379 111.359 55.0866 110.414 55.1171 109.541C55.1448 108.748 55.3518 108.06 55.7382 107.478C56.1245 106.896 56.4709 106.412 56.7772 106.025L59.0767 103.068L59.3509 103.077C59.8971 104.208 60.5606 105.125 61.3414 105.827C62.1587 106.531 63.2023 107.044 64.4722 107.366C65.1992 107.511 65.5537 107.841 65.5357 108.356C65.5247 108.673 65.3463 109.064 65.0006 109.529L61.9321 114.068C61.7017 114.377 61.493 114.588 61.306 114.701C61.157 114.775 60.9363 114.807 60.6438 114.797Z" fill="#FDF8E8"/>
<path d="M88.6481 59.3477C98.8132 158.287 5.314 142.699 6.96536 95.4102L5.38394 84.9777C-22.4358 139.411 109.157 194.704 95.2476 37.5264L88.6481 59.3477Z" fill="#FDF8E8"/>
<path d="M42.9589 98.6125L42.5441 98.1086C43.0808 97.1849 43.556 96.4766 43.9695 95.9835C44.4204 95.4556 45.1578 94.9738 46.1819 94.5384L56.6633 90.0109L57.0781 90.5147L56.3867 91.7412C55.8872 92.6299 55.414 93.284 54.967 93.7033C54.5212 94.0865 53.8781 94.4447 53.0377 94.7778L42.9589 98.6125Z" fill="#FDF8E8"/>
</svg>
