<svg width="365" height="74" viewBox="0 0 365 74" fill="none" xmlns="http://www.w3.org/2000/svg">
<path d="M269.098 28.9591C269.149 27.7468 269.265 26.715 269.446 25.8637C269.652 25.0125 269.884 24.3031 270.142 23.7356L270.994 19.0538C271.355 17.1191 272.013 15.6488 272.967 14.6428C273.921 13.6368 275.031 13.1338 276.295 13.1338C277.172 13.1338 277.829 13.353 278.268 13.7916C278.706 14.2301 278.926 14.6815 278.926 15.1458C278.926 15.4296 278.874 15.7133 278.771 15.9971C278.668 16.255 278.513 16.4485 278.307 16.5775C277.868 16.2679 277.442 16.0486 277.03 15.9197C276.617 15.7907 276.217 15.7262 275.83 15.7262C274.902 15.7262 274.089 16.0486 273.393 16.6935C272.722 17.3126 272.387 18.0478 272.387 18.899C272.387 19.7761 272.709 20.4467 273.354 20.911C274.025 21.3754 274.721 21.6075 275.443 21.6075C276.346 21.6075 277.081 21.2335 277.649 20.4854C278.216 19.7116 278.668 18.77 279.003 17.6608L279.661 17.8156C279.454 19.157 279.042 20.4596 278.423 21.7236C277.829 22.9876 277.107 24.1354 276.256 25.1673C275.301 26.3022 274.205 27.218 272.967 27.9144C271.755 28.6109 270.491 28.9591 269.175 28.9591H269.098Z" fill="#FEFEFE"/>
<path d="M260.894 30.8554C260.378 30.8554 259.888 30.6619 259.424 30.275C259.424 29.5011 259.514 28.8562 259.695 28.3403C259.901 27.8244 260.146 27.3214 260.43 26.8313C260.61 26.9861 260.804 27.1151 261.01 27.2182C261.217 27.3472 261.475 27.4117 261.784 27.4117C262.584 27.4117 263.345 27.0248 264.067 26.2509C264.815 25.4771 265.189 24.2647 265.189 22.6138L265.228 15.9199C265.254 14.398 265.279 13.1857 265.305 12.2828C265.331 11.3542 265.383 10.6061 265.46 10.0386C265.563 9.47114 265.692 8.92944 265.847 8.41354L267.162 3.96387L267.82 4.07995L267.395 16.7712C267.369 17.4419 267.356 18.1641 267.356 18.938C267.382 19.7118 267.485 20.447 267.665 21.1435C267.872 21.8399 268.22 22.4203 268.71 22.8846C269.2 23.3232 269.91 23.5424 270.838 23.5424H270.916C270.993 24.2389 270.941 24.9483 270.761 25.6705C270.606 26.3928 270.374 27.0377 270.064 27.6052C269.781 28.1727 269.458 28.5596 269.097 28.766H269.02C268.375 28.766 267.807 28.5338 267.317 28.0695C266.827 27.631 266.414 27.0635 266.079 26.367C265.563 27.8631 264.789 28.9852 263.757 29.7333C262.751 30.4813 261.797 30.8554 260.894 30.8554Z" fill="#FEFEFE"/>
<path d="M252.357 35.6663C252.357 35.4858 252.409 35.1633 252.512 34.699C252.641 34.2347 252.796 33.7188 252.977 33.1513C253.157 32.5838 253.351 32.0421 253.557 31.5262C253.763 31.0361 253.97 30.6749 254.176 30.4428H254.253C255.285 30.4428 256.291 30.0946 257.271 29.3981C258.277 28.6758 259.142 27.8117 259.864 26.8057H260.444C260.522 27.5279 260.406 28.2631 260.096 29.0112C259.503 30.2235 258.793 31.3327 257.968 32.3387C257.168 33.3705 256.291 34.1831 255.337 34.7764C254.382 35.3697 253.415 35.6663 252.435 35.6663H252.357Z" fill="#FEFEFE"/>
<path d="M256.824 45.4038C256.643 45.4038 256.411 45.3651 256.128 45.2878C255.328 45.0298 254.696 44.6429 254.232 44.127C253.767 43.5853 253.535 43.0436 253.535 42.5019C253.535 42.0634 253.651 41.6635 253.883 41.3024C254.116 40.9413 254.322 40.6446 254.502 40.4125L255.895 38.5939H256.128C256.334 39.2904 256.747 39.845 257.366 40.2577C258.011 40.6704 258.656 40.9413 259.3 41.0702L261.893 37.5879H262.125C262.331 38.2586 262.718 38.7745 263.286 39.1356C263.853 39.4967 264.459 39.7418 265.104 39.8708C265.543 39.9739 265.762 40.1932 265.762 40.5285C265.762 40.7349 265.672 40.9671 265.491 41.225L263.595 43.9335C263.363 44.2431 263.092 44.3978 262.783 44.3978C262.602 44.3978 262.37 44.3591 262.086 44.2817C261.467 44.0496 260.925 43.7658 260.461 43.4305C259.997 43.0694 259.649 42.7211 259.416 42.3858L257.637 44.9395C257.404 45.2491 257.134 45.4038 256.824 45.4038Z" fill="#FEFEFE"/>
<path d="M244.327 34.9434C244.069 34.5822 243.875 34.0276 243.746 33.2796C243.617 32.5315 243.604 31.7577 243.707 30.958C243.991 30.9838 244.249 31.0096 244.481 31.0354C244.739 31.087 244.997 31.1128 245.255 31.1128C246.932 31.1128 248.196 30.6227 249.047 29.6425C249.331 28.1979 249.885 26.8308 250.711 25.541L251.291 25.6571C251.059 27.05 251.214 28.1592 251.756 28.9847C252.297 29.8101 253.071 30.2228 254.077 30.2228H254.155C254.232 30.9967 254.18 31.7577 254 32.5057C253.819 33.2538 253.574 33.8858 253.265 34.4017C252.955 34.9434 252.645 35.2916 252.336 35.4464H252.259C251.356 35.4464 250.646 35.1884 250.13 34.6725C249.615 34.1824 249.253 33.5633 249.047 32.8153C248.428 33.6149 247.693 34.2082 246.842 34.5951C245.99 34.9821 245.152 35.0981 244.327 34.9434Z" fill="#FEFEFE"/>
<path d="M248.851 57.2701C248.671 57.2701 248.439 57.2314 248.155 57.154C247.355 56.896 246.723 56.5091 246.259 55.9932C245.795 55.4515 245.562 54.9098 245.562 54.3681C245.562 53.9296 245.679 53.5297 245.911 53.1686C246.143 52.8075 246.349 52.5108 246.53 52.2787L247.923 50.4601H248.155C248.361 51.1566 248.774 51.7112 249.393 52.1239C250.038 52.5366 250.683 52.8075 251.328 52.9365L253.92 49.4541H254.152C254.359 50.1248 254.746 50.6407 255.313 51.0018C255.881 51.3629 256.487 51.608 257.132 51.737C257.57 51.8402 257.789 52.0594 257.789 52.3948C257.789 52.6011 257.699 52.8333 257.519 53.0912L255.623 55.7997C255.39 56.1093 255.12 56.264 254.81 56.264C254.63 56.264 254.397 56.2253 254.114 56.148C253.495 55.9158 252.953 55.6321 252.489 55.2967C252.024 54.9356 251.676 54.5873 251.444 54.252L249.664 56.8057C249.432 57.1153 249.161 57.2701 248.851 57.2701Z" fill="#FEFEFE"/>
<path d="M227.512 60.9199C225.604 60.9199 224.017 60.4427 222.753 59.4883C221.489 58.5597 220.548 57.2957 219.929 55.6964C219.31 54.1229 219 52.3817 219 50.4729C219 47.945 219.387 45.4299 220.161 42.9278C220.935 40.3999 221.825 37.9235 222.831 35.4988L224.069 35.847C223.321 37.9622 222.65 39.9355 222.057 41.767C221.463 43.5985 221.167 45.5202 221.167 47.5322C221.167 49.7506 221.85 51.5563 223.218 52.9492C224.61 54.3422 226.571 55.0386 229.099 55.0386C230.801 55.0386 232.452 54.7162 234.052 54.0713C235.651 53.4264 237.095 52.4591 238.385 51.1694C239.701 49.8796 240.745 48.2803 241.519 46.3714C242.087 45.0043 242.461 43.4566 242.641 41.7283C242.822 39.9742 242.912 38.246 242.912 36.5435C242.912 35.5633 242.873 34.8023 242.796 34.2606C242.744 33.6931 242.719 33.2546 242.719 32.945C242.719 32.5065 242.809 32.1196 242.99 31.7843C243.17 31.4489 243.402 31.2812 243.686 31.2812C243.867 31.5392 244.086 31.939 244.344 32.4807C244.602 32.9966 244.731 33.7318 244.731 34.6862C244.731 37.0852 244.602 39.2907 244.344 41.3027C244.112 43.2889 243.699 45.172 243.106 46.9518C242.512 48.7317 241.674 50.5116 240.591 52.2914C239.662 53.8392 238.54 55.2579 237.224 56.5477C235.909 57.8632 234.438 58.9208 232.813 59.7205C231.188 60.5201 229.421 60.9199 227.512 60.9199Z" fill="#FEFEFE"/>
<path d="M233.462 42.6697C233.358 42.6697 233.242 42.6697 233.113 42.6697C232.984 42.6439 232.855 42.6181 232.726 42.5923C231.617 42.3086 230.792 41.8443 230.25 41.1994C229.708 40.5545 229.438 39.9483 229.438 39.3808C229.438 38.8649 229.566 38.4135 229.824 38.0266C230.082 37.6397 230.315 37.3172 230.521 37.0593L232.069 35.0859H232.262C232.675 35.8082 233.165 36.3886 233.732 36.8271C234.326 37.2656 235.074 37.5752 235.977 37.7557C236.492 37.8331 236.75 38.0395 236.75 38.3748C236.75 38.5812 236.634 38.8391 236.402 39.1487L234.351 42.1667C234.197 42.3731 234.055 42.515 233.926 42.5923C233.823 42.6439 233.668 42.6697 233.462 42.6697Z" fill="#FEFEFE"/>
<path d="M257.19 20.4722C256.833 20.4722 256.566 20.333 256.388 20.0546C256.226 19.7762 256.145 19.4322 256.145 19.0228C256.145 18.5151 256.226 18.0319 256.388 17.5733C256.55 17.1148 256.687 16.7626 256.801 16.517L257.311 16.7135C257.198 16.9919 257.101 17.2458 257.02 17.4751C256.955 17.7044 256.922 17.9255 256.922 18.1384C256.922 18.5151 257.085 18.7444 257.409 18.8263C257.749 18.8918 258.065 18.8017 258.357 18.556L258.162 16.9346L258.503 16.3204H258.964L258.867 18.4823C259.045 18.6461 259.256 18.7116 259.499 18.6789C259.759 18.6461 259.961 18.5478 260.107 18.3841L259.864 16.8118L260.277 15.8291H260.593C260.642 16.173 260.682 16.5088 260.715 16.8363C260.763 17.1475 260.788 17.4178 260.788 17.647C260.788 18.4496 260.617 19.0801 260.277 19.5387C259.953 19.9809 259.605 20.202 259.232 20.202C258.875 20.202 258.6 20.0546 258.405 19.7598C258.276 19.9236 258.106 20.0874 257.895 20.2511C257.7 20.3985 257.465 20.4722 257.19 20.4722Z" fill="#FEFEFE"/>
<path d="M256.348 24.5999L256.145 24.3775C256.382 23.9491 256.593 23.6196 256.78 23.3889C256.983 23.1418 257.322 22.9111 257.796 22.6969L262.648 20.4727L262.851 20.6951L262.546 21.2635C262.326 21.6754 262.115 21.9802 261.911 22.1779C261.708 22.3592 261.412 22.5322 261.022 22.6969L256.348 24.5999Z" fill="#FEFEFE"/>
<path d="M296.443 27.648V12.6918C296.443 11.7854 296.47 11.0256 296.523 10.4124C296.577 9.77259 296.67 9.17274 296.803 8.61289C296.937 8.05303 297.137 7.43985 297.403 6.77336C297.696 6.10686 298.083 5.29374 298.563 4.33398L299.203 4.53394L299.003 17.8905C298.976 19.7567 298.803 21.5029 298.483 23.1292C298.163 24.7288 297.736 26.235 297.203 27.648H296.443Z" fill="#FEFEFE"/>
<path d="M296.072 31.173C295.628 31.173 295.264 30.9223 294.982 30.4209L295.145 29.9605C295.275 30.0116 295.433 30.0372 295.617 30.0372C296.072 30.0372 296.42 29.9195 296.658 29.6842C296.886 29.4488 297.092 29.1674 297.276 28.84C297.417 28.5842 297.569 28.3591 297.732 28.1647C297.905 27.9703 298.15 27.873 298.464 27.873C298.703 27.873 298.882 27.9549 299.001 28.1186C299.12 28.2721 299.18 28.4512 299.18 28.6558C299.18 28.7684 299.158 28.8861 299.115 29.0088C299.071 29.1316 299.006 29.2493 298.92 29.3619L298.594 29.4386C298.551 29.3772 298.491 29.3158 298.415 29.2544C298.339 29.2033 298.242 29.1777 298.122 29.1777C297.916 29.1777 297.754 29.2595 297.634 29.4233C297.515 29.587 297.417 29.7507 297.341 29.9144C297.255 30.1088 297.157 30.3032 297.049 30.4977C296.951 30.6921 296.826 30.8507 296.674 30.9735C296.523 31.1065 296.322 31.173 296.072 31.173Z" fill="#FEFEFE"/>
<path d="M291.815 29.7546C291.255 29.7279 290.828 29.4747 290.535 28.9948C290.855 28.2217 291.095 27.4885 291.255 26.7954C291.442 26.0756 291.562 25.1958 291.615 24.156C291.695 23.1163 291.735 21.73 291.735 19.9971V14.2786C291.735 12.8923 291.748 11.7192 291.775 10.7595C291.801 9.79973 291.948 8.93329 292.215 8.16015L293.534 4.20117L294.374 4.32114L294.054 19.0773C294.028 21.1835 293.761 23.143 293.254 24.9558C292.748 26.742 292.268 28.3416 291.815 29.7546Z" fill="#FEFEFE"/>
<path d="M284.779 56.7611C282.619 56.7611 280.873 56.2679 279.54 55.2815C278.234 54.3217 277.274 53.0021 276.661 51.3225C276.075 49.6696 275.781 47.8034 275.781 45.7239C275.781 43.8578 275.955 41.8983 276.301 39.8455C276.648 37.766 277.114 35.6999 277.701 33.647C278.287 31.5676 278.954 29.6081 279.7 27.7686L280.98 28.1685C280.073 30.8078 279.3 33.2871 278.661 35.6065C278.021 37.8993 277.701 40.2454 277.701 42.6447C277.701 44.1377 277.994 45.4973 278.581 46.7237C279.194 47.95 280.087 48.9098 281.26 49.6029C282.46 50.3228 283.926 50.6827 285.659 50.6827C287.098 50.6827 288.431 50.4427 289.658 49.9629C290.884 49.483 291.977 48.8565 292.937 48.0833C293.923 47.3369 294.75 46.5371 295.416 45.684C296.109 44.8308 296.629 44.0044 296.976 43.2046C297.349 42.4048 297.536 41.7516 297.536 41.2451C297.536 40.7119 297.429 40.2587 297.216 39.8854C297.002 39.5122 296.776 39.2723 296.536 39.1656C295.683 39.3789 294.936 39.4855 294.296 39.4855C292.83 39.4855 291.671 39.0057 290.817 38.0459C289.964 37.0595 289.538 35.6199 289.538 33.727C289.538 32.9539 289.631 32.1941 289.818 31.4476C290.004 30.7011 290.244 29.968 290.537 29.2482C291.204 29.2482 291.631 29.5014 291.817 30.008C291.71 30.3279 291.657 30.6878 291.657 31.0877C291.657 32.554 292.31 33.2871 293.617 33.2871C294.257 33.2871 295.03 33.1272 295.936 32.8073C296.656 32.8073 297.349 33.3138 298.016 34.3269C298.709 35.3399 299.055 36.8329 299.055 38.8057C299.055 40.7519 298.695 42.6981 297.976 44.6442C297.282 46.6171 296.376 48.4566 295.256 50.1628C293.95 52.0823 292.404 53.6552 290.617 54.8816C288.858 56.1346 286.912 56.7611 284.779 56.7611Z" fill="#FEFEFE"/>
<path d="M336.269 19.7067L336.031 19.0126C336.839 18.6491 337.551 18.2772 338.169 17.8972C338.802 17.5005 339.356 17.0543 339.832 16.5586C339.515 16.4594 339.277 16.3024 339.119 16.0876C338.976 15.8727 338.905 15.6331 338.905 15.3687C338.905 15.1043 339.008 14.7985 339.214 14.4515C339.42 14.1045 339.673 13.7987 339.974 13.5343C340.291 13.2699 340.592 13.1377 340.877 13.1377C341.098 13.1377 341.304 13.2286 341.494 13.4104C341.684 13.5922 341.779 13.9144 341.779 14.3771C341.779 15.3687 341.375 16.3107 340.568 17.2031C339.934 17.8641 339.246 18.3929 338.501 18.7895C337.773 19.1696 337.029 19.4754 336.269 19.7067ZM340.758 15.5918C340.853 15.3108 340.861 15.0464 340.782 14.7985C340.718 14.5341 340.568 14.4019 340.33 14.4019C340.235 14.4019 340.124 14.4267 339.998 14.4763C339.887 14.5259 339.784 14.6168 339.689 14.749C339.689 14.9142 339.784 15.0795 339.974 15.2447C340.18 15.41 340.441 15.5257 340.758 15.5918Z" fill="#FEFEFE"/>
<path d="M355.016 39.3466C354.448 39.2176 353.958 39.0241 353.545 38.7662C353.132 38.5082 352.862 38.1987 352.733 37.8376C353.61 37.0637 354.448 36.4059 355.248 35.8642C356.073 35.3225 357.028 34.7937 358.111 34.2778C359.349 33.6845 360.407 33.1557 361.284 32.6914C362.187 32.2271 362.87 31.7112 363.334 31.1437C363.334 30.473 363.025 29.8926 362.406 29.4025C361.813 28.8866 361.155 28.6287 360.433 28.6287C359.684 28.6287 358.962 28.8479 358.266 29.2864C357.569 29.6992 356.911 30.2538 356.292 30.9502C355.673 31.6467 355.106 32.3948 354.59 33.1944C354.074 33.9683 353.623 34.7292 353.236 35.4773L352.346 35.0904C352.758 34.3423 353.158 33.6329 353.545 32.9623C353.932 32.2916 354.306 31.6725 354.667 31.105C354.693 30.4085 354.706 29.6734 354.706 28.8995C354.732 28.0999 354.745 27.2228 354.745 26.2684V20.5419C354.745 19.6648 354.77 18.9297 354.822 18.3364C354.874 17.7173 354.977 17.1369 355.132 16.5952C355.286 16.0535 355.493 15.4602 355.751 14.8153C356.034 14.1705 356.408 13.3837 356.873 12.4551L357.492 12.6485C357.466 13.3192 357.44 14.106 357.414 15.0088C357.389 15.8858 357.363 16.8661 357.337 17.9495L357.26 23.1343C357.26 23.9597 357.195 24.7981 357.066 25.6493C356.963 26.4748 356.821 27.2615 356.641 28.0096C358.214 25.946 359.813 24.9142 361.439 24.9142C362.393 24.9142 363.218 25.2753 363.915 25.9976C364.637 26.7198 364.998 27.5711 364.998 28.5513C364.998 29.4799 364.727 30.5246 364.186 31.6854C363.67 32.8462 362.948 33.8909 362.019 34.8195C361.374 35.4644 360.678 36.019 359.929 36.4833C359.181 36.9476 358.395 37.399 357.569 37.8376C357.157 38.0955 356.731 38.3406 356.292 38.5727C355.88 38.8049 355.454 39.0628 355.016 39.3466Z" fill="#FEFEFE"/>
<path d="M337.116 57.6738L337 57.016C338.238 56.3711 339.373 55.5973 340.405 54.6945C341.437 53.8174 342.301 52.992 342.997 52.2181C343.694 51.4443 344.158 50.9155 344.39 50.6317C345.113 49.7289 345.835 48.6842 346.557 47.4976C347.279 46.2852 347.989 45.0728 348.685 43.8605C349.407 42.6223 350.104 41.5002 350.775 40.4942C351.471 39.4624 352.129 38.6627 352.748 38.0952C353.135 37.9663 353.548 38.0952 353.986 38.4822C354.45 38.8691 354.799 39.2431 355.031 39.6043C354.205 40.146 353.496 40.7264 352.903 41.3454C352.309 41.9645 351.742 42.6739 351.2 43.4735C350.659 44.2732 350.078 45.2018 349.459 46.2594C348.866 47.2912 348.144 48.4907 347.292 49.8579C346.957 50.3996 346.493 51.0573 345.899 51.8312C345.306 52.6308 344.571 53.4305 343.694 54.2301C342.843 55.0556 341.875 55.7779 340.792 56.3969C339.683 57.016 338.457 57.4416 337.116 57.6738Z" fill="#FEFEFE"/>
<path d="M348.733 12.2097L348.424 11.8615C348.785 11.1908 349.107 10.6749 349.391 10.3138C349.701 9.92687 350.217 9.56574 350.939 9.2304L358.329 5.74805L358.639 6.09628L358.174 6.98622C357.839 7.6311 357.517 8.10831 357.207 8.41785C356.898 8.7016 356.446 8.97245 355.853 9.2304L348.733 12.2097Z" fill="#FEFEFE"/>
<path d="M346.153 56.5769L345.844 56.2287C346.205 55.558 346.527 55.0421 346.811 54.681C347.121 54.2941 347.637 53.9329 348.359 53.5976L355.749 50.1152L356.059 50.4635L355.594 51.3534C355.259 51.9983 354.937 52.4755 354.627 52.785C354.317 53.0688 353.866 53.3396 353.273 53.5976L346.153 56.5769Z" fill="#FEFEFE"/>
<path d="M339.164 40.7699C337.875 40.7699 336.75 40.4159 335.789 39.708L338.747 37.5462C339.152 37.8749 339.683 38.0393 340.34 38.0393C341.023 38.0393 341.756 37.8876 342.54 37.5841C343.349 37.2807 344.107 36.8888 344.815 36.4085C345.195 36.1303 345.422 35.8901 345.498 35.6879C345.599 35.4856 345.65 35.1822 345.65 34.7776C345.65 34.2214 345.624 33.6272 345.574 32.9951C345.549 32.363 345.536 31.6425 345.536 30.8334C345.536 30.1507 345.675 29.3416 345.953 28.4061C346.231 27.4706 346.775 26.4593 347.584 25.3721L348.229 25.5996V30.0369C348.229 31.4275 348.153 32.5021 348.001 33.2606C347.849 33.9938 347.647 34.6133 347.394 35.119C347.091 35.7511 346.775 36.3073 346.446 36.7877C346.117 37.2428 345.789 37.6347 345.46 37.9634C344.626 38.7978 343.64 39.4678 342.502 39.9735C341.389 40.5044 340.277 40.7699 339.164 40.7699Z" fill="#FEFEFE"/>
<path d="M344.557 43.6741C344.454 43.7019 344.315 43.7167 344.141 43.7187C343.646 43.7027 343.228 43.5916 342.887 43.3853C342.543 43.1651 342.332 42.9093 342.253 42.6178C342.19 42.3819 342.199 42.1489 342.28 41.9189C342.361 41.6889 342.437 41.4976 342.507 41.3449L343.043 40.1524L343.176 40.1167C343.395 40.4598 343.711 40.6948 344.126 40.8218C344.555 40.9448 344.964 40.9915 345.352 40.9619L346.336 38.6898L346.469 38.6541C346.684 38.9833 346.981 39.2015 347.358 39.3086C347.735 39.4158 348.118 39.4545 348.506 39.4249C348.773 39.413 348.93 39.4973 348.978 39.6778C349.008 39.7888 348.99 39.9276 348.924 40.0942L348.227 41.8428C348.139 42.045 348.006 42.1699 347.828 42.2175C347.725 42.2452 347.586 42.2601 347.412 42.262C347.024 42.2322 346.672 42.1627 346.358 42.0536C346.04 41.9306 345.79 41.7967 345.608 41.6519L344.956 43.2995C344.868 43.5017 344.735 43.6266 344.557 43.6741Z" fill="#FEFEFE"/>
<path d="M331.381 44.6627C331.431 44.1823 331.558 43.5881 331.76 42.8802C331.962 42.1722 332.19 41.5022 332.443 40.8701C332.721 40.238 332.961 39.7955 333.163 39.5427H333.239C333.694 39.5427 334.149 39.5048 334.605 39.4289C334.225 39.075 333.96 38.6957 333.808 38.2912C333.656 37.8866 333.581 37.4441 333.581 36.9638C333.581 36.3064 333.77 35.5226 334.149 34.6124C334.529 33.7021 335.034 32.8172 335.666 31.9576C336.299 31.0726 336.981 30.3394 337.714 29.7579C338.473 29.1511 339.231 28.8477 339.99 28.8477C340.976 28.8477 341.684 29.1384 342.114 29.7199C342.569 30.2762 342.809 30.9968 342.834 31.8817C342.86 32.5138 342.759 33.2091 342.531 33.9676C342.329 34.7009 342.025 35.4214 341.621 36.1294C341.166 36.9385 340.609 37.6717 339.952 38.3291C338.486 40.4529 336.981 42.0332 335.439 43.0698C333.897 44.1317 332.569 44.6627 331.457 44.6627H331.381ZM335.249 35.1054C335.325 35.5605 335.616 36.0788 336.122 36.6603C336.653 37.2419 337.487 37.5959 338.625 37.7223C339.105 37.4189 339.548 37.0649 339.952 36.6603C340.357 36.2558 340.647 35.8766 340.824 35.5226C340.824 35.2445 340.761 34.9031 340.635 34.4986C340.534 34.094 340.331 33.7274 340.028 33.3987C339.75 33.0701 339.333 32.8931 338.776 32.8678C338.17 32.8172 337.5 32.9816 336.766 33.3608C336.058 33.7401 335.553 34.3216 335.249 35.1054Z" fill="#FEFEFE"/>
<path d="M335.996 27.0975C335.863 27.0975 335.691 27.0691 335.482 27.0122C334.891 26.8225 334.424 26.5379 334.081 26.1585C333.738 25.7601 333.566 25.3618 333.566 24.9634C333.566 24.6409 333.652 24.3469 333.824 24.0813C333.995 23.8157 334.148 23.5976 334.281 23.4268L335.31 22.0894H335.482C335.634 22.6016 335.939 23.0095 336.396 23.313C336.873 23.6165 337.349 23.8157 337.825 23.9106L339.74 21.3496H339.912C340.064 21.8428 340.35 22.2222 340.769 22.4878C341.189 22.7534 341.637 22.9336 342.113 23.0285C342.437 23.1043 342.599 23.2656 342.599 23.5122C342.599 23.664 342.532 23.8347 342.399 24.0244L340.998 26.0162C340.827 26.2439 340.627 26.3577 340.398 26.3577C340.265 26.3577 340.093 26.3292 339.883 26.2723C339.426 26.1016 339.026 25.8929 338.683 25.6463C338.34 25.3807 338.083 25.1246 337.911 24.878L336.596 26.7561C336.425 26.9837 336.225 27.0975 335.996 27.0975Z" fill="#FEFEFE"/>
<path d="M311.194 45.2074C308.741 45.2074 306.82 44.7523 305.429 43.8421C304.064 42.9066 303.381 41.2758 303.381 38.9497C303.381 38.1659 303.469 37.2178 303.646 36.1053C303.823 34.9928 303.975 33.9309 304.102 32.9195H305.277C305.151 33.9814 305.1 34.8664 305.126 35.5743C305.176 36.257 305.404 36.8764 305.808 37.4327C306.339 38.1406 307.148 38.6589 308.235 38.9876C309.348 39.291 310.675 39.4427 312.218 39.4427C313.558 39.4427 312.377 39.3669 313.995 39.2152C315.613 39.0382 317.219 38.7601 318.812 38.3808C320.405 38.0016 321.833 37.4959 323.097 36.8638C324.362 36.2317 325.31 35.4479 325.942 34.5124C326.599 33.5516 326.991 32.6287 327.118 31.7438C327.269 30.8589 327.37 30.0624 327.421 29.3545L327.952 23.0968C328.078 21.7567 328.281 20.6569 328.559 19.7972C328.862 18.9123 329.153 18.1917 329.431 17.6355C330.013 16.4977 330.834 15.4737 331.896 14.5635C332.983 13.6533 334.108 12.7936 335.272 11.9845L352.414 0L352.945 0.379257L351.731 2.73065C351.301 3.56502 350.783 4.27296 350.176 4.85449C349.595 5.41074 348.798 6.04283 347.787 6.75078L330.265 18.9249L329.431 31.668C329.33 33.1344 329.342 34.4871 329.469 35.726C329.595 36.9396 329.924 37.9131 330.455 38.6463C331.011 39.3795 331.884 39.7461 333.072 39.7461H333.148C333.224 40.176 333.198 40.7449 333.072 41.4528C332.971 42.1355 332.768 42.8055 332.465 43.4629C332.187 44.095 331.82 44.5627 331.365 44.8661H331.289C330.379 44.8661 329.633 44.588 329.052 44.0317C328.495 43.4502 328.078 42.717 327.8 41.8321C327.522 40.9471 327.345 40.0116 327.269 39.0256C327.193 38.0395 327.168 37.1166 327.193 36.257L325.411 39.1773C324.804 40.1886 323.869 41.0735 322.604 41.8321C321.365 42.5653 319.95 43.1847 318.357 43.6904C316.764 44.1961 315.108 44.5753 313.388 44.8282C311.694 45.081 312.736 45.2074 311.194 45.2074Z" fill="#FEFEFE"/>
<path d="M195.984 40.7275C196.002 41.3027 195.882 42.0913 195.622 43.0933C195.362 44.0952 195.038 44.6426 194.648 44.7354C194.37 44.7354 193.618 44.5312 192.394 44.123C191.169 43.7148 190.399 43.251 190.083 42.7314C190.028 42.6387 190 42.3696 190 41.9243C190 41.479 190.167 40.7183 190.501 39.6421C190.835 38.5659 191.141 38.0186 191.419 38C191.698 38 192.523 38.3711 193.896 39.1133C195.27 39.8555 195.965 40.3936 195.984 40.7275Z" fill="white"/>
<path d="M186.312 40.7275C186.331 41.3027 186.21 42.0913 185.95 43.0933C185.69 44.0952 185.366 44.6426 184.976 44.7354C184.698 44.7354 183.946 44.5312 182.722 44.123C181.497 43.7148 180.727 43.251 180.412 42.7314C180.356 42.6387 180.328 42.3696 180.328 41.9243C180.328 41.479 180.495 40.7183 180.829 39.6421C181.163 38.5659 181.469 38.0186 181.748 38C182.026 38 182.852 38.3711 184.225 39.1133C185.598 39.8555 186.293 40.3936 186.312 40.7275Z" fill="white"/>
<path d="M176.984 40.7275C177.002 41.3027 176.882 42.0913 176.622 43.0933C176.362 44.0952 176.038 44.6426 175.648 44.7354C175.37 44.7354 174.618 44.5312 173.394 44.123C172.169 43.7148 171.399 43.251 171.083 42.7314C171.028 42.6387 171 42.3696 171 41.9243C171 41.479 171.167 40.7183 171.501 39.6421C171.835 38.5659 172.141 38.0186 172.419 38C172.698 38 173.523 38.3711 174.896 39.1133C176.27 39.8555 176.965 40.3936 176.984 40.7275Z" fill="white"/>
<path d="M85.4361 36.7726C84.8614 36.7726 84.3918 36.4291 84.0273 35.7423L84.2376 35.1115C84.4058 35.1816 84.6091 35.2166 84.8474 35.2166C85.4361 35.2166 85.8847 35.0554 86.193 34.733C86.4874 34.4106 86.7537 34.0252 86.992 33.5766C87.1743 33.2262 87.3705 32.9178 87.5808 32.6515C87.805 32.3851 88.1204 32.252 88.5269 32.252C88.8353 32.252 89.0666 32.3641 89.2208 32.5884C89.375 32.7986 89.4521 33.0439 89.4521 33.3243C89.4521 33.4785 89.4241 33.6397 89.368 33.8079C89.3119 33.9761 89.2278 34.1373 89.1157 34.2915L88.6952 34.3966C88.6391 34.3125 88.562 34.2284 88.4639 34.1443C88.3657 34.0742 88.2396 34.0392 88.0854 34.0392C87.8191 34.0392 87.6088 34.1513 87.4546 34.3756C87.3004 34.5999 87.1743 34.8242 87.0761 35.0484C86.964 35.3148 86.8378 35.5811 86.6977 35.8474C86.5715 36.1138 86.4103 36.331 86.2141 36.4992C86.0178 36.6815 85.7585 36.7726 85.4361 36.7726Z" fill="#FEFEFE"/>
<path d="M81.1766 34.0986C80.5815 34.0703 80.1281 33.8011 79.8164 33.291C80.1565 32.4693 80.4115 31.69 80.5815 30.9532C80.7799 30.1881 80.9074 29.253 80.9641 28.1478C81.0491 27.0427 81.0916 25.5692 81.0916 23.7273V17.6489C81.0916 16.1754 81.1057 14.9286 81.1341 13.9084C81.1624 12.8883 81.3183 11.9673 81.6016 11.1456L83.0043 6.9375L83.897 7.06502L83.5569 22.7496C83.5286 24.9883 83.2452 27.071 82.7068 28.998C82.1684 30.8965 81.6583 32.5968 81.1766 34.0986Z" fill="#FEFEFE"/>
<path d="M73.6985 62.8049C71.4032 62.8049 69.5472 62.2807 68.1303 61.2322C66.7418 60.2121 65.7216 58.8094 65.0699 57.0241C64.4465 55.2672 64.1348 53.2836 64.1348 51.0733C64.1348 49.0897 64.319 47.007 64.6873 44.825C65.0557 42.6147 65.5516 40.4186 66.175 38.2366C66.7985 36.0263 67.5069 33.9435 68.3003 31.9883L69.6605 32.4133C68.697 35.2187 67.8753 37.8541 67.1952 40.3194C66.5151 42.7564 66.175 45.2501 66.175 47.8004C66.175 49.3873 66.4867 50.8325 67.1102 52.136C67.7619 53.4395 68.7112 54.4596 69.958 55.1964C71.2332 55.9615 72.7918 56.3441 74.6337 56.3441C76.1639 56.3441 77.5807 56.089 78.8842 55.5789C80.1878 55.0689 81.3496 54.403 82.3697 53.5812C83.4182 52.7877 84.2966 51.9376 85.0051 51.0308C85.7418 50.1241 86.2944 49.2456 86.6628 48.3955C87.0595 47.5454 87.2579 46.8511 87.2579 46.3127C87.2579 45.746 87.1445 45.2642 86.9178 44.8675C86.6911 44.4708 86.4503 44.2158 86.1952 44.1024C85.2884 44.3291 84.495 44.4425 83.8149 44.4425C82.2564 44.4425 81.0237 43.9324 80.1169 42.9122C79.2101 41.8638 78.7567 40.3336 78.7567 38.3216C78.7567 37.4999 78.8559 36.6922 79.0543 35.8988C79.2526 35.1054 79.5077 34.3261 79.8194 33.561C80.5278 33.561 80.9812 33.8302 81.1796 34.3686C81.0662 34.7086 81.0095 35.0912 81.0095 35.5163C81.0095 37.0748 81.7038 37.8541 83.0923 37.8541C83.7724 37.8541 84.5942 37.684 85.5576 37.344C86.3227 37.344 87.0595 37.8824 87.7679 38.9592C88.5047 40.036 88.8731 41.6229 88.8731 43.7199C88.8731 45.7885 88.4905 47.8571 87.7254 49.9257C86.9887 52.0226 86.0252 53.9779 84.835 55.7915C83.4465 57.8317 81.803 59.5036 79.9044 60.8072C78.0341 62.139 75.9655 62.8049 73.6985 62.8049Z" fill="#FEFEFE"/>
<path d="M85.834 31.7183V15.8212C85.834 14.8577 85.8623 14.0501 85.919 13.3984C85.9757 12.7183 86.0748 12.0807 86.2165 11.4856C86.3582 10.8905 86.5707 10.2388 86.8541 9.53035C87.1658 8.82192 87.5767 7.95764 88.0868 6.9375L88.7669 7.15003L88.5543 21.3469C88.526 23.3305 88.3418 25.1866 88.0018 26.9152C87.6617 28.6154 87.2083 30.2165 86.6416 31.7183H85.834Z" fill="#FEFEFE"/>
<path d="M77.4527 27.6802L77.2078 27.7511C76.9429 27.4232 76.7488 27.1493 76.6254 26.9294C76.4945 26.6912 76.4212 26.3587 76.4058 25.9319L76.2216 21.5538L76.4665 21.4829L76.8213 21.9107C77.0785 22.2202 77.2529 22.4853 77.3443 22.7059C77.4225 22.9207 77.4635 23.2014 77.4672 23.5479L77.4527 27.6802Z" fill="#FEFEFE"/>
<path d="M134.504 35.0277C134.306 34.8578 134.207 34.6171 134.207 34.3056C134.207 33.0313 134.504 31.7711 135.099 30.5252C135.722 29.2792 136.543 28.0898 137.563 26.9571C138.582 25.8244 139.729 24.7908 141.003 23.8563C142.278 22.9218 143.58 22.1147 144.911 21.4351C146.554 20.5855 147.899 19.8917 148.947 19.3537C150.023 18.7873 150.929 18.3201 151.665 17.952C152.401 17.5555 153.067 17.1732 153.662 16.8051C154.285 16.4369 154.964 16.0263 155.7 15.5732L156.168 15.9131C155.771 16.706 155.205 17.5838 154.469 18.5466C153.761 19.4811 153.039 20.3165 152.302 21.0528C151.566 21.789 150.943 22.2846 150.433 22.5395C149.329 23.0492 148.097 23.6297 146.738 24.281C145.378 24.9323 144.048 25.612 142.745 26.3199C141.471 26.9996 140.38 27.6934 139.474 28.4013C138.313 29.2792 137.449 30.1853 136.883 31.1198C136.345 32.026 135.949 32.8472 135.694 33.5835L134.504 35.0277Z" fill="#FEFEFE"/>
<path d="M150.389 32.2325C150.235 32.2325 150.037 32.2016 149.795 32.1397C149.115 31.9335 148.576 31.6243 148.181 31.2119C147.786 30.7789 147.588 30.346 147.588 29.913C147.588 29.5625 147.687 29.2429 147.884 28.9543C148.082 28.6656 148.258 28.4285 148.412 28.243L149.598 26.7894H149.795C149.971 27.3461 150.323 27.7894 150.85 28.1193C151.399 28.4492 151.948 28.6656 152.497 28.7687L154.705 25.9854H154.903C155.078 26.5214 155.408 26.9338 155.891 27.2224C156.374 27.5111 156.89 27.7069 157.44 27.81C157.813 27.8925 158 28.0677 158 28.3358C158 28.5007 157.923 28.6863 157.769 28.8924L156.155 31.0573C155.957 31.3047 155.726 31.4284 155.463 31.4284C155.309 31.4284 155.111 31.3975 154.87 31.3356C154.342 31.1501 153.881 30.9233 153.486 30.6552C153.09 30.3666 152.794 30.0883 152.596 29.8202L151.08 31.8614C150.883 32.1088 150.652 32.2325 150.389 32.2325Z" fill="#FEFEFE"/>
<path d="M132.03 44.8739C131.039 44.8739 130.161 44.5341 129.396 43.8545C129.566 43.3164 129.708 42.8917 129.821 42.5802C129.935 42.2687 130.062 41.943 130.204 41.6032C130.345 41.2634 130.543 40.8103 130.798 40.2439C131.138 40.782 131.733 41.051 132.582 41.051C133.545 41.051 134.635 40.782 135.853 40.2439C137.099 39.7342 138.175 39.1678 139.081 38.5448C139.874 38.0068 140.639 37.4263 141.375 36.8033C142.111 36.1803 142.805 35.5006 143.456 34.7644C141.672 34.7927 139.945 34.8493 138.274 34.9343C136.632 34.9909 135.372 35.1042 134.494 35.2741C134.494 35.0192 134.579 34.6228 134.749 34.0847C134.918 33.5184 135.202 33.0087 135.598 32.5556C136.023 32.1025 136.603 31.8759 137.34 31.8759C138.557 31.8759 140.087 31.8618 141.927 31.8335C143.768 31.7768 145.566 31.6494 147.322 31.4512L147.577 31.9609C146.869 33.3485 145.835 34.821 144.476 36.3785C143.145 37.9077 141.701 39.3094 140.143 40.5837C138.557 41.8864 137.085 42.92 135.726 43.6846C134.366 44.4775 133.134 44.8739 132.03 44.8739Z" fill="#FEFEFE"/>
<path d="M121.928 49.7038C121.928 49.5056 121.984 49.1516 122.098 48.6419C122.239 48.1321 122.409 47.5658 122.607 46.9428C122.806 46.3198 123.018 45.7251 123.245 45.1588C123.471 44.6207 123.698 44.2243 123.924 43.9694H124.009C125.142 43.9694 126.246 43.5871 127.322 42.8225C128.427 42.0296 129.375 41.081 130.168 39.9766H130.805C130.89 40.7695 130.763 41.5765 130.423 42.3978C129.772 43.7287 128.993 44.9464 128.087 46.0508C127.209 47.1835 126.246 48.0755 125.198 48.7268C124.151 49.3781 123.089 49.7038 122.013 49.7038H121.928Z" fill="#FEFEFE"/>
<path d="M124.075 35.3555C123.937 35.3555 123.759 35.3246 123.542 35.2628C122.929 35.0566 122.444 34.7473 122.088 34.335C121.733 33.902 121.555 33.469 121.555 33.0361C121.555 32.6856 121.644 32.366 121.822 32.0773C121.999 31.7887 122.158 31.5516 122.296 31.366L123.364 29.9125H123.542C123.7 30.4692 124.016 30.9124 124.49 31.2423C124.985 31.5722 125.479 31.7887 125.973 31.8918L127.96 29.1084H128.138C128.296 29.6445 128.593 30.0568 129.028 30.3455C129.462 30.6341 129.927 30.83 130.421 30.9331C130.757 31.0155 130.925 31.1908 130.925 31.4588C130.925 31.6237 130.856 31.8093 130.718 32.0155L129.265 34.1803C129.087 34.4277 128.879 34.5514 128.642 34.5514C128.504 34.5514 128.326 34.5205 128.108 34.4587C127.634 34.2731 127.219 34.0463 126.863 33.7783C126.507 33.4896 126.24 33.2113 126.062 32.9433L124.698 34.9844C124.52 35.2318 124.313 35.3555 124.075 35.3555Z" fill="#FEFEFE"/>
<path d="M121.938 49.9321H121.853C120.635 49.9321 119.686 49.4082 119.007 48.3605C118.327 47.2844 117.874 45.7411 117.647 43.7305C117.478 42.2296 117.393 40.5589 117.393 38.7182C117.421 36.8775 117.478 34.9377 117.562 32.8988C117.647 31.2564 117.704 29.9538 117.732 28.991C117.789 28.0281 117.86 27.2352 117.945 26.6122C118.03 25.9609 118.171 25.3096 118.37 24.6583L119.814 19.7734L120.536 19.9009L120.069 36.7642C120.04 38.2085 120.083 39.4969 120.196 40.6297C120.338 41.7341 120.677 42.6119 121.216 43.2632C121.782 43.8862 122.66 44.1977 123.849 44.1977H123.934C124.019 44.7641 123.991 45.4437 123.849 46.2366C123.707 47.0012 123.481 47.7375 123.169 48.4454C122.858 49.1251 122.447 49.6206 121.938 49.9321Z" fill="#FEFEFE"/>
<path d="M112.506 53.0577C112.411 53.0577 112.304 53.0577 112.186 53.0577C112.091 53.0349 111.985 53.0122 111.867 52.9894C110.92 52.7391 110.21 52.3636 109.737 51.8629C109.287 51.3394 109.062 50.8387 109.062 50.3608C109.062 49.9512 109.169 49.587 109.382 49.2684C109.619 48.9271 109.82 48.654 109.985 48.4491L111.299 46.8105H111.476C111.831 47.4023 112.257 47.8802 112.754 48.2443C113.251 48.6084 113.89 48.8702 114.671 49.0295C115.097 49.0977 115.31 49.2684 115.31 49.5415C115.31 49.7008 115.215 49.9057 115.026 50.156L113.251 52.648C113.133 52.8073 113.014 52.9211 112.896 52.9894C112.801 53.0349 112.671 53.0577 112.506 53.0577Z" fill="#FEFEFE"/>
<path d="M98.795 50.9758C97.9116 50.9758 97.1228 50.8342 96.4287 50.5509C95.7661 50.2677 95.1193 49.591 94.4883 48.521L95.3875 46.9159C97.1859 47.0418 98.9686 46.8058 100.735 46.2078C102.502 45.6098 104.159 44.7286 105.705 43.5642C107.282 42.3683 108.623 40.9678 109.728 39.3627C109.065 39.0165 108.402 38.6074 107.74 38.1353C107.077 37.6632 106.383 37.2541 105.657 36.9079C104.932 36.5303 104.174 36.3414 103.386 36.3414C102.755 36.3414 102.203 36.4988 101.729 36.8135C101.288 37.0968 100.609 37.7577 99.6942 38.7962L98.6057 37.9937C99.5207 36.3257 100.341 35.0826 101.067 34.2643C101.824 33.446 102.534 32.911 103.196 32.6592C103.859 32.376 104.522 32.2344 105.184 32.2344C106.004 32.2344 106.777 32.4232 107.503 32.8009C108.229 33.1471 108.939 33.5562 109.633 34.0283C110.327 34.5003 111.021 34.9252 111.715 35.3029C112.441 35.6491 113.167 35.8221 113.892 35.8221C114.713 35.8221 115.596 35.5074 116.543 34.878L117.394 35.8221L115.454 38.0409C114.823 38.7648 114.208 39.2683 113.608 39.5515C113.009 39.8033 112.362 39.9292 111.668 39.9292H111.621C110.422 42.2581 109.081 44.2566 107.598 45.9246C106.115 47.5611 104.6 48.8042 103.054 49.654C101.54 50.5352 100.12 50.9758 98.795 50.9758Z" fill="#FEFEFE"/>
<path d="M100.101 31.1162L99.877 30.543C100.639 30.2427 101.312 29.9357 101.894 29.6218C102.492 29.2943 103.015 28.9258 103.464 28.5164C103.165 28.4345 102.941 28.3048 102.791 28.1274C102.657 27.95 102.589 27.7521 102.589 27.5338C102.589 27.3154 102.686 27.0629 102.881 26.7764C103.075 26.4898 103.314 26.2373 103.598 26.0189C103.897 25.8006 104.181 25.6914 104.45 25.6914C104.659 25.6914 104.853 25.7665 105.033 25.9166C105.212 26.0667 105.302 26.3328 105.302 26.7149C105.302 27.5338 104.921 28.3117 104.158 29.0486C103.561 29.5945 102.911 30.0312 102.208 30.3587C101.521 30.6726 100.818 30.9251 100.101 31.1162ZM104.338 27.718C104.427 27.486 104.435 27.2677 104.36 27.0629C104.3 26.8446 104.158 26.7354 103.934 26.7354C103.845 26.7354 103.74 26.7559 103.62 26.7968C103.516 26.8378 103.419 26.9128 103.329 27.022C103.329 27.1585 103.419 27.2949 103.598 27.4314C103.792 27.5679 104.039 27.6634 104.338 27.718Z" fill="#FEFEFE"/>
<path d="M141.794 15.7467L141.465 15.3569C141.848 14.6061 142.191 14.0287 142.492 13.6244C142.821 13.1913 143.369 12.7871 144.136 12.4117L151.986 8.51367L152.314 8.90347L151.821 9.89964C151.465 10.6215 151.123 11.1557 150.794 11.5022C150.465 11.8198 149.986 12.123 149.355 12.4117L141.794 15.7467Z" fill="#FEFEFE"/>
<path d="M123.136 28.353L122.891 28.4239C122.627 28.096 122.432 27.8222 122.309 27.6023C122.178 27.364 122.105 27.0315 122.089 26.6048L121.905 22.2266L122.15 22.1557L122.505 22.5836C122.762 22.8931 122.936 23.1581 123.028 23.3788C123.106 23.5936 123.147 23.8742 123.151 24.2208L123.136 28.353Z" fill="#FEFEFE"/>
<path d="M63.0957 29.7636V13.8775C63.0957 12.9147 63.124 12.1077 63.1807 11.4564C63.2373 10.7768 63.3364 10.1396 63.478 9.54496C63.6196 8.95029 63.832 8.29898 64.1151 7.59105C64.4266 6.88311 64.8372 6.01943 65.3469 5L66.0266 5.21238L65.8142 19.3994C65.7859 21.3817 65.6018 23.2365 65.262 24.9638C64.9222 26.6629 64.4691 28.2628 63.9027 29.7636H63.0957Z" fill="#FEFEFE"/>
<path d="M56.2812 31.6204C56.2812 30.7992 56.3945 30.1196 56.6211 29.5815C56.8476 29.0435 57.1025 28.5055 57.3856 27.9674C57.6971 27.4011 57.9661 26.6931 58.1927 25.8436C58.4192 24.9941 58.5325 23.8756 58.5325 22.488V15.8192C58.5325 13.9503 58.6174 12.5061 58.7873 11.4867C58.9856 10.4389 59.2263 9.43365 59.5094 8.47085L60.4439 5.11523L61.3359 5.24266L60.9961 19.6421C60.9678 20.9164 60.8404 21.9925 60.6138 22.8703C60.4156 23.7198 60.1891 24.4419 59.9342 25.0366C59.6794 25.6029 59.4528 26.1126 59.2546 26.5657C59.0847 26.9905 58.9997 27.4152 58.9997 27.84C58.9997 28.463 59.3395 28.9302 60.0192 29.2417C59.9625 29.7231 59.7218 30.1762 59.2971 30.601C58.8723 30.9974 58.3768 31.2947 57.8104 31.493C57.2724 31.6912 56.7626 31.7337 56.2812 31.6204Z" fill="#FEFEFE"/>
<path d="M47.1462 40.7166C46.6081 40.7166 46.0418 40.6034 45.4471 40.3768C44.8808 40.1503 44.371 39.7538 43.918 39.1875L45.1073 36.7239C45.4754 37.0637 45.886 37.3044 46.3391 37.446C46.8205 37.6159 47.3019 37.7008 47.7833 37.7008C48.8877 37.7008 49.9213 37.3893 50.8841 36.7663C51.8752 36.1434 52.753 35.2938 53.5176 34.2178C53.999 33.5098 54.4804 32.9293 54.9618 32.4762C55.4432 32.0232 55.8821 31.74 56.2786 31.6267C56.6184 31.1736 57.1847 30.7064 57.9776 30.225C58.7705 29.7436 59.4501 29.418 60.0164 29.248C61.2058 29.7861 61.9987 30.3524 62.3951 30.9471C62.8199 31.5134 63.0323 32.1647 63.0323 32.901C63.0323 33.439 62.8765 33.9912 62.565 34.5576C62.2535 35.0956 61.8854 35.6053 61.4606 36.0867C61.0642 36.5398 60.7102 36.9362 60.3987 37.2761C59.5209 36.738 58.7563 36.3557 58.105 36.1292C57.4537 35.8743 56.9015 35.7469 56.4485 35.7469C55.9104 35.7469 55.3582 35.8602 54.7919 36.0867C54.2539 36.2849 53.6309 36.738 52.9229 37.446C51.9318 38.4371 50.9973 39.23 50.1195 39.8246C49.2417 40.4193 48.2505 40.7166 47.1462 40.7166Z" fill="#FEFEFE"/>
<path d="M36.623 45.2905C36.6797 44.8941 36.8071 44.3136 37.0053 43.549C37.2036 42.7844 37.4443 42.0198 37.7274 41.2553C38.0106 40.519 38.3079 39.9527 38.6194 39.5562H38.7044C39.1858 39.5562 39.6389 39.4854 40.0636 39.3438C40.5167 39.2023 40.9273 39.0182 41.2954 38.7917C41.5786 38.6217 41.8618 38.4377 42.145 38.2395C42.4281 38.0412 42.683 37.843 42.9095 37.6448C42.598 37.1634 42.2865 36.7245 41.9751 36.328C41.6636 35.9033 41.3096 35.5776 40.9132 35.3511C40.63 35.1812 40.276 35.0821 39.8512 35.0537C39.4548 35.0254 38.9876 35.1104 38.4495 35.3086L38.0248 34.4166C38.9592 33.4255 40.0353 32.5335 41.253 31.7406C42.4706 30.9194 43.8865 30.5088 45.5006 30.5088C46.8881 30.5088 47.8651 30.8061 48.4314 31.4008C49.0261 31.9671 49.3234 32.6892 49.3234 33.5671C49.3234 34.3316 49.0261 35.2378 48.4314 36.2856C47.8368 37.305 47.0014 38.2536 45.9253 39.1315H44.7785C44.2404 39.7828 43.6175 40.5049 42.9095 41.2977C42.2299 42.0906 41.4937 42.7986 40.7008 43.4216C40.0495 43.9596 39.384 44.3985 38.7044 44.7383C38.0248 45.1064 37.3593 45.2905 36.708 45.2905H36.623Z" fill="#FEFEFE"/>
<path d="M27.8001 44.4985C27.5169 44.102 27.3045 43.4932 27.1629 42.672C27.0213 41.8508 27.0072 41.0013 27.1204 40.1234C27.4319 40.1517 27.7151 40.1801 27.97 40.2084C28.2531 40.265 28.5363 40.2933 28.8195 40.2933C30.6601 40.2933 32.0477 39.7553 32.9822 38.6792C33.2936 37.0935 33.9025 35.5926 34.8086 34.1768L35.4458 34.3042C35.1909 35.8333 35.3608 37.051 35.9555 37.9571C36.5502 38.8633 37.3997 39.3164 38.5041 39.3164H38.589C38.674 40.1659 38.6173 41.0013 38.4191 41.8225C38.2209 42.6437 37.9519 43.3375 37.6121 43.9038C37.2722 44.4985 36.9324 44.8808 36.5926 45.0507H36.5077C35.5166 45.0507 34.7378 44.7675 34.1715 44.2011C33.6051 43.6631 33.2087 42.9835 32.9822 42.1623C32.3025 43.0401 31.4955 43.6914 30.561 44.1162C29.6265 44.541 28.7062 44.6684 27.8001 44.4985Z" fill="#FEFEFE"/>
<path d="M32.7687 59.9464C32.5705 59.9464 32.3156 59.9039 32.0041 59.819C31.1263 59.5358 30.4325 59.111 29.9228 58.5447C29.4131 57.95 29.1582 57.3554 29.1582 56.7607C29.1582 56.2793 29.2856 55.8404 29.5405 55.4439C29.7953 55.0475 30.0219 54.7218 30.2201 54.467L31.7493 52.4706H32.0041C32.2306 53.2352 32.6837 53.844 33.3633 54.2971C34.0713 54.7502 34.7792 55.0475 35.4872 55.1891L38.3331 51.3662H38.5879C38.8145 52.1025 39.2392 52.6688 39.8622 53.0653C40.4852 53.4617 41.1506 53.7307 41.8586 53.8723C42.34 53.9856 42.5807 54.2263 42.5807 54.5944C42.5807 54.8209 42.4816 55.0758 42.2833 55.359L40.202 58.3323C39.9472 58.6721 39.6498 58.842 39.31 58.842C39.1118 58.842 38.8569 58.7995 38.5455 58.7146C37.8658 58.4597 37.2712 58.1482 36.7614 57.7801C36.2517 57.3837 35.8694 57.0014 35.6146 56.6333L33.6607 59.4367C33.4058 59.7765 33.1085 59.9464 32.7687 59.9464Z" fill="#FEFEFE"/>
<path d="M9.34477 73.0153C7.24927 73.0153 5.50775 72.4914 4.12019 71.4437C2.73263 70.4243 1.69904 69.0367 1.01942 67.281C0.339803 65.5536 0 63.6422 0 61.5467C0 58.7716 0.424762 56.0107 1.27429 53.2639C2.12381 50.4887 3.10076 47.7703 4.20514 45.1084L5.56439 45.4907C4.74318 47.8127 4.00692 49.979 3.35561 51.9896C2.70431 54.0001 2.37867 56.1098 2.37867 58.3185C2.37867 60.7538 3.12907 62.7361 4.6299 64.2652C6.15904 65.7943 8.31119 66.5589 11.0863 66.5589C12.9553 66.5589 14.7676 66.2049 16.5232 65.497C18.2789 64.7891 19.8647 63.7272 21.2806 62.3113C22.7248 60.8954 23.8716 59.1397 24.7212 57.0442C25.3441 55.5434 25.7548 53.8444 25.953 51.9471C26.1512 50.0215 26.2503 48.1242 26.2503 46.2553C26.2503 45.1792 26.2078 44.3439 26.1229 43.7492C26.0662 43.1262 26.0379 42.6448 26.0379 42.305C26.0379 41.8236 26.137 41.3988 26.3353 41.0307C26.5335 40.6626 26.7883 40.4785 27.0998 40.4785C27.2981 40.7617 27.5387 41.2006 27.8219 41.7953C28.1051 42.3616 28.2467 43.1687 28.2467 44.2164C28.2467 46.8499 28.1051 49.2711 27.8219 51.4799C27.5671 53.6603 27.114 55.7275 26.4627 57.6814C25.8114 59.6353 24.8911 61.5892 23.7017 63.5431C22.6823 65.2421 21.4505 66.7996 20.0063 68.2155C18.5621 69.6597 16.948 70.8207 15.164 71.6985C13.38 72.5764 11.4403 73.0153 9.34477 73.0153Z" fill="#FEFEFE"/>
<path d="M15.8765 52.9796C15.7632 52.9796 15.6358 52.9796 15.4942 52.9796C15.3526 52.9513 15.211 52.923 15.0695 52.8947C13.8518 52.5832 12.9457 52.0735 12.351 51.3655C11.7563 50.6576 11.459 49.9921 11.459 49.3692C11.459 48.8028 11.6006 48.3072 11.8837 47.8825C12.1669 47.4577 12.4218 47.1038 12.6483 46.8206L14.3474 44.6543H14.5598C15.0128 45.4472 15.5509 46.0843 16.1739 46.5657C16.8252 47.0471 17.6463 47.3869 18.6375 47.5852C19.2038 47.6701 19.487 47.8966 19.487 48.2648C19.487 48.4913 19.3596 48.7745 19.1047 49.1143L16.8535 52.4274C16.6836 52.654 16.5278 52.8097 16.3862 52.8947C16.273 52.9513 16.103 52.9796 15.8765 52.9796Z" fill="#FEFEFE"/>
<path d="M49.7808 22.5657L49.5 21.7877C50.4548 21.3803 51.2973 20.9635 52.0275 20.5375C52.7764 20.093 53.4317 19.5929 53.9934 19.0372C53.6189 18.9261 53.3381 18.7501 53.1508 18.5093C52.9823 18.2685 52.8981 18 52.8981 17.7036C52.8981 17.4073 53.0198 17.0646 53.2632 16.6756C53.5066 16.2867 53.8061 15.944 54.1619 15.6477C54.5363 15.3513 54.892 15.2031 55.229 15.2031C55.4911 15.2031 55.7345 15.305 55.9592 15.5087C56.1839 15.7125 56.2962 16.0737 56.2962 16.5923C56.2962 17.7036 55.8188 18.7594 54.8639 19.7596C54.1151 20.5005 53.3006 21.0932 52.4207 21.5377C51.5594 21.9637 50.6795 22.3064 49.7808 22.5657ZM55.0886 17.9537C55.2009 17.6388 55.2103 17.3424 55.1167 17.0646C55.0418 16.7682 54.8639 16.6201 54.5831 16.6201C54.4708 16.6201 54.3397 16.6479 54.1899 16.7034C54.0589 16.759 53.9372 16.8609 53.8248 17.009C53.8248 17.1943 53.9372 17.3795 54.1619 17.5647C54.4052 17.7499 54.7142 17.8796 55.0886 17.9537Z" fill="#FEFEFE"/>
<path d="M38.6855 50.8806L38.3457 50.4984C38.7421 49.7621 39.0961 49.1957 39.4076 48.7993C39.7474 48.3745 40.3138 47.9781 41.1067 47.61L49.2196 43.7871L49.5594 44.1694L49.0497 45.1463C48.6816 45.8543 48.3276 46.3782 47.9878 46.718C47.648 47.0295 47.1524 47.3268 46.5011 47.61L38.6855 50.8806Z" fill="#FEFEFE"/>
</svg>
